%
M48
M72
T01C0.02362
T02C0.03150
T03C0.03200
T04C0.03937
T05C0.04000
T06C0.07480
%
T01
X36031Y84500
X36031Y74500
X48531Y74500
X31031Y69500
X188531Y14500
X171031Y77000
X171031Y67000
T02
X43531Y14500
X183177Y30150
X183177Y23850
X178452Y20701
X51405Y14500
X35657Y14500
X178452Y27000
X178452Y33299
T03
X128531Y139500
X128531Y109500
X113531Y9500
X158531Y29500
X43531Y84500
X43531Y104500
X51031Y99500
X51031Y109500
X53531Y127000
X58531Y74500
X103531Y9500
X58531Y59500
X128531Y89500
X158531Y109500
X158531Y159500
X86031Y159500
X76031Y159500
X128531Y149500
X128531Y119500
X43531Y127000
X128531Y159500
X106031Y177000
X66031Y177000
X53531Y84500
X98531Y74500
X158531Y129500
X208531Y159500
X198531Y159500
X128531Y129500
X158531Y149500
X158531Y139500
X198531Y172000
X208531Y172000
X188531Y99500
X178531Y99500
X158531Y89500
X128531Y69500
X128531Y99500
X128531Y79500
X158531Y99500
X158531Y79500
X68531Y39500
X58531Y39500
X88531Y39500
X98531Y39500
X98531Y59500
X128531Y49500
X128531Y39500
X128531Y29500
X163531Y9500
X123531Y9500
X158531Y39500
X158531Y119500
X158531Y59500
X158531Y69500
X158531Y49500
X128531Y59500
T04
X59279Y14500
X27783Y14500
T05
X211031Y79500
X78531Y114500
X23531Y109500
X23531Y119500
X23531Y69500
X46031Y194500
X36031Y194500
X26031Y194500
X66031Y194500
X76031Y194500
X23531Y89500
X23531Y99500
X98531Y94500
X88531Y94500
X78531Y94500
X23531Y79500
X56031Y194500
X88531Y114500
X98531Y114500
X188531Y184500
X211031Y119500
X211031Y109500
X208531Y184500
X198531Y184500
X211031Y139500
X211031Y69500
X211031Y99500
X211031Y89500
X23531Y129500
X23531Y139500
X211031Y129500
T06
X198531Y12630
X198531Y41370
M30
