G75*
%MOIN*%
%OFA0B0*%
%FSLAX25Y25*%
%IPPOS*%
%LPD*%
%AMOC8*
5,1,8,0,0,1.08239X$1,22.5*
%
%ADD10C,0.00000*%
%ADD11OC8,0.05200*%
%ADD12C,0.05150*%
%ADD13C,0.05937*%
%ADD14C,0.05200*%
%ADD15C,0.07400*%
%ADD16C,0.05150*%
%ADD17C,0.11220*%
%ADD18R,0.07400X0.07400*%
%ADD19C,0.06300*%
%ADD20OC8,0.06300*%
%ADD21C,0.01600*%
%ADD22C,0.03562*%
D10*
X0018531Y0004500D02*
X0018531Y0201350D01*
X0215381Y0201350D01*
X0215381Y0004500D01*
X0018531Y0004500D01*
D11*
X0058531Y0039500D03*
X0068531Y0039500D03*
X0088531Y0039500D03*
X0098531Y0039500D03*
X0098531Y0059500D03*
X0098531Y0074500D03*
X0058531Y0074500D03*
X0053531Y0084500D03*
X0043531Y0084500D03*
X0051031Y0099500D03*
X0043531Y0104500D03*
X0051031Y0109500D03*
X0053531Y0127000D03*
X0043531Y0127000D03*
X0076031Y0159500D03*
X0086031Y0159500D03*
X0106031Y0177000D03*
X0066031Y0177000D03*
X0058531Y0059500D03*
X0103531Y0009500D03*
X0113531Y0009500D03*
X0123531Y0009500D03*
X0163531Y0009500D03*
X0198531Y0159500D03*
X0208531Y0159500D03*
X0208531Y0172000D03*
X0198531Y0172000D03*
D12*
X0051405Y0017075D02*
X0051405Y0011925D01*
X0043531Y0011925D02*
X0043531Y0017075D01*
X0035657Y0017075D02*
X0035657Y0011925D01*
D13*
X0027783Y0011531D02*
X0027783Y0017469D01*
X0059279Y0017469D02*
X0059279Y0011531D01*
D14*
X0125931Y0029500D02*
X0131131Y0029500D01*
X0131131Y0039500D02*
X0125931Y0039500D01*
X0125931Y0049500D02*
X0131131Y0049500D01*
X0131131Y0059500D02*
X0125931Y0059500D01*
X0125931Y0069500D02*
X0131131Y0069500D01*
X0131131Y0079500D02*
X0125931Y0079500D01*
X0125931Y0089500D02*
X0131131Y0089500D01*
X0131131Y0099500D02*
X0125931Y0099500D01*
X0125931Y0109500D02*
X0131131Y0109500D01*
X0131131Y0119500D02*
X0125931Y0119500D01*
X0125931Y0129500D02*
X0131131Y0129500D01*
X0131131Y0139500D02*
X0125931Y0139500D01*
X0125931Y0149500D02*
X0131131Y0149500D01*
X0131131Y0159500D02*
X0125931Y0159500D01*
X0155931Y0159500D02*
X0161131Y0159500D01*
X0161131Y0149500D02*
X0155931Y0149500D01*
X0155931Y0139500D02*
X0161131Y0139500D01*
X0161131Y0129500D02*
X0155931Y0129500D01*
X0155931Y0119500D02*
X0161131Y0119500D01*
X0161131Y0109500D02*
X0155931Y0109500D01*
X0155931Y0099500D02*
X0161131Y0099500D01*
X0161131Y0089500D02*
X0155931Y0089500D01*
X0155931Y0079500D02*
X0161131Y0079500D01*
X0161131Y0069500D02*
X0155931Y0069500D01*
X0155931Y0059500D02*
X0161131Y0059500D01*
X0161131Y0049500D02*
X0155931Y0049500D01*
X0155931Y0039500D02*
X0161131Y0039500D01*
X0161131Y0029500D02*
X0155931Y0029500D01*
D15*
X0211031Y0069500D03*
X0211031Y0079500D03*
X0211031Y0089500D03*
X0211031Y0099500D03*
X0211031Y0109500D03*
X0211031Y0119500D03*
X0211031Y0129500D03*
X0208531Y0184500D03*
X0198531Y0184500D03*
X0188531Y0184500D03*
X0098531Y0114500D03*
X0088531Y0114500D03*
X0078531Y0114500D03*
X0078531Y0094500D03*
X0088531Y0094500D03*
X0098531Y0094500D03*
X0023531Y0089500D03*
X0023531Y0079500D03*
X0023531Y0069500D03*
X0023531Y0099500D03*
X0023531Y0109500D03*
X0023531Y0119500D03*
X0023531Y0129500D03*
X0026031Y0194500D03*
X0036031Y0194500D03*
X0046031Y0194500D03*
X0056031Y0194500D03*
X0066031Y0194500D03*
X0076031Y0194500D03*
D16*
X0178452Y0033299D03*
X0183177Y0030150D03*
X0178452Y0027000D03*
X0183177Y0023850D03*
X0178452Y0020701D03*
D17*
X0198531Y0012630D03*
X0198531Y0041370D03*
D18*
X0211031Y0139500D03*
X0023531Y0139500D03*
D19*
X0178531Y0099500D03*
D20*
X0188531Y0099500D03*
D21*
X0193481Y0099500D01*
X0193481Y0101550D01*
X0190581Y0104450D01*
X0188531Y0104450D01*
X0188531Y0099500D01*
X0188531Y0099500D01*
X0193481Y0099500D01*
X0193481Y0097450D01*
X0190581Y0094550D01*
X0188531Y0094550D01*
X0188531Y0099500D01*
X0188531Y0099500D01*
X0188531Y0099500D01*
X0188531Y0104450D01*
X0186481Y0104450D01*
X0183581Y0101550D01*
X0183581Y0099500D01*
X0188531Y0099500D01*
X0188531Y0094550D01*
X0186481Y0094550D01*
X0183581Y0097450D01*
X0183581Y0099500D01*
X0188531Y0099500D01*
X0188531Y0099500D01*
X0188531Y0098812D02*
X0188531Y0098812D01*
X0188531Y0097214D02*
X0188531Y0097214D01*
X0188531Y0095615D02*
X0188531Y0095615D01*
X0191646Y0095615D02*
X0207703Y0095615D01*
X0208142Y0095176D02*
X0206707Y0096611D01*
X0205931Y0098486D01*
X0205931Y0100514D01*
X0206707Y0102389D01*
X0208142Y0103824D01*
X0209775Y0104500D01*
X0208142Y0105176D01*
X0206707Y0106611D01*
X0205931Y0108486D01*
X0205931Y0110514D01*
X0206707Y0112389D01*
X0208142Y0113824D01*
X0209775Y0114500D01*
X0208142Y0115176D01*
X0206707Y0116611D01*
X0205931Y0118486D01*
X0205931Y0120514D01*
X0206707Y0122389D01*
X0208142Y0123824D01*
X0209775Y0124500D01*
X0208142Y0125176D01*
X0206707Y0126611D01*
X0205931Y0128486D01*
X0205931Y0130514D01*
X0206707Y0132389D01*
X0208142Y0133824D01*
X0209534Y0134400D01*
X0206751Y0134400D01*
X0205931Y0135220D01*
X0205931Y0143780D01*
X0206751Y0144600D01*
X0213581Y0144600D01*
X0213581Y0182297D01*
X0213235Y0181617D01*
X0212726Y0180917D01*
X0212114Y0180305D01*
X0211414Y0179796D01*
X0210642Y0179403D01*
X0209819Y0179135D01*
X0208964Y0179000D01*
X0208731Y0179000D01*
X0208731Y0184300D01*
X0208331Y0184300D01*
X0208331Y0179000D01*
X0208098Y0179000D01*
X0207243Y0179135D01*
X0206420Y0179403D01*
X0205648Y0179796D01*
X0204948Y0180305D01*
X0204336Y0180917D01*
X0203827Y0181617D01*
X0203434Y0182389D01*
X0203321Y0182737D01*
X0202854Y0181611D01*
X0201420Y0180176D01*
X0199545Y0179400D01*
X0197516Y0179400D01*
X0195642Y0180176D01*
X0194207Y0181611D01*
X0193531Y0183244D01*
X0192854Y0181611D01*
X0191420Y0180176D01*
X0189545Y0179400D01*
X0187516Y0179400D01*
X0185642Y0180176D01*
X0184207Y0181611D01*
X0183431Y0183486D01*
X0183431Y0185514D01*
X0184207Y0187389D01*
X0185642Y0188824D01*
X0187516Y0189600D01*
X0189545Y0189600D01*
X0191420Y0188824D01*
X0192854Y0187389D01*
X0193531Y0185756D01*
X0194207Y0187389D01*
X0195642Y0188824D01*
X0197516Y0189600D01*
X0199545Y0189600D01*
X0201420Y0188824D01*
X0202854Y0187389D01*
X0203321Y0186263D01*
X0203434Y0186611D01*
X0203827Y0187383D01*
X0204336Y0188083D01*
X0204948Y0188695D01*
X0205648Y0189204D01*
X0206420Y0189597D01*
X0207243Y0189865D01*
X0208098Y0190000D01*
X0208331Y0190000D01*
X0208331Y0184700D01*
X0208731Y0184700D01*
X0208731Y0190000D01*
X0208964Y0190000D01*
X0209819Y0189865D01*
X0210642Y0189597D01*
X0211414Y0189204D01*
X0212114Y0188695D01*
X0212726Y0188083D01*
X0213235Y0187383D01*
X0213581Y0186703D01*
X0213581Y0199550D01*
X0077165Y0199550D01*
X0078920Y0198824D01*
X0080354Y0197389D01*
X0081131Y0195514D01*
X0081131Y0193486D01*
X0080354Y0191611D01*
X0078920Y0190176D01*
X0077045Y0189400D01*
X0075016Y0189400D01*
X0073142Y0190176D01*
X0071707Y0191611D01*
X0071031Y0193244D01*
X0070354Y0191611D01*
X0068920Y0190176D01*
X0067045Y0189400D01*
X0065016Y0189400D01*
X0063142Y0190176D01*
X0061707Y0191611D01*
X0061241Y0192737D01*
X0061128Y0192389D01*
X0060735Y0191617D01*
X0060226Y0190917D01*
X0059614Y0190305D01*
X0058914Y0189796D01*
X0058142Y0189403D01*
X0057319Y0189135D01*
X0056464Y0189000D01*
X0056231Y0189000D01*
X0056231Y0194300D01*
X0055831Y0194300D01*
X0055831Y0189000D01*
X0055598Y0189000D01*
X0054743Y0189135D01*
X0053920Y0189403D01*
X0053148Y0189796D01*
X0052448Y0190305D01*
X0051836Y0190917D01*
X0051327Y0191617D01*
X0050934Y0192389D01*
X0050821Y0192737D01*
X0050354Y0191611D01*
X0048920Y0190176D01*
X0047045Y0189400D01*
X0045016Y0189400D01*
X0043142Y0190176D01*
X0041707Y0191611D01*
X0041031Y0193244D01*
X0040354Y0191611D01*
X0038920Y0190176D01*
X0037045Y0189400D01*
X0035016Y0189400D01*
X0033142Y0190176D01*
X0031707Y0191611D01*
X0031031Y0193244D01*
X0030354Y0191611D01*
X0028920Y0190176D01*
X0027045Y0189400D01*
X0025016Y0189400D01*
X0023142Y0190176D01*
X0021707Y0191611D01*
X0020931Y0193486D01*
X0020931Y0195514D01*
X0021707Y0197389D01*
X0023142Y0198824D01*
X0024897Y0199550D01*
X0020331Y0199550D01*
X0020331Y0144600D01*
X0025520Y0144600D01*
X0032620Y0151700D01*
X0122513Y0151700D01*
X0122540Y0151766D01*
X0123665Y0152891D01*
X0125135Y0153500D01*
X0131927Y0153500D01*
X0133397Y0152891D01*
X0134522Y0151766D01*
X0135131Y0150296D01*
X0135131Y0148704D01*
X0134522Y0147234D01*
X0133397Y0146109D01*
X0131927Y0145500D01*
X0125135Y0145500D01*
X0123665Y0146109D01*
X0122540Y0147234D01*
X0122513Y0147300D01*
X0034442Y0147300D01*
X0028631Y0141489D01*
X0028631Y0135220D01*
X0027811Y0134400D01*
X0025028Y0134400D01*
X0026420Y0133824D01*
X0027854Y0132389D01*
X0028140Y0131700D01*
X0030120Y0131700D01*
X0040120Y0141700D01*
X0122513Y0141700D01*
X0122540Y0141766D01*
X0123665Y0142891D01*
X0125135Y0143500D01*
X0131927Y0143500D01*
X0133397Y0142891D01*
X0134522Y0141766D01*
X0135131Y0140296D01*
X0135131Y0138704D01*
X0134522Y0137234D01*
X0133397Y0136109D01*
X0131927Y0135500D01*
X0125135Y0135500D01*
X0123665Y0136109D01*
X0122540Y0137234D01*
X0122513Y0137300D01*
X0041942Y0137300D01*
X0033231Y0128589D01*
X0031942Y0127300D01*
X0028140Y0127300D01*
X0027854Y0126611D01*
X0026420Y0125176D01*
X0024787Y0124500D01*
X0026420Y0123824D01*
X0027854Y0122389D01*
X0028140Y0121700D01*
X0060120Y0121700D01*
X0072620Y0134200D01*
X0104442Y0134200D01*
X0105731Y0132911D01*
X0125142Y0113500D01*
X0131927Y0113500D01*
X0133397Y0112891D01*
X0134522Y0111766D01*
X0135131Y0110296D01*
X0135131Y0108704D01*
X0134522Y0107234D01*
X0133397Y0106109D01*
X0131927Y0105500D01*
X0125135Y0105500D01*
X0123665Y0106109D01*
X0122540Y0107234D01*
X0121931Y0108704D01*
X0121931Y0110296D01*
X0121987Y0110432D01*
X0102620Y0129800D01*
X0074442Y0129800D01*
X0063231Y0118589D01*
X0061942Y0117300D01*
X0028140Y0117300D01*
X0027854Y0116611D01*
X0026420Y0115176D01*
X0024787Y0114500D01*
X0026420Y0113824D01*
X0027854Y0112389D01*
X0028140Y0111700D01*
X0037620Y0111700D01*
X0041331Y0115411D01*
X0042620Y0116700D01*
X0069442Y0116700D01*
X0070731Y0115411D01*
X0073978Y0112164D01*
X0073431Y0113486D01*
X0073431Y0115514D01*
X0074207Y0117389D01*
X0075642Y0118824D01*
X0077516Y0119600D01*
X0079545Y0119600D01*
X0081420Y0118824D01*
X0082854Y0117389D01*
X0083321Y0116263D01*
X0083434Y0116611D01*
X0083827Y0117383D01*
X0084336Y0118083D01*
X0084948Y0118695D01*
X0085648Y0119204D01*
X0086420Y0119597D01*
X0087243Y0119865D01*
X0088098Y0120000D01*
X0088331Y0120000D01*
X0088331Y0114700D01*
X0088731Y0114700D01*
X0088731Y0120000D01*
X0088964Y0120000D01*
X0089819Y0119865D01*
X0090642Y0119597D01*
X0091414Y0119204D01*
X0092114Y0118695D01*
X0092726Y0118083D01*
X0093235Y0117383D01*
X0093628Y0116611D01*
X0093741Y0116263D01*
X0094207Y0117389D01*
X0095642Y0118824D01*
X0097516Y0119600D01*
X0099545Y0119600D01*
X0101420Y0118824D01*
X0102854Y0117389D01*
X0103631Y0115514D01*
X0103631Y0113486D01*
X0102854Y0111611D01*
X0101420Y0110176D01*
X0099545Y0109400D01*
X0097516Y0109400D01*
X0095642Y0110176D01*
X0094207Y0111611D01*
X0093741Y0112737D01*
X0093628Y0112389D01*
X0093235Y0111617D01*
X0092726Y0110917D01*
X0092114Y0110305D01*
X0091414Y0109796D01*
X0090642Y0109403D01*
X0089819Y0109135D01*
X0088964Y0109000D01*
X0088731Y0109000D01*
X0088731Y0114300D01*
X0088331Y0114300D01*
X0088331Y0109000D01*
X0088098Y0109000D01*
X0087243Y0109135D01*
X0086420Y0109403D01*
X0085648Y0109796D01*
X0084948Y0110305D01*
X0084336Y0110917D01*
X0083827Y0111617D01*
X0083434Y0112389D01*
X0083321Y0112737D01*
X0082854Y0111611D01*
X0081420Y0110176D01*
X0079545Y0109400D01*
X0077516Y0109400D01*
X0076195Y0109948D01*
X0079442Y0106700D01*
X0119442Y0106700D01*
X0123458Y0102684D01*
X0123665Y0102891D01*
X0125135Y0103500D01*
X0131927Y0103500D01*
X0133397Y0102891D01*
X0134522Y0101766D01*
X0135131Y0100296D01*
X0135131Y0098704D01*
X0134522Y0097234D01*
X0133397Y0096109D01*
X0131927Y0095500D01*
X0125135Y0095500D01*
X0123665Y0096109D01*
X0122540Y0097234D01*
X0122437Y0097483D01*
X0121331Y0098589D01*
X0117620Y0102300D01*
X0077620Y0102300D01*
X0076331Y0103589D01*
X0067620Y0112300D01*
X0053888Y0112300D01*
X0055031Y0111157D01*
X0055031Y0107843D01*
X0052688Y0105500D01*
X0049374Y0105500D01*
X0047031Y0107843D01*
X0047031Y0111157D01*
X0048174Y0112300D01*
X0044442Y0112300D01*
X0039442Y0107300D01*
X0028140Y0107300D01*
X0027854Y0106611D01*
X0026420Y0105176D01*
X0024787Y0104500D01*
X0026420Y0103824D01*
X0027854Y0102389D01*
X0028140Y0101700D01*
X0034442Y0101700D01*
X0041942Y0094200D01*
X0066942Y0094200D01*
X0074442Y0086700D01*
X0087620Y0086700D01*
X0090867Y0089948D01*
X0089545Y0089400D01*
X0087516Y0089400D01*
X0085642Y0090176D01*
X0084207Y0091611D01*
X0083741Y0092737D01*
X0083628Y0092389D01*
X0083235Y0091617D01*
X0082726Y0090917D01*
X0082114Y0090305D01*
X0081414Y0089796D01*
X0080642Y0089403D01*
X0079819Y0089135D01*
X0078964Y0089000D01*
X0078731Y0089000D01*
X0078731Y0094300D01*
X0078331Y0094300D01*
X0078331Y0089000D01*
X0078098Y0089000D01*
X0077243Y0089135D01*
X0076420Y0089403D01*
X0075648Y0089796D01*
X0074948Y0090305D01*
X0074336Y0090917D01*
X0073827Y0091617D01*
X0073434Y0092389D01*
X0073166Y0093212D01*
X0073031Y0094067D01*
X0073031Y0094300D01*
X0078331Y0094300D01*
X0078331Y0094700D01*
X0078331Y0100000D01*
X0078098Y0100000D01*
X0077243Y0099865D01*
X0076420Y0099597D01*
X0075648Y0099204D01*
X0074948Y0098695D01*
X0074336Y0098083D01*
X0073827Y0097383D01*
X0073434Y0096611D01*
X0073166Y0095788D01*
X0073031Y0094933D01*
X0073031Y0094700D01*
X0078331Y0094700D01*
X0078731Y0094700D01*
X0078731Y0100000D01*
X0078964Y0100000D01*
X0079819Y0099865D01*
X0080642Y0099597D01*
X0081414Y0099204D01*
X0082114Y0098695D01*
X0082726Y0098083D01*
X0083235Y0097383D01*
X0083628Y0096611D01*
X0083741Y0096263D01*
X0084207Y0097389D01*
X0085642Y0098824D01*
X0087516Y0099600D01*
X0089545Y0099600D01*
X0091420Y0098824D01*
X0092854Y0097389D01*
X0093531Y0095756D01*
X0094207Y0097389D01*
X0095642Y0098824D01*
X0097516Y0099600D01*
X0099545Y0099600D01*
X0101420Y0098824D01*
X0102854Y0097389D01*
X0103631Y0095514D01*
X0103631Y0093486D01*
X0102854Y0091611D01*
X0101420Y0090176D01*
X0099545Y0089400D01*
X0097516Y0089400D01*
X0096828Y0089685D01*
X0090731Y0083589D01*
X0089442Y0082300D01*
X0072620Y0082300D01*
X0071331Y0083589D01*
X0065120Y0089800D01*
X0040120Y0089800D01*
X0038831Y0091089D01*
X0032620Y0097300D01*
X0028140Y0097300D01*
X0027854Y0096611D01*
X0026420Y0095176D01*
X0024787Y0094500D01*
X0026420Y0093824D01*
X0027854Y0092389D01*
X0028631Y0090514D01*
X0028631Y0088486D01*
X0027854Y0086611D01*
X0026420Y0085176D01*
X0024787Y0084500D01*
X0026420Y0083824D01*
X0027854Y0082389D01*
X0028631Y0080514D01*
X0028631Y0078486D01*
X0027854Y0076611D01*
X0026420Y0075176D01*
X0025294Y0074710D01*
X0025642Y0074597D01*
X0026414Y0074204D01*
X0027114Y0073695D01*
X0027726Y0073083D01*
X0028235Y0072383D01*
X0028628Y0071611D01*
X0028632Y0071600D01*
X0028831Y0071799D01*
X0028831Y0080411D01*
X0030120Y0081700D01*
X0032850Y0084430D01*
X0032850Y0085133D01*
X0033334Y0086302D01*
X0034229Y0087197D01*
X0035398Y0087681D01*
X0036664Y0087681D01*
X0037833Y0087197D01*
X0038728Y0086302D01*
X0039212Y0085133D01*
X0039212Y0083867D01*
X0038728Y0082698D01*
X0037833Y0081803D01*
X0036664Y0081319D01*
X0035961Y0081319D01*
X0033231Y0078589D01*
X0033231Y0076053D01*
X0033334Y0076302D01*
X0034229Y0077197D01*
X0035398Y0077681D01*
X0036664Y0077681D01*
X0037833Y0077197D01*
X0038330Y0076700D01*
X0046232Y0076700D01*
X0046729Y0077197D01*
X0047898Y0077681D01*
X0049164Y0077681D01*
X0050333Y0077197D01*
X0051228Y0076302D01*
X0051712Y0075133D01*
X0051712Y0073867D01*
X0051228Y0072698D01*
X0050333Y0071803D01*
X0049164Y0071319D01*
X0047898Y0071319D01*
X0046729Y0071803D01*
X0046232Y0072300D01*
X0038330Y0072300D01*
X0037833Y0071803D01*
X0036664Y0071319D01*
X0035398Y0071319D01*
X0034229Y0071803D01*
X0033334Y0072698D01*
X0033231Y0072947D01*
X0033231Y0071799D01*
X0033728Y0071302D01*
X0034212Y0070133D01*
X0034212Y0068867D01*
X0033728Y0067698D01*
X0032833Y0066803D01*
X0031664Y0066319D01*
X0030398Y0066319D01*
X0029229Y0066803D01*
X0028632Y0067400D01*
X0028628Y0067389D01*
X0028235Y0066617D01*
X0027726Y0065917D01*
X0027114Y0065305D01*
X0026414Y0064796D01*
X0025642Y0064403D01*
X0024819Y0064135D01*
X0023964Y0064000D01*
X0023731Y0064000D01*
X0023731Y0069300D01*
X0023331Y0069300D01*
X0023331Y0064000D01*
X0023098Y0064000D01*
X0022243Y0064135D01*
X0021420Y0064403D01*
X0020648Y0064796D01*
X0020331Y0065027D01*
X0020331Y0006300D01*
X0101074Y0006300D01*
X0099531Y0007843D01*
X0099531Y0010389D01*
X0077620Y0032300D01*
X0076331Y0033589D01*
X0076331Y0053589D01*
X0059420Y0070500D01*
X0056874Y0070500D01*
X0054531Y0072843D01*
X0054531Y0076157D01*
X0056874Y0078500D01*
X0059420Y0078500D01*
X0062620Y0081700D01*
X0095120Y0081700D01*
X0103831Y0090411D01*
X0103831Y0090411D01*
X0105120Y0091700D01*
X0122513Y0091700D01*
X0122540Y0091766D01*
X0123665Y0092891D01*
X0125135Y0093500D01*
X0131927Y0093500D01*
X0133397Y0092891D01*
X0134522Y0091766D01*
X0134549Y0091700D01*
X0135120Y0091700D01*
X0151987Y0108568D01*
X0151931Y0108704D01*
X0151931Y0110296D01*
X0152540Y0111766D01*
X0153665Y0112891D01*
X0155135Y0113500D01*
X0161927Y0113500D01*
X0163397Y0112891D01*
X0163604Y0112684D01*
X0166331Y0115411D01*
X0166331Y0151089D01*
X0161920Y0155500D01*
X0155135Y0155500D01*
X0153665Y0156109D01*
X0152540Y0157234D01*
X0151931Y0158704D01*
X0151931Y0160296D01*
X0152540Y0161766D01*
X0153665Y0162891D01*
X0155135Y0163500D01*
X0156331Y0163500D01*
X0156331Y0163589D01*
X0152620Y0167300D01*
X0101942Y0167300D01*
X0091942Y0157300D01*
X0089488Y0157300D01*
X0087688Y0155500D01*
X0084374Y0155500D01*
X0082031Y0157843D01*
X0082031Y0161157D01*
X0084374Y0163500D01*
X0087688Y0163500D01*
X0089488Y0161700D01*
X0090120Y0161700D01*
X0098831Y0170411D01*
X0100120Y0171700D01*
X0154442Y0171700D01*
X0159442Y0166700D01*
X0160731Y0165411D01*
X0160731Y0163500D01*
X0161927Y0163500D01*
X0163397Y0162891D01*
X0164522Y0161766D01*
X0165131Y0160296D01*
X0165131Y0158704D01*
X0165074Y0158568D01*
X0169442Y0154200D01*
X0170731Y0152911D01*
X0170731Y0113589D01*
X0165731Y0108589D01*
X0164625Y0107483D01*
X0164522Y0107234D01*
X0163397Y0106109D01*
X0161927Y0105500D01*
X0155142Y0105500D01*
X0138231Y0088589D01*
X0136942Y0087300D01*
X0134549Y0087300D01*
X0134522Y0087234D01*
X0133397Y0086109D01*
X0131927Y0085500D01*
X0125135Y0085500D01*
X0123665Y0086109D01*
X0122540Y0087234D01*
X0122513Y0087300D01*
X0106942Y0087300D01*
X0098231Y0078589D01*
X0098231Y0078589D01*
X0098142Y0078500D01*
X0100188Y0078500D01*
X0102531Y0076157D01*
X0102531Y0072843D01*
X0100188Y0070500D01*
X0096874Y0070500D01*
X0094531Y0072843D01*
X0094531Y0076157D01*
X0095674Y0077300D01*
X0064442Y0077300D01*
X0062531Y0075389D01*
X0062531Y0073611D01*
X0080731Y0055411D01*
X0080731Y0035411D01*
X0102642Y0013500D01*
X0105188Y0013500D01*
X0107531Y0011157D01*
X0107531Y0007843D01*
X0105988Y0006300D01*
X0111074Y0006300D01*
X0109531Y0007843D01*
X0109531Y0011157D01*
X0111874Y0013500D01*
X0115188Y0013500D01*
X0117531Y0011157D01*
X0117531Y0007843D01*
X0115988Y0006300D01*
X0121074Y0006300D01*
X0119531Y0007843D01*
X0119531Y0011157D01*
X0121874Y0013500D01*
X0125188Y0013500D01*
X0127531Y0011157D01*
X0127531Y0007843D01*
X0125988Y0006300D01*
X0160508Y0006300D01*
X0159131Y0007677D01*
X0159131Y0009500D01*
X0163531Y0009500D01*
X0167931Y0009500D01*
X0167931Y0011323D01*
X0165353Y0013900D01*
X0163531Y0013900D01*
X0163531Y0009500D01*
X0163531Y0009500D01*
X0167931Y0009500D01*
X0167931Y0007677D01*
X0166553Y0006300D01*
X0195494Y0006300D01*
X0194560Y0006687D01*
X0192588Y0008659D01*
X0191521Y0011235D01*
X0191521Y0013405D01*
X0191228Y0012698D01*
X0190333Y0011803D01*
X0189164Y0011319D01*
X0187898Y0011319D01*
X0186729Y0011803D01*
X0186232Y0012300D01*
X0167620Y0012300D01*
X0162620Y0017300D01*
X0130120Y0017300D01*
X0127620Y0019800D01*
X0126331Y0021089D01*
X0126331Y0025500D01*
X0125135Y0025500D01*
X0123665Y0026109D01*
X0122540Y0027234D01*
X0121931Y0028704D01*
X0121931Y0030296D01*
X0122540Y0031766D01*
X0123665Y0032891D01*
X0125135Y0033500D01*
X0131927Y0033500D01*
X0133397Y0032891D01*
X0134522Y0031766D01*
X0135131Y0030296D01*
X0135131Y0028704D01*
X0134522Y0027234D01*
X0133397Y0026109D01*
X0131927Y0025500D01*
X0130731Y0025500D01*
X0130731Y0022911D01*
X0131942Y0021700D01*
X0164442Y0021700D01*
X0165731Y0020411D01*
X0169442Y0016700D01*
X0186232Y0016700D01*
X0186729Y0017197D01*
X0187898Y0017681D01*
X0189164Y0017681D01*
X0190333Y0017197D01*
X0191228Y0016302D01*
X0191712Y0015133D01*
X0191712Y0014486D01*
X0192588Y0016601D01*
X0194560Y0018573D01*
X0197137Y0019640D01*
X0199925Y0019640D01*
X0202502Y0018573D01*
X0204474Y0016601D01*
X0205541Y0014024D01*
X0205541Y0011235D01*
X0204474Y0008659D01*
X0202502Y0006687D01*
X0201568Y0006300D01*
X0213581Y0006300D01*
X0213581Y0064627D01*
X0213142Y0064403D01*
X0212319Y0064135D01*
X0211464Y0064000D01*
X0211231Y0064000D01*
X0211231Y0069300D01*
X0210831Y0069300D01*
X0210831Y0064000D01*
X0210598Y0064000D01*
X0209743Y0064135D01*
X0208920Y0064403D01*
X0208148Y0064796D01*
X0207448Y0065305D01*
X0206836Y0065917D01*
X0206327Y0066617D01*
X0205934Y0067389D01*
X0205666Y0068212D01*
X0205531Y0069067D01*
X0205531Y0069300D01*
X0210831Y0069300D01*
X0210831Y0069700D01*
X0205531Y0069700D01*
X0205531Y0069933D01*
X0205666Y0070788D01*
X0205934Y0071611D01*
X0206327Y0072383D01*
X0206836Y0073083D01*
X0207448Y0073695D01*
X0208148Y0074204D01*
X0208920Y0074597D01*
X0209268Y0074710D01*
X0208142Y0075176D01*
X0206707Y0076611D01*
X0205931Y0078486D01*
X0205931Y0080514D01*
X0206707Y0082389D01*
X0208142Y0083824D01*
X0209775Y0084500D01*
X0208142Y0085176D01*
X0206707Y0086611D01*
X0205931Y0088486D01*
X0205931Y0090514D01*
X0206707Y0092389D01*
X0208142Y0093824D01*
X0209775Y0094500D01*
X0208142Y0095176D01*
X0208608Y0094017D02*
X0172126Y0094017D01*
X0173724Y0092418D02*
X0206737Y0092418D01*
X0206057Y0090820D02*
X0175323Y0090820D01*
X0176921Y0089221D02*
X0205931Y0089221D01*
X0206288Y0087623D02*
X0178520Y0087623D01*
X0180118Y0086024D02*
X0207294Y0086024D01*
X0209595Y0084426D02*
X0181717Y0084426D01*
X0183315Y0082827D02*
X0207145Y0082827D01*
X0206227Y0081229D02*
X0184914Y0081229D01*
X0185731Y0080411D02*
X0165731Y0100411D01*
X0164625Y0101517D01*
X0164522Y0101766D01*
X0163397Y0102891D01*
X0161927Y0103500D01*
X0155135Y0103500D01*
X0153665Y0102891D01*
X0152540Y0101766D01*
X0151931Y0100296D01*
X0151931Y0098704D01*
X0152540Y0097234D01*
X0153665Y0096109D01*
X0155135Y0095500D01*
X0161927Y0095500D01*
X0163397Y0096109D01*
X0163604Y0096316D01*
X0181331Y0078589D01*
X0181331Y0038589D01*
X0182620Y0037300D01*
X0188831Y0031089D01*
X0188831Y0030411D01*
X0186708Y0028288D01*
X0187151Y0029359D01*
X0187151Y0030940D01*
X0186546Y0032401D01*
X0185428Y0033519D01*
X0183967Y0034124D01*
X0182751Y0034124D01*
X0182719Y0034324D01*
X0182506Y0034979D01*
X0182194Y0035592D01*
X0181789Y0036149D01*
X0181302Y0036636D01*
X0180745Y0037041D01*
X0180132Y0037353D01*
X0179477Y0037566D01*
X0178796Y0037674D01*
X0178452Y0037674D01*
X0178108Y0037674D01*
X0177428Y0037566D01*
X0176773Y0037353D01*
X0176159Y0037041D01*
X0175602Y0036636D01*
X0175115Y0036149D01*
X0174711Y0035592D01*
X0174398Y0034979D01*
X0174185Y0034324D01*
X0174077Y0033644D01*
X0174077Y0033299D01*
X0174077Y0032955D01*
X0174185Y0032275D01*
X0174398Y0031620D01*
X0174711Y0031006D01*
X0175115Y0030449D01*
X0175602Y0029962D01*
X0175713Y0029882D01*
X0175083Y0029252D01*
X0175061Y0029200D01*
X0174442Y0029200D01*
X0173231Y0030411D01*
X0173231Y0064701D01*
X0173728Y0065198D01*
X0174212Y0066367D01*
X0174212Y0067633D01*
X0173728Y0068802D01*
X0172833Y0069697D01*
X0171664Y0070181D01*
X0170398Y0070181D01*
X0169229Y0069697D01*
X0168334Y0068802D01*
X0167850Y0067633D01*
X0167850Y0066367D01*
X0168334Y0065198D01*
X0168831Y0064701D01*
X0168831Y0028589D01*
X0171331Y0026089D01*
X0172620Y0024800D01*
X0175061Y0024800D01*
X0175083Y0024748D01*
X0175981Y0023850D01*
X0175083Y0022952D01*
X0174477Y0021491D01*
X0174477Y0019910D01*
X0175083Y0018449D01*
X0176201Y0017331D01*
X0177662Y0016726D01*
X0179243Y0016726D01*
X0180704Y0017331D01*
X0181822Y0018449D01*
X0182413Y0019876D01*
X0183967Y0019876D01*
X0185428Y0020481D01*
X0186546Y0021599D01*
X0186762Y0022120D01*
X0191942Y0027300D01*
X0193231Y0028589D01*
X0193231Y0032911D01*
X0185731Y0040411D01*
X0185731Y0080411D01*
X0185731Y0079630D02*
X0205931Y0079630D01*
X0206119Y0078032D02*
X0185731Y0078032D01*
X0185731Y0076433D02*
X0206885Y0076433D01*
X0208968Y0074834D02*
X0185731Y0074834D01*
X0185731Y0073236D02*
X0206989Y0073236D01*
X0205947Y0071637D02*
X0185731Y0071637D01*
X0185731Y0070039D02*
X0205548Y0070039D01*
X0205630Y0068440D02*
X0185731Y0068440D01*
X0185731Y0066842D02*
X0206212Y0066842D01*
X0207532Y0065243D02*
X0185731Y0065243D01*
X0185731Y0063645D02*
X0213581Y0063645D01*
X0213581Y0062046D02*
X0185731Y0062046D01*
X0185731Y0060448D02*
X0213581Y0060448D01*
X0213581Y0058849D02*
X0185731Y0058849D01*
X0185731Y0057251D02*
X0213581Y0057251D01*
X0213581Y0055652D02*
X0185731Y0055652D01*
X0185731Y0054054D02*
X0213581Y0054054D01*
X0213581Y0052455D02*
X0185731Y0052455D01*
X0185731Y0050857D02*
X0213581Y0050857D01*
X0213581Y0049258D02*
X0185731Y0049258D01*
X0185731Y0047660D02*
X0195397Y0047660D01*
X0194560Y0047313D02*
X0192588Y0045341D01*
X0191521Y0042764D01*
X0191521Y0039976D01*
X0192588Y0037399D01*
X0194560Y0035427D01*
X0197137Y0034360D01*
X0199925Y0034360D01*
X0202502Y0035427D01*
X0204474Y0037399D01*
X0205541Y0039976D01*
X0205541Y0042764D01*
X0204474Y0045341D01*
X0202502Y0047313D01*
X0199925Y0048380D01*
X0197137Y0048380D01*
X0194560Y0047313D01*
X0193308Y0046061D02*
X0185731Y0046061D01*
X0185731Y0044463D02*
X0192224Y0044463D01*
X0191562Y0042864D02*
X0185731Y0042864D01*
X0185731Y0041266D02*
X0191521Y0041266D01*
X0191648Y0039667D02*
X0186475Y0039667D01*
X0188073Y0038069D02*
X0192311Y0038069D01*
X0193517Y0036470D02*
X0189672Y0036470D01*
X0191270Y0034872D02*
X0195901Y0034872D01*
X0192869Y0033273D02*
X0213581Y0033273D01*
X0213581Y0031675D02*
X0193231Y0031675D01*
X0193231Y0030076D02*
X0213581Y0030076D01*
X0213581Y0028478D02*
X0193120Y0028478D01*
X0191521Y0026879D02*
X0213581Y0026879D01*
X0213581Y0025281D02*
X0189923Y0025281D01*
X0188324Y0023682D02*
X0213581Y0023682D01*
X0213581Y0022084D02*
X0186747Y0022084D01*
X0185433Y0020485D02*
X0213581Y0020485D01*
X0213581Y0018887D02*
X0201745Y0018887D01*
X0203787Y0017288D02*
X0213581Y0017288D01*
X0213581Y0015690D02*
X0204851Y0015690D01*
X0205514Y0014091D02*
X0213581Y0014091D01*
X0213581Y0012493D02*
X0205541Y0012493D01*
X0205400Y0010894D02*
X0213581Y0010894D01*
X0213581Y0009296D02*
X0204738Y0009296D01*
X0203512Y0007697D02*
X0213581Y0007697D01*
X0195317Y0018887D02*
X0182003Y0018887D01*
X0180600Y0017288D02*
X0186949Y0017288D01*
X0190112Y0017288D02*
X0193275Y0017288D01*
X0192210Y0015690D02*
X0191481Y0015690D01*
X0188531Y0014500D02*
X0168531Y0014500D01*
X0163531Y0019500D01*
X0131031Y0019500D01*
X0128531Y0022000D01*
X0128531Y0029500D01*
X0124588Y0033273D02*
X0082869Y0033273D01*
X0084467Y0031675D02*
X0122502Y0031675D01*
X0121931Y0030076D02*
X0086066Y0030076D01*
X0087665Y0028478D02*
X0122025Y0028478D01*
X0122895Y0026879D02*
X0089263Y0026879D01*
X0090862Y0025281D02*
X0126331Y0025281D01*
X0126331Y0023682D02*
X0092460Y0023682D01*
X0094059Y0022084D02*
X0126331Y0022084D01*
X0126935Y0020485D02*
X0095657Y0020485D01*
X0097256Y0018887D02*
X0128533Y0018887D01*
X0131559Y0022084D02*
X0174723Y0022084D01*
X0174477Y0020485D02*
X0165657Y0020485D01*
X0167256Y0018887D02*
X0174901Y0018887D01*
X0176305Y0017288D02*
X0168854Y0017288D01*
X0165829Y0014091D02*
X0102051Y0014091D01*
X0100453Y0015690D02*
X0164230Y0015690D01*
X0163531Y0013900D02*
X0161708Y0013900D01*
X0159131Y0011323D01*
X0159131Y0009500D01*
X0163531Y0009500D01*
X0163531Y0009500D01*
X0163531Y0013900D01*
X0163531Y0012493D02*
X0163531Y0012493D01*
X0163531Y0010894D02*
X0163531Y0010894D01*
X0163531Y0009500D02*
X0163531Y0009500D01*
X0166761Y0012493D02*
X0167427Y0012493D01*
X0167931Y0010894D02*
X0191662Y0010894D01*
X0191521Y0012493D02*
X0191022Y0012493D01*
X0192324Y0009296D02*
X0167931Y0009296D01*
X0167931Y0007697D02*
X0193550Y0007697D01*
X0185381Y0023850D02*
X0183177Y0023850D01*
X0185381Y0023850D02*
X0191031Y0029500D01*
X0191031Y0032000D01*
X0183531Y0039500D01*
X0183531Y0079500D01*
X0163531Y0099500D01*
X0158531Y0099500D01*
X0162205Y0095615D02*
X0164305Y0095615D01*
X0165903Y0094017D02*
X0143659Y0094017D01*
X0145257Y0095615D02*
X0154857Y0095615D01*
X0155135Y0093500D02*
X0153665Y0092891D01*
X0152540Y0091766D01*
X0151931Y0090296D01*
X0151931Y0088704D01*
X0152540Y0087234D01*
X0153665Y0086109D01*
X0155135Y0085500D01*
X0161927Y0085500D01*
X0163397Y0086109D01*
X0163604Y0086316D01*
X0168831Y0081089D01*
X0168831Y0079299D01*
X0168334Y0078802D01*
X0167850Y0077633D01*
X0167850Y0076367D01*
X0168334Y0075198D01*
X0169229Y0074303D01*
X0170398Y0073819D01*
X0171664Y0073819D01*
X0172833Y0074303D01*
X0173728Y0075198D01*
X0174212Y0076367D01*
X0174212Y0077633D01*
X0173728Y0078802D01*
X0173231Y0079299D01*
X0173231Y0082911D01*
X0171942Y0084200D01*
X0165731Y0090411D01*
X0165731Y0090411D01*
X0164625Y0091517D01*
X0164522Y0091766D01*
X0163397Y0092891D01*
X0161927Y0093500D01*
X0155135Y0093500D01*
X0153192Y0092418D02*
X0142060Y0092418D01*
X0140462Y0090820D02*
X0152148Y0090820D01*
X0151931Y0089221D02*
X0138863Y0089221D01*
X0137265Y0087623D02*
X0152379Y0087623D01*
X0153870Y0086024D02*
X0133192Y0086024D01*
X0131927Y0083500D02*
X0133397Y0082891D01*
X0134522Y0081766D01*
X0135131Y0080296D01*
X0135131Y0078704D01*
X0134522Y0077234D01*
X0133397Y0076109D01*
X0131927Y0075500D01*
X0125135Y0075500D01*
X0123665Y0076109D01*
X0122540Y0077234D01*
X0121931Y0078704D01*
X0121931Y0080296D01*
X0122540Y0081766D01*
X0123665Y0082891D01*
X0125135Y0083500D01*
X0131927Y0083500D01*
X0133461Y0082827D02*
X0153601Y0082827D01*
X0153665Y0082891D02*
X0152540Y0081766D01*
X0151931Y0080296D01*
X0151931Y0078704D01*
X0152540Y0077234D01*
X0153665Y0076109D01*
X0155135Y0075500D01*
X0161927Y0075500D01*
X0163397Y0076109D01*
X0164522Y0077234D01*
X0165131Y0078704D01*
X0165131Y0080296D01*
X0164522Y0081766D01*
X0163397Y0082891D01*
X0161927Y0083500D01*
X0155135Y0083500D01*
X0153665Y0082891D01*
X0152317Y0081229D02*
X0134745Y0081229D01*
X0135131Y0079630D02*
X0151931Y0079630D01*
X0152210Y0078032D02*
X0134852Y0078032D01*
X0133721Y0076433D02*
X0153341Y0076433D01*
X0154242Y0073578D02*
X0153625Y0073263D01*
X0153065Y0072856D01*
X0152575Y0072366D01*
X0152168Y0071806D01*
X0151853Y0071189D01*
X0151639Y0070530D01*
X0151531Y0069846D01*
X0151531Y0069500D01*
X0158531Y0069500D01*
X0165531Y0069500D01*
X0165531Y0069846D01*
X0165423Y0070530D01*
X0165209Y0071189D01*
X0164894Y0071806D01*
X0164487Y0072366D01*
X0163997Y0072856D01*
X0163437Y0073263D01*
X0162820Y0073578D01*
X0162161Y0073792D01*
X0161477Y0073900D01*
X0158531Y0073900D01*
X0158531Y0069500D01*
X0158531Y0069500D01*
X0165531Y0069500D01*
X0165531Y0069154D01*
X0165423Y0068470D01*
X0165209Y0067811D01*
X0164894Y0067194D01*
X0164487Y0066634D01*
X0163997Y0066144D01*
X0163437Y0065737D01*
X0162820Y0065422D01*
X0162161Y0065208D01*
X0161477Y0065100D01*
X0158531Y0065100D01*
X0158531Y0069500D01*
X0158531Y0069500D01*
X0158531Y0069500D01*
X0158531Y0073900D01*
X0155585Y0073900D01*
X0154901Y0073792D01*
X0154242Y0073578D01*
X0153587Y0073236D02*
X0132564Y0073236D01*
X0131927Y0073500D02*
X0133397Y0072891D01*
X0134522Y0071766D01*
X0135131Y0070296D01*
X0135131Y0068704D01*
X0134522Y0067234D01*
X0133397Y0066109D01*
X0131927Y0065500D01*
X0125135Y0065500D01*
X0123665Y0066109D01*
X0122540Y0067234D01*
X0121931Y0068704D01*
X0121931Y0070296D01*
X0122540Y0071766D01*
X0123665Y0072891D01*
X0125135Y0073500D01*
X0131927Y0073500D01*
X0134575Y0071637D02*
X0152082Y0071637D01*
X0151561Y0070039D02*
X0135131Y0070039D01*
X0135022Y0068440D02*
X0151649Y0068440D01*
X0151639Y0068470D02*
X0151853Y0067811D01*
X0152168Y0067194D01*
X0152575Y0066634D01*
X0153065Y0066144D01*
X0153625Y0065737D01*
X0154242Y0065422D01*
X0154901Y0065208D01*
X0155585Y0065100D01*
X0158531Y0065100D01*
X0158531Y0069500D01*
X0158531Y0069500D01*
X0151531Y0069500D01*
X0151531Y0069154D01*
X0151639Y0068470D01*
X0152423Y0066842D02*
X0134130Y0066842D01*
X0131927Y0063500D02*
X0133397Y0062891D01*
X0134522Y0061766D01*
X0135131Y0060296D01*
X0135131Y0058704D01*
X0134522Y0057234D01*
X0133397Y0056109D01*
X0131927Y0055500D01*
X0125135Y0055500D01*
X0123665Y0056109D01*
X0122540Y0057234D01*
X0121931Y0058704D01*
X0121931Y0060296D01*
X0122540Y0061766D01*
X0123665Y0062891D01*
X0125135Y0063500D01*
X0131927Y0063500D01*
X0134241Y0062046D02*
X0152820Y0062046D01*
X0152540Y0061766D02*
X0151931Y0060296D01*
X0151931Y0058704D01*
X0152540Y0057234D01*
X0153665Y0056109D01*
X0155135Y0055500D01*
X0161927Y0055500D01*
X0163397Y0056109D01*
X0164522Y0057234D01*
X0165131Y0058704D01*
X0165131Y0060296D01*
X0164522Y0061766D01*
X0163397Y0062891D01*
X0161927Y0063500D01*
X0155135Y0063500D01*
X0153665Y0062891D01*
X0152540Y0061766D01*
X0151994Y0060448D02*
X0135068Y0060448D01*
X0135131Y0058849D02*
X0151931Y0058849D01*
X0152533Y0057251D02*
X0134529Y0057251D01*
X0132294Y0055652D02*
X0154767Y0055652D01*
X0155135Y0053500D02*
X0153665Y0052891D01*
X0152540Y0051766D01*
X0151931Y0050296D01*
X0151931Y0048704D01*
X0152540Y0047234D01*
X0153665Y0046109D01*
X0155135Y0045500D01*
X0161927Y0045500D01*
X0163397Y0046109D01*
X0164522Y0047234D01*
X0165131Y0048704D01*
X0165131Y0050296D01*
X0164522Y0051766D01*
X0163397Y0052891D01*
X0161927Y0053500D01*
X0155135Y0053500D01*
X0153229Y0052455D02*
X0133832Y0052455D01*
X0133397Y0052891D02*
X0134522Y0051766D01*
X0135131Y0050296D01*
X0135131Y0048704D01*
X0134522Y0047234D01*
X0133397Y0046109D01*
X0131927Y0045500D01*
X0125135Y0045500D01*
X0123665Y0046109D01*
X0122540Y0047234D01*
X0121931Y0048704D01*
X0121931Y0050296D01*
X0122540Y0051766D01*
X0123665Y0052891D01*
X0125135Y0053500D01*
X0131927Y0053500D01*
X0133397Y0052891D01*
X0134898Y0050857D02*
X0152163Y0050857D01*
X0151931Y0049258D02*
X0135131Y0049258D01*
X0134698Y0047660D02*
X0152364Y0047660D01*
X0153780Y0046061D02*
X0133282Y0046061D01*
X0131927Y0043500D02*
X0133397Y0042891D01*
X0134522Y0041766D01*
X0135131Y0040296D01*
X0135131Y0038704D01*
X0134522Y0037234D01*
X0133397Y0036109D01*
X0131927Y0035500D01*
X0125135Y0035500D01*
X0123665Y0036109D01*
X0122540Y0037234D01*
X0121931Y0038704D01*
X0121931Y0040296D01*
X0122540Y0041766D01*
X0123665Y0042891D01*
X0125135Y0043500D01*
X0131927Y0043500D01*
X0133423Y0042864D02*
X0153638Y0042864D01*
X0153665Y0042891D02*
X0152540Y0041766D01*
X0151931Y0040296D01*
X0151931Y0038704D01*
X0152540Y0037234D01*
X0153665Y0036109D01*
X0155135Y0035500D01*
X0161927Y0035500D01*
X0163397Y0036109D01*
X0164522Y0037234D01*
X0165131Y0038704D01*
X0165131Y0040296D01*
X0164522Y0041766D01*
X0163397Y0042891D01*
X0161927Y0043500D01*
X0155135Y0043500D01*
X0153665Y0042891D01*
X0152333Y0041266D02*
X0134729Y0041266D01*
X0135131Y0039667D02*
X0151931Y0039667D01*
X0152194Y0038069D02*
X0134868Y0038069D01*
X0133758Y0036470D02*
X0153304Y0036470D01*
X0154588Y0033273D02*
X0132474Y0033273D01*
X0134560Y0031675D02*
X0152502Y0031675D01*
X0152540Y0031766D02*
X0151931Y0030296D01*
X0151931Y0028704D01*
X0152540Y0027234D01*
X0153665Y0026109D01*
X0155135Y0025500D01*
X0161927Y0025500D01*
X0163397Y0026109D01*
X0164522Y0027234D01*
X0165131Y0028704D01*
X0165131Y0030296D01*
X0164522Y0031766D01*
X0163397Y0032891D01*
X0161927Y0033500D01*
X0155135Y0033500D01*
X0153665Y0032891D01*
X0152540Y0031766D01*
X0151931Y0030076D02*
X0135131Y0030076D01*
X0135037Y0028478D02*
X0152025Y0028478D01*
X0152895Y0026879D02*
X0134167Y0026879D01*
X0130731Y0025281D02*
X0172139Y0025281D01*
X0173531Y0027000D02*
X0178452Y0027000D01*
X0175812Y0023682D02*
X0130731Y0023682D01*
X0126195Y0012493D02*
X0160301Y0012493D01*
X0159131Y0010894D02*
X0127531Y0010894D01*
X0127531Y0009296D02*
X0159131Y0009296D01*
X0159131Y0007697D02*
X0127385Y0007697D01*
X0120867Y0012493D02*
X0116195Y0012493D01*
X0117531Y0010894D02*
X0119531Y0010894D01*
X0119531Y0009296D02*
X0117531Y0009296D01*
X0117385Y0007697D02*
X0119677Y0007697D01*
X0110867Y0012493D02*
X0106195Y0012493D01*
X0107531Y0010894D02*
X0109531Y0010894D01*
X0109531Y0009296D02*
X0107531Y0009296D01*
X0107385Y0007697D02*
X0109677Y0007697D01*
X0103531Y0009500D02*
X0078531Y0034500D01*
X0078531Y0054500D01*
X0058531Y0074500D01*
X0063531Y0079500D01*
X0096031Y0079500D01*
X0106031Y0089500D01*
X0128531Y0089500D01*
X0136031Y0089500D01*
X0156031Y0109500D01*
X0158531Y0109500D01*
X0163531Y0109500D01*
X0168531Y0114500D01*
X0168531Y0152000D01*
X0161031Y0159500D01*
X0158531Y0159500D01*
X0158531Y0164500D01*
X0153531Y0169500D01*
X0101031Y0169500D01*
X0091031Y0159500D01*
X0086031Y0159500D01*
X0088546Y0156359D02*
X0123415Y0156359D01*
X0123665Y0156109D02*
X0125135Y0155500D01*
X0131927Y0155500D01*
X0133397Y0156109D01*
X0134522Y0157234D01*
X0135131Y0158704D01*
X0135131Y0160296D01*
X0134522Y0161766D01*
X0133397Y0162891D01*
X0131927Y0163500D01*
X0125135Y0163500D01*
X0123665Y0162891D01*
X0122540Y0161766D01*
X0121931Y0160296D01*
X0121931Y0158704D01*
X0122540Y0157234D01*
X0123665Y0156109D01*
X0122240Y0157957D02*
X0092599Y0157957D01*
X0094198Y0159556D02*
X0121931Y0159556D01*
X0122287Y0161154D02*
X0095796Y0161154D01*
X0097395Y0162753D02*
X0123527Y0162753D01*
X0124318Y0153162D02*
X0020331Y0153162D01*
X0020331Y0154760D02*
X0162660Y0154760D01*
X0162161Y0153792D02*
X0162820Y0153578D01*
X0163437Y0153263D01*
X0163997Y0152856D01*
X0164487Y0152366D01*
X0164894Y0151806D01*
X0165209Y0151189D01*
X0165423Y0150530D01*
X0165531Y0149846D01*
X0165531Y0149500D01*
X0158531Y0149500D01*
X0158531Y0149500D01*
X0165531Y0149500D01*
X0165531Y0149154D01*
X0165423Y0148470D01*
X0165209Y0147811D01*
X0164894Y0147194D01*
X0164487Y0146634D01*
X0163997Y0146144D01*
X0163437Y0145737D01*
X0162820Y0145422D01*
X0162161Y0145208D01*
X0161477Y0145100D01*
X0158531Y0145100D01*
X0158531Y0149500D01*
X0158531Y0149500D01*
X0158531Y0153900D01*
X0161477Y0153900D01*
X0162161Y0153792D01*
X0163577Y0153162D02*
X0164258Y0153162D01*
X0165018Y0151563D02*
X0165857Y0151563D01*
X0165512Y0149965D02*
X0166331Y0149965D01*
X0166331Y0148366D02*
X0165389Y0148366D01*
X0164584Y0146768D02*
X0166331Y0146768D01*
X0166331Y0145169D02*
X0161913Y0145169D01*
X0161927Y0143500D02*
X0163397Y0142891D01*
X0164522Y0141766D01*
X0165131Y0140296D01*
X0165131Y0138704D01*
X0164522Y0137234D01*
X0163397Y0136109D01*
X0161927Y0135500D01*
X0155135Y0135500D01*
X0153665Y0136109D01*
X0152540Y0137234D01*
X0151931Y0138704D01*
X0151931Y0140296D01*
X0152540Y0141766D01*
X0153665Y0142891D01*
X0155135Y0143500D01*
X0161927Y0143500D01*
X0164316Y0141972D02*
X0166331Y0141972D01*
X0166331Y0143570D02*
X0030713Y0143570D01*
X0029114Y0141972D02*
X0122746Y0141972D01*
X0122598Y0137176D02*
X0041819Y0137176D01*
X0040220Y0135578D02*
X0124947Y0135578D01*
X0125135Y0133500D02*
X0123665Y0132891D01*
X0122540Y0131766D01*
X0121931Y0130296D01*
X0121931Y0128704D01*
X0122540Y0127234D01*
X0123665Y0126109D01*
X0125135Y0125500D01*
X0131927Y0125500D01*
X0133397Y0126109D01*
X0134522Y0127234D01*
X0135131Y0128704D01*
X0135131Y0130296D01*
X0134522Y0131766D01*
X0133397Y0132891D01*
X0131927Y0133500D01*
X0125135Y0133500D01*
X0123155Y0132381D02*
X0106261Y0132381D01*
X0104663Y0133979D02*
X0166331Y0133979D01*
X0166331Y0132381D02*
X0163907Y0132381D01*
X0163397Y0132891D02*
X0161927Y0133500D01*
X0155135Y0133500D01*
X0153665Y0132891D01*
X0152540Y0131766D01*
X0151931Y0130296D01*
X0151931Y0128704D01*
X0152540Y0127234D01*
X0153665Y0126109D01*
X0155135Y0125500D01*
X0161927Y0125500D01*
X0163397Y0126109D01*
X0164522Y0127234D01*
X0165131Y0128704D01*
X0165131Y0130296D01*
X0164522Y0131766D01*
X0163397Y0132891D01*
X0164929Y0130782D02*
X0166331Y0130782D01*
X0166331Y0129184D02*
X0165131Y0129184D01*
X0164667Y0127585D02*
X0166331Y0127585D01*
X0166331Y0125987D02*
X0163102Y0125987D01*
X0161927Y0123500D02*
X0163397Y0122891D01*
X0164522Y0121766D01*
X0165131Y0120296D01*
X0165131Y0118704D01*
X0164522Y0117234D01*
X0163397Y0116109D01*
X0161927Y0115500D01*
X0155135Y0115500D01*
X0153665Y0116109D01*
X0152540Y0117234D01*
X0151931Y0118704D01*
X0151931Y0120296D01*
X0152540Y0121766D01*
X0153665Y0122891D01*
X0155135Y0123500D01*
X0161927Y0123500D01*
X0163498Y0122790D02*
X0166331Y0122790D01*
X0166331Y0124388D02*
X0114254Y0124388D01*
X0115852Y0122790D02*
X0123564Y0122790D01*
X0123665Y0122891D02*
X0122540Y0121766D01*
X0121931Y0120296D01*
X0121931Y0118704D01*
X0122540Y0117234D01*
X0123665Y0116109D01*
X0125135Y0115500D01*
X0131927Y0115500D01*
X0133397Y0116109D01*
X0134522Y0117234D01*
X0135131Y0118704D01*
X0135131Y0120296D01*
X0134522Y0121766D01*
X0133397Y0122891D01*
X0131927Y0123500D01*
X0125135Y0123500D01*
X0123665Y0122891D01*
X0122302Y0121191D02*
X0117451Y0121191D01*
X0119049Y0119593D02*
X0121931Y0119593D01*
X0122225Y0117994D02*
X0120648Y0117994D01*
X0122246Y0116396D02*
X0123378Y0116396D01*
X0123845Y0114797D02*
X0165717Y0114797D01*
X0166331Y0116396D02*
X0163684Y0116396D01*
X0164837Y0117994D02*
X0166331Y0117994D01*
X0166331Y0119593D02*
X0165131Y0119593D01*
X0164760Y0121191D02*
X0166331Y0121191D01*
X0170731Y0121191D02*
X0206211Y0121191D01*
X0205931Y0119593D02*
X0170731Y0119593D01*
X0170731Y0117994D02*
X0206134Y0117994D01*
X0206923Y0116396D02*
X0170731Y0116396D01*
X0170731Y0114797D02*
X0209057Y0114797D01*
X0207517Y0113199D02*
X0170341Y0113199D01*
X0168742Y0111600D02*
X0206381Y0111600D01*
X0205931Y0110002D02*
X0167144Y0110002D01*
X0165545Y0108403D02*
X0205965Y0108403D01*
X0206627Y0106805D02*
X0164093Y0106805D01*
X0164279Y0102009D02*
X0174645Y0102009D01*
X0174674Y0102077D02*
X0173981Y0100405D01*
X0173981Y0098595D01*
X0174674Y0096923D01*
X0175954Y0095643D01*
X0177626Y0094950D01*
X0179436Y0094950D01*
X0181108Y0095643D01*
X0182388Y0096923D01*
X0183081Y0098595D01*
X0183081Y0100405D01*
X0182388Y0102077D01*
X0181108Y0103357D01*
X0179436Y0104050D01*
X0177626Y0104050D01*
X0175954Y0103357D01*
X0174674Y0102077D01*
X0173983Y0100411D02*
X0165732Y0100411D01*
X0167330Y0098812D02*
X0173981Y0098812D01*
X0174553Y0097214D02*
X0168929Y0097214D01*
X0170527Y0095615D02*
X0176020Y0095615D01*
X0181042Y0095615D02*
X0185415Y0095615D01*
X0183817Y0097214D02*
X0182509Y0097214D01*
X0183081Y0098812D02*
X0183581Y0098812D01*
X0183581Y0100411D02*
X0183079Y0100411D01*
X0182416Y0102009D02*
X0184040Y0102009D01*
X0185638Y0103608D02*
X0180504Y0103608D01*
X0176558Y0103608D02*
X0153250Y0103608D01*
X0152783Y0102009D02*
X0151651Y0102009D01*
X0151979Y0100411D02*
X0150053Y0100411D01*
X0148454Y0098812D02*
X0151931Y0098812D01*
X0152560Y0097214D02*
X0146856Y0097214D01*
X0143830Y0100411D02*
X0135083Y0100411D01*
X0135131Y0098812D02*
X0142232Y0098812D01*
X0140633Y0097214D02*
X0134501Y0097214D01*
X0132205Y0095615D02*
X0139035Y0095615D01*
X0137436Y0094017D02*
X0103631Y0094017D01*
X0103589Y0095615D02*
X0124857Y0095615D01*
X0122560Y0097214D02*
X0102927Y0097214D01*
X0101431Y0098812D02*
X0121107Y0098812D01*
X0119509Y0100411D02*
X0055431Y0100411D01*
X0055431Y0099500D02*
X0055431Y0101323D01*
X0052853Y0103900D01*
X0051031Y0103900D01*
X0051031Y0099500D01*
X0055431Y0099500D01*
X0051031Y0099500D01*
X0051031Y0099500D01*
X0051031Y0099500D01*
X0051031Y0095100D01*
X0052853Y0095100D01*
X0055431Y0097677D01*
X0055431Y0099500D01*
X0055431Y0098812D02*
X0075109Y0098812D01*
X0073741Y0097214D02*
X0054967Y0097214D01*
X0053369Y0095615D02*
X0073139Y0095615D01*
X0073039Y0094017D02*
X0067126Y0094017D01*
X0068724Y0092418D02*
X0073424Y0092418D01*
X0074433Y0090820D02*
X0070323Y0090820D01*
X0071921Y0089221D02*
X0076979Y0089221D01*
X0078331Y0089221D02*
X0078731Y0089221D01*
X0080082Y0089221D02*
X0090141Y0089221D01*
X0088542Y0087623D02*
X0073520Y0087623D01*
X0073531Y0084500D02*
X0088531Y0084500D01*
X0098531Y0094500D01*
X0102063Y0090820D02*
X0104239Y0090820D01*
X0103189Y0092418D02*
X0123192Y0092418D01*
X0123531Y0099500D02*
X0128531Y0099500D01*
X0123531Y0099500D02*
X0118531Y0104500D01*
X0078531Y0104500D01*
X0068531Y0114500D01*
X0043531Y0114500D01*
X0038531Y0109500D01*
X0023531Y0109500D01*
X0027045Y0113199D02*
X0039118Y0113199D01*
X0040717Y0114797D02*
X0025504Y0114797D01*
X0027639Y0116396D02*
X0042315Y0116396D01*
X0043742Y0111600D02*
X0047474Y0111600D01*
X0047031Y0110002D02*
X0042144Y0110002D01*
X0041874Y0108500D02*
X0039531Y0106157D01*
X0039531Y0102843D01*
X0041874Y0100500D01*
X0045188Y0100500D01*
X0047531Y0102843D01*
X0047531Y0106157D01*
X0045188Y0108500D01*
X0041874Y0108500D01*
X0041777Y0108403D02*
X0040545Y0108403D01*
X0040179Y0106805D02*
X0027935Y0106805D01*
X0026450Y0105206D02*
X0039531Y0105206D01*
X0039531Y0103608D02*
X0026636Y0103608D01*
X0028012Y0102009D02*
X0040365Y0102009D01*
X0037330Y0098812D02*
X0046631Y0098812D01*
X0046631Y0099500D02*
X0046631Y0097677D01*
X0049208Y0095100D01*
X0051031Y0095100D01*
X0051031Y0099500D01*
X0051031Y0099500D01*
X0051031Y0103900D01*
X0049208Y0103900D01*
X0046631Y0101323D01*
X0046631Y0099500D01*
X0051031Y0099500D01*
X0051031Y0099500D01*
X0046631Y0099500D01*
X0046631Y0100411D02*
X0035732Y0100411D01*
X0033531Y0099500D02*
X0041031Y0092000D01*
X0066031Y0092000D01*
X0073531Y0084500D01*
X0072093Y0082827D02*
X0057931Y0082827D01*
X0057931Y0082677D02*
X0057931Y0084500D01*
X0057931Y0086323D01*
X0055353Y0088900D01*
X0053531Y0088900D01*
X0053531Y0084500D01*
X0057931Y0084500D01*
X0053531Y0084500D01*
X0053531Y0084500D01*
X0053531Y0084500D01*
X0053531Y0080100D01*
X0055353Y0080100D01*
X0057931Y0082677D01*
X0057931Y0084426D02*
X0070494Y0084426D01*
X0068896Y0086024D02*
X0057931Y0086024D01*
X0056631Y0087623D02*
X0067297Y0087623D01*
X0065699Y0089221D02*
X0028631Y0089221D01*
X0028505Y0090820D02*
X0039100Y0090820D01*
X0037502Y0092418D02*
X0027825Y0092418D01*
X0025954Y0094017D02*
X0035903Y0094017D01*
X0034305Y0095615D02*
X0026859Y0095615D01*
X0028104Y0097214D02*
X0032706Y0097214D01*
X0033531Y0099500D02*
X0023531Y0099500D01*
X0028273Y0087623D02*
X0035257Y0087623D01*
X0036805Y0087623D02*
X0040997Y0087623D01*
X0041874Y0088500D02*
X0039531Y0086157D01*
X0039531Y0082843D01*
X0041874Y0080500D01*
X0045188Y0080500D01*
X0047531Y0082843D01*
X0047531Y0086157D01*
X0045188Y0088500D01*
X0041874Y0088500D01*
X0039531Y0086024D02*
X0038843Y0086024D01*
X0039212Y0084426D02*
X0039531Y0084426D01*
X0039547Y0082827D02*
X0038781Y0082827D01*
X0041146Y0081229D02*
X0035871Y0081229D01*
X0034272Y0079630D02*
X0060550Y0079630D01*
X0062148Y0081229D02*
X0056482Y0081229D01*
X0056406Y0078032D02*
X0033231Y0078032D01*
X0033231Y0076433D02*
X0033465Y0076433D01*
X0036031Y0074500D02*
X0048531Y0074500D01*
X0051451Y0073236D02*
X0054531Y0073236D01*
X0054531Y0074834D02*
X0051712Y0074834D01*
X0051097Y0076433D02*
X0054807Y0076433D01*
X0053531Y0080100D02*
X0051708Y0080100D01*
X0049131Y0082677D01*
X0049131Y0084500D01*
X0053531Y0084500D01*
X0053531Y0084500D01*
X0053531Y0088900D01*
X0051708Y0088900D01*
X0049131Y0086323D01*
X0049131Y0084500D01*
X0053531Y0084500D01*
X0053531Y0080100D01*
X0053531Y0081229D02*
X0053531Y0081229D01*
X0053531Y0082827D02*
X0053531Y0082827D01*
X0053531Y0084426D02*
X0053531Y0084426D01*
X0053531Y0084500D02*
X0053531Y0084500D01*
X0053531Y0086024D02*
X0053531Y0086024D01*
X0053531Y0087623D02*
X0053531Y0087623D01*
X0050431Y0087623D02*
X0046065Y0087623D01*
X0047531Y0086024D02*
X0049131Y0086024D01*
X0049131Y0084426D02*
X0047531Y0084426D01*
X0047515Y0082827D02*
X0049131Y0082827D01*
X0050580Y0081229D02*
X0045916Y0081229D01*
X0047129Y0071637D02*
X0037433Y0071637D01*
X0034629Y0071637D02*
X0033392Y0071637D01*
X0034212Y0070039D02*
X0059881Y0070039D01*
X0061479Y0068440D02*
X0034035Y0068440D01*
X0032872Y0066842D02*
X0063078Y0066842D01*
X0064676Y0065243D02*
X0027029Y0065243D01*
X0028349Y0066842D02*
X0029190Y0066842D01*
X0031031Y0069500D02*
X0031031Y0079500D01*
X0036031Y0084500D01*
X0032845Y0084426D02*
X0024966Y0084426D01*
X0027267Y0086024D02*
X0033219Y0086024D01*
X0031247Y0082827D02*
X0027416Y0082827D01*
X0028335Y0081229D02*
X0029648Y0081229D01*
X0028831Y0079630D02*
X0028631Y0079630D01*
X0028443Y0078032D02*
X0028831Y0078032D01*
X0028831Y0076433D02*
X0027676Y0076433D01*
X0028831Y0074834D02*
X0025594Y0074834D01*
X0027573Y0073236D02*
X0028831Y0073236D01*
X0028670Y0071637D02*
X0028615Y0071637D01*
X0023731Y0068440D02*
X0023331Y0068440D01*
X0023331Y0066842D02*
X0023731Y0066842D01*
X0023731Y0065243D02*
X0023331Y0065243D01*
X0020331Y0063645D02*
X0066275Y0063645D01*
X0067873Y0062046D02*
X0061641Y0062046D01*
X0062531Y0061157D02*
X0060188Y0063500D01*
X0056874Y0063500D01*
X0054531Y0061157D01*
X0054531Y0057843D01*
X0056874Y0055500D01*
X0060188Y0055500D01*
X0062531Y0057843D01*
X0062531Y0061157D01*
X0062531Y0060448D02*
X0069472Y0060448D01*
X0071070Y0058849D02*
X0062531Y0058849D01*
X0061939Y0057251D02*
X0072669Y0057251D01*
X0074267Y0055652D02*
X0060340Y0055652D01*
X0056722Y0055652D02*
X0020331Y0055652D01*
X0020331Y0054054D02*
X0075866Y0054054D01*
X0076331Y0052455D02*
X0020331Y0052455D01*
X0020331Y0050857D02*
X0076331Y0050857D01*
X0076331Y0049258D02*
X0020331Y0049258D01*
X0020331Y0047660D02*
X0076331Y0047660D01*
X0076331Y0046061D02*
X0020331Y0046061D01*
X0020331Y0044463D02*
X0076331Y0044463D01*
X0076331Y0042864D02*
X0071389Y0042864D01*
X0070353Y0043900D02*
X0068531Y0043900D01*
X0068531Y0039500D01*
X0072931Y0039500D01*
X0072931Y0041323D01*
X0070353Y0043900D01*
X0068531Y0043900D02*
X0066708Y0043900D01*
X0064131Y0041323D01*
X0064131Y0039500D01*
X0064131Y0037677D01*
X0066708Y0035100D01*
X0068531Y0035100D01*
X0070353Y0035100D01*
X0072931Y0037677D01*
X0072931Y0039500D01*
X0068531Y0039500D01*
X0068531Y0039500D01*
X0068531Y0039500D01*
X0068531Y0035100D01*
X0068531Y0039500D01*
X0068531Y0039500D01*
X0068531Y0043900D01*
X0068531Y0042864D02*
X0068531Y0042864D01*
X0068531Y0041266D02*
X0068531Y0041266D01*
X0068531Y0039667D02*
X0068531Y0039667D01*
X0068531Y0039500D02*
X0068531Y0039500D01*
X0064131Y0039500D01*
X0068531Y0039500D01*
X0068531Y0038069D02*
X0068531Y0038069D01*
X0068531Y0036470D02*
X0068531Y0036470D01*
X0071724Y0036470D02*
X0076331Y0036470D01*
X0076331Y0034872D02*
X0020331Y0034872D01*
X0020331Y0036470D02*
X0055904Y0036470D01*
X0056874Y0035500D02*
X0054531Y0037843D01*
X0054531Y0041157D01*
X0056874Y0043500D01*
X0060188Y0043500D01*
X0062531Y0041157D01*
X0062531Y0037843D01*
X0060188Y0035500D01*
X0056874Y0035500D01*
X0054531Y0038069D02*
X0020331Y0038069D01*
X0020331Y0039667D02*
X0054531Y0039667D01*
X0054640Y0041266D02*
X0020331Y0041266D01*
X0020331Y0042864D02*
X0056238Y0042864D01*
X0060823Y0042864D02*
X0065673Y0042864D01*
X0064131Y0041266D02*
X0062422Y0041266D01*
X0062531Y0039667D02*
X0064131Y0039667D01*
X0064131Y0038069D02*
X0062531Y0038069D01*
X0061158Y0036470D02*
X0065338Y0036470D01*
X0072931Y0038069D02*
X0076331Y0038069D01*
X0076331Y0039667D02*
X0072931Y0039667D01*
X0072931Y0041266D02*
X0076331Y0041266D01*
X0080731Y0041266D02*
X0084131Y0041266D01*
X0084131Y0041323D02*
X0084131Y0039500D01*
X0084131Y0037677D01*
X0086708Y0035100D01*
X0088531Y0035100D01*
X0090353Y0035100D01*
X0092931Y0037677D01*
X0092931Y0039500D01*
X0092931Y0041323D01*
X0090353Y0043900D01*
X0088531Y0043900D01*
X0088531Y0039500D01*
X0092931Y0039500D01*
X0088531Y0039500D01*
X0088531Y0039500D01*
X0088531Y0039500D01*
X0088531Y0035100D01*
X0088531Y0039500D01*
X0088531Y0039500D01*
X0088531Y0043900D01*
X0086708Y0043900D01*
X0084131Y0041323D01*
X0084131Y0039667D02*
X0080731Y0039667D01*
X0080731Y0038069D02*
X0084131Y0038069D01*
X0084131Y0039500D02*
X0088531Y0039500D01*
X0088531Y0039500D01*
X0084131Y0039500D01*
X0085338Y0036470D02*
X0080731Y0036470D01*
X0081270Y0034872D02*
X0168831Y0034872D01*
X0168831Y0036470D02*
X0163758Y0036470D01*
X0164868Y0038069D02*
X0168831Y0038069D01*
X0168831Y0039667D02*
X0165131Y0039667D01*
X0164729Y0041266D02*
X0168831Y0041266D01*
X0168831Y0042864D02*
X0163423Y0042864D01*
X0163282Y0046061D02*
X0168831Y0046061D01*
X0168831Y0044463D02*
X0080731Y0044463D01*
X0080731Y0046061D02*
X0123780Y0046061D01*
X0122364Y0047660D02*
X0080731Y0047660D01*
X0080731Y0049258D02*
X0121931Y0049258D01*
X0122163Y0050857D02*
X0080731Y0050857D01*
X0080731Y0052455D02*
X0123229Y0052455D01*
X0124767Y0055652D02*
X0100340Y0055652D01*
X0100188Y0055500D02*
X0102531Y0057843D01*
X0102531Y0061157D01*
X0100188Y0063500D01*
X0096874Y0063500D01*
X0094531Y0061157D01*
X0094531Y0057843D01*
X0096874Y0055500D01*
X0100188Y0055500D01*
X0101939Y0057251D02*
X0122533Y0057251D01*
X0121931Y0058849D02*
X0102531Y0058849D01*
X0102531Y0060448D02*
X0121994Y0060448D01*
X0122820Y0062046D02*
X0101641Y0062046D01*
X0095420Y0062046D02*
X0074096Y0062046D01*
X0075694Y0060448D02*
X0094531Y0060448D01*
X0094531Y0058849D02*
X0077293Y0058849D01*
X0078891Y0057251D02*
X0095123Y0057251D01*
X0096722Y0055652D02*
X0080490Y0055652D01*
X0080731Y0054054D02*
X0168831Y0054054D01*
X0168831Y0055652D02*
X0162294Y0055652D01*
X0164529Y0057251D02*
X0168831Y0057251D01*
X0168831Y0058849D02*
X0165131Y0058849D01*
X0165068Y0060448D02*
X0168831Y0060448D01*
X0168831Y0062046D02*
X0164241Y0062046D01*
X0162269Y0065243D02*
X0168315Y0065243D01*
X0167850Y0066842D02*
X0164638Y0066842D01*
X0165413Y0068440D02*
X0168184Y0068440D01*
X0170055Y0070039D02*
X0165500Y0070039D01*
X0164980Y0071637D02*
X0181331Y0071637D01*
X0181331Y0070039D02*
X0172007Y0070039D01*
X0173877Y0068440D02*
X0181331Y0068440D01*
X0181331Y0066842D02*
X0174212Y0066842D01*
X0173747Y0065243D02*
X0181331Y0065243D01*
X0181331Y0063645D02*
X0173231Y0063645D01*
X0173231Y0062046D02*
X0181331Y0062046D01*
X0181331Y0060448D02*
X0173231Y0060448D01*
X0173231Y0058849D02*
X0181331Y0058849D01*
X0181331Y0057251D02*
X0173231Y0057251D01*
X0173231Y0055652D02*
X0181331Y0055652D01*
X0181331Y0054054D02*
X0173231Y0054054D01*
X0173231Y0052455D02*
X0181331Y0052455D01*
X0181331Y0050857D02*
X0173231Y0050857D01*
X0173231Y0049258D02*
X0181331Y0049258D01*
X0181331Y0047660D02*
X0173231Y0047660D01*
X0173231Y0046061D02*
X0181331Y0046061D01*
X0181331Y0044463D02*
X0173231Y0044463D01*
X0173231Y0042864D02*
X0181331Y0042864D01*
X0181331Y0041266D02*
X0173231Y0041266D01*
X0173231Y0039667D02*
X0181331Y0039667D01*
X0181851Y0038069D02*
X0173231Y0038069D01*
X0173231Y0036470D02*
X0175436Y0036470D01*
X0174363Y0034872D02*
X0173231Y0034872D01*
X0173231Y0033273D02*
X0174077Y0033273D01*
X0174077Y0033299D02*
X0178452Y0033299D01*
X0178452Y0033299D01*
X0174077Y0033299D01*
X0174380Y0031675D02*
X0173231Y0031675D01*
X0173566Y0030076D02*
X0175488Y0030076D01*
X0178452Y0033299D02*
X0178452Y0037674D01*
X0178452Y0033299D01*
X0178452Y0033299D01*
X0178452Y0034872D02*
X0178452Y0034872D01*
X0178452Y0036470D02*
X0178452Y0036470D01*
X0181468Y0036470D02*
X0183449Y0036470D01*
X0182541Y0034872D02*
X0185048Y0034872D01*
X0185674Y0033273D02*
X0186646Y0033273D01*
X0186847Y0031675D02*
X0188245Y0031675D01*
X0188496Y0030076D02*
X0187151Y0030076D01*
X0186897Y0028478D02*
X0186786Y0028478D01*
X0173531Y0027000D02*
X0171031Y0029500D01*
X0171031Y0067000D01*
X0168831Y0063645D02*
X0072497Y0063645D01*
X0070899Y0065243D02*
X0154793Y0065243D01*
X0158531Y0065243D02*
X0158531Y0065243D01*
X0158531Y0066842D02*
X0158531Y0066842D01*
X0158531Y0068440D02*
X0158531Y0068440D01*
X0158531Y0070039D02*
X0158531Y0070039D01*
X0158531Y0071637D02*
X0158531Y0071637D01*
X0158531Y0073236D02*
X0158531Y0073236D01*
X0163474Y0073236D02*
X0181331Y0073236D01*
X0181331Y0074834D02*
X0173364Y0074834D01*
X0174212Y0076433D02*
X0181331Y0076433D01*
X0181331Y0078032D02*
X0174047Y0078032D01*
X0173231Y0079630D02*
X0180290Y0079630D01*
X0178691Y0081229D02*
X0173231Y0081229D01*
X0173231Y0082827D02*
X0177093Y0082827D01*
X0175494Y0084426D02*
X0171717Y0084426D01*
X0171942Y0084200D02*
X0171942Y0084200D01*
X0171031Y0082000D02*
X0171031Y0077000D01*
X0168698Y0074834D02*
X0102531Y0074834D01*
X0102531Y0073236D02*
X0124498Y0073236D01*
X0122487Y0071637D02*
X0101325Y0071637D01*
X0102255Y0076433D02*
X0123341Y0076433D01*
X0122210Y0078032D02*
X0100656Y0078032D01*
X0099272Y0079630D02*
X0121931Y0079630D01*
X0122317Y0081229D02*
X0100871Y0081229D01*
X0102469Y0082827D02*
X0123601Y0082827D01*
X0123870Y0086024D02*
X0105666Y0086024D01*
X0104068Y0084426D02*
X0165494Y0084426D01*
X0163896Y0086024D02*
X0163192Y0086024D01*
X0163461Y0082827D02*
X0167093Y0082827D01*
X0168691Y0081229D02*
X0164745Y0081229D01*
X0165131Y0079630D02*
X0168831Y0079630D01*
X0168015Y0078032D02*
X0164852Y0078032D01*
X0163721Y0076433D02*
X0167850Y0076433D01*
X0171031Y0082000D02*
X0163531Y0089500D01*
X0158531Y0089500D01*
X0163870Y0092418D02*
X0167502Y0092418D01*
X0169100Y0090820D02*
X0165323Y0090820D01*
X0166921Y0089221D02*
X0170699Y0089221D01*
X0172297Y0087623D02*
X0168520Y0087623D01*
X0170118Y0086024D02*
X0173896Y0086024D01*
X0188531Y0100411D02*
X0188531Y0100411D01*
X0188531Y0102009D02*
X0188531Y0102009D01*
X0188531Y0103608D02*
X0188531Y0103608D01*
X0191424Y0103608D02*
X0207926Y0103608D01*
X0208112Y0105206D02*
X0154848Y0105206D01*
X0151823Y0108403D02*
X0135006Y0108403D01*
X0135131Y0110002D02*
X0151931Y0110002D01*
X0152471Y0111600D02*
X0134591Y0111600D01*
X0132654Y0113199D02*
X0154408Y0113199D01*
X0153378Y0116396D02*
X0133684Y0116396D01*
X0134837Y0117994D02*
X0152225Y0117994D01*
X0151931Y0119593D02*
X0135131Y0119593D01*
X0134760Y0121191D02*
X0152302Y0121191D01*
X0153564Y0122790D02*
X0133498Y0122790D01*
X0133102Y0125987D02*
X0153960Y0125987D01*
X0152394Y0127585D02*
X0134667Y0127585D01*
X0135131Y0129184D02*
X0151931Y0129184D01*
X0152133Y0130782D02*
X0134929Y0130782D01*
X0133907Y0132381D02*
X0153155Y0132381D01*
X0154947Y0135578D02*
X0132115Y0135578D01*
X0134464Y0137176D02*
X0152598Y0137176D01*
X0151931Y0138775D02*
X0135131Y0138775D01*
X0135099Y0140373D02*
X0151963Y0140373D01*
X0152746Y0141972D02*
X0134316Y0141972D01*
X0134055Y0146768D02*
X0152477Y0146768D01*
X0152575Y0146634D02*
X0153065Y0146144D01*
X0153625Y0145737D01*
X0154242Y0145422D01*
X0154901Y0145208D01*
X0155585Y0145100D01*
X0158531Y0145100D01*
X0158531Y0149500D01*
X0158531Y0149500D01*
X0158531Y0153900D01*
X0155585Y0153900D01*
X0154901Y0153792D01*
X0154242Y0153578D01*
X0153625Y0153263D01*
X0153065Y0152856D01*
X0152575Y0152366D01*
X0152168Y0151806D01*
X0151853Y0151189D01*
X0151639Y0150530D01*
X0151531Y0149846D01*
X0151531Y0149500D01*
X0158531Y0149500D01*
X0158531Y0149500D01*
X0151531Y0149500D01*
X0151531Y0149154D01*
X0151639Y0148470D01*
X0151853Y0147811D01*
X0152168Y0147194D01*
X0152575Y0146634D01*
X0151673Y0148366D02*
X0134991Y0148366D01*
X0135131Y0149965D02*
X0151550Y0149965D01*
X0152044Y0151563D02*
X0134606Y0151563D01*
X0132744Y0153162D02*
X0153485Y0153162D01*
X0153415Y0156359D02*
X0133646Y0156359D01*
X0134821Y0157957D02*
X0152240Y0157957D01*
X0151931Y0159556D02*
X0135131Y0159556D01*
X0134775Y0161154D02*
X0152287Y0161154D01*
X0153527Y0162753D02*
X0133535Y0162753D01*
X0128531Y0149500D02*
X0033531Y0149500D01*
X0023531Y0139500D01*
X0028631Y0138775D02*
X0037195Y0138775D01*
X0038793Y0140373D02*
X0028631Y0140373D01*
X0028631Y0137176D02*
X0035596Y0137176D01*
X0033998Y0135578D02*
X0028631Y0135578D01*
X0026044Y0133979D02*
X0032399Y0133979D01*
X0030801Y0132381D02*
X0027858Y0132381D01*
X0031031Y0129500D02*
X0023531Y0129500D01*
X0027230Y0125987D02*
X0039131Y0125987D01*
X0039131Y0125177D02*
X0041708Y0122600D01*
X0043531Y0122600D01*
X0045353Y0122600D01*
X0047931Y0125177D01*
X0047931Y0127000D01*
X0047931Y0128823D01*
X0045353Y0131400D01*
X0043531Y0131400D01*
X0043531Y0127000D01*
X0047931Y0127000D01*
X0043531Y0127000D01*
X0043531Y0127000D01*
X0043531Y0127000D01*
X0043531Y0122600D01*
X0043531Y0127000D01*
X0043531Y0127000D01*
X0043531Y0131400D01*
X0041708Y0131400D01*
X0039131Y0128823D01*
X0039131Y0127000D01*
X0039131Y0125177D01*
X0039920Y0124388D02*
X0025056Y0124388D01*
X0027454Y0122790D02*
X0041519Y0122790D01*
X0043531Y0122790D02*
X0043531Y0122790D01*
X0043531Y0124388D02*
X0043531Y0124388D01*
X0043531Y0125987D02*
X0043531Y0125987D01*
X0043531Y0127000D02*
X0039131Y0127000D01*
X0043531Y0127000D01*
X0043531Y0127000D01*
X0043531Y0127585D02*
X0043531Y0127585D01*
X0043531Y0129184D02*
X0043531Y0129184D01*
X0043531Y0130782D02*
X0043531Y0130782D01*
X0045971Y0130782D02*
X0051656Y0130782D01*
X0051874Y0131000D02*
X0049531Y0128657D01*
X0049531Y0125343D01*
X0051874Y0123000D01*
X0055188Y0123000D01*
X0057531Y0125343D01*
X0057531Y0128657D01*
X0055188Y0131000D01*
X0051874Y0131000D01*
X0050058Y0129184D02*
X0047570Y0129184D01*
X0047931Y0127585D02*
X0049531Y0127585D01*
X0049531Y0125987D02*
X0047931Y0125987D01*
X0047142Y0124388D02*
X0050486Y0124388D01*
X0045543Y0122790D02*
X0061209Y0122790D01*
X0062808Y0124388D02*
X0056576Y0124388D01*
X0057531Y0125987D02*
X0064407Y0125987D01*
X0066005Y0127585D02*
X0057531Y0127585D01*
X0057004Y0129184D02*
X0067604Y0129184D01*
X0069202Y0130782D02*
X0055405Y0130782D01*
X0065834Y0121191D02*
X0111228Y0121191D01*
X0112827Y0119593D02*
X0099563Y0119593D01*
X0097499Y0119593D02*
X0090650Y0119593D01*
X0088731Y0119593D02*
X0088331Y0119593D01*
X0088331Y0117994D02*
X0088731Y0117994D01*
X0088731Y0116396D02*
X0088331Y0116396D01*
X0088331Y0114797D02*
X0088731Y0114797D01*
X0088731Y0113199D02*
X0088331Y0113199D01*
X0088331Y0111600D02*
X0088731Y0111600D01*
X0088731Y0110002D02*
X0088331Y0110002D01*
X0091697Y0110002D02*
X0096064Y0110002D01*
X0094218Y0111600D02*
X0093223Y0111600D01*
X0093698Y0116396D02*
X0093796Y0116396D01*
X0092791Y0117994D02*
X0094813Y0117994D01*
X0086411Y0119593D02*
X0079563Y0119593D01*
X0077499Y0119593D02*
X0064235Y0119593D01*
X0062637Y0117994D02*
X0074813Y0117994D01*
X0073796Y0116396D02*
X0069746Y0116396D01*
X0071345Y0114797D02*
X0073431Y0114797D01*
X0073550Y0113199D02*
X0072943Y0113199D01*
X0069918Y0110002D02*
X0055031Y0110002D01*
X0055031Y0108403D02*
X0071516Y0108403D01*
X0073115Y0106805D02*
X0053992Y0106805D01*
X0053146Y0103608D02*
X0076312Y0103608D01*
X0074713Y0105206D02*
X0047531Y0105206D01*
X0047531Y0103608D02*
X0048916Y0103608D01*
X0051031Y0103608D02*
X0051031Y0103608D01*
X0051031Y0102009D02*
X0051031Y0102009D01*
X0051031Y0100411D02*
X0051031Y0100411D01*
X0051031Y0098812D02*
X0051031Y0098812D01*
X0051031Y0097214D02*
X0051031Y0097214D01*
X0051031Y0095615D02*
X0051031Y0095615D01*
X0048693Y0095615D02*
X0040527Y0095615D01*
X0038929Y0097214D02*
X0047095Y0097214D01*
X0047318Y0102009D02*
X0046697Y0102009D01*
X0046883Y0106805D02*
X0048069Y0106805D01*
X0047031Y0108403D02*
X0045285Y0108403D01*
X0054587Y0111600D02*
X0068319Y0111600D01*
X0061031Y0119500D02*
X0023531Y0119500D01*
X0032228Y0127585D02*
X0039131Y0127585D01*
X0039492Y0129184D02*
X0033826Y0129184D01*
X0035425Y0130782D02*
X0041091Y0130782D01*
X0038622Y0133979D02*
X0072399Y0133979D01*
X0070801Y0132381D02*
X0037023Y0132381D01*
X0031031Y0129500D02*
X0041031Y0139500D01*
X0128531Y0139500D01*
X0123007Y0146768D02*
X0033910Y0146768D01*
X0032311Y0145169D02*
X0155149Y0145169D01*
X0158531Y0145169D02*
X0158531Y0145169D01*
X0158531Y0146768D02*
X0158531Y0146768D01*
X0158531Y0148366D02*
X0158531Y0148366D01*
X0158531Y0149965D02*
X0158531Y0149965D01*
X0158531Y0151563D02*
X0158531Y0151563D01*
X0158531Y0153162D02*
X0158531Y0153162D01*
X0165685Y0157957D02*
X0194531Y0157957D01*
X0194531Y0157843D02*
X0196874Y0155500D01*
X0200188Y0155500D01*
X0202531Y0157843D01*
X0202531Y0161157D01*
X0200188Y0163500D01*
X0196874Y0163500D01*
X0194531Y0161157D01*
X0194531Y0157843D01*
X0194531Y0159556D02*
X0165131Y0159556D01*
X0164775Y0161154D02*
X0194531Y0161154D01*
X0196127Y0162753D02*
X0163535Y0162753D01*
X0160731Y0164351D02*
X0213581Y0164351D01*
X0213581Y0162753D02*
X0211501Y0162753D01*
X0210353Y0163900D02*
X0208531Y0163900D01*
X0208531Y0159500D01*
X0212931Y0159500D01*
X0212931Y0161323D01*
X0210353Y0163900D01*
X0208531Y0163900D02*
X0206708Y0163900D01*
X0204131Y0161323D01*
X0204131Y0159500D01*
X0204131Y0157677D01*
X0206708Y0155100D01*
X0208531Y0155100D01*
X0210353Y0155100D01*
X0212931Y0157677D01*
X0212931Y0159500D01*
X0208531Y0159500D01*
X0208531Y0159500D01*
X0208531Y0159500D01*
X0208531Y0155100D01*
X0208531Y0159500D01*
X0208531Y0159500D01*
X0208531Y0163900D01*
X0208531Y0162753D02*
X0208531Y0162753D01*
X0208531Y0161154D02*
X0208531Y0161154D01*
X0208531Y0159556D02*
X0208531Y0159556D01*
X0208531Y0159500D02*
X0208531Y0159500D01*
X0204131Y0159500D01*
X0208531Y0159500D01*
X0208531Y0157957D02*
X0208531Y0157957D01*
X0208531Y0156359D02*
X0208531Y0156359D01*
X0211612Y0156359D02*
X0213581Y0156359D01*
X0213581Y0157957D02*
X0212931Y0157957D01*
X0212931Y0159556D02*
X0213581Y0159556D01*
X0213581Y0161154D02*
X0212931Y0161154D01*
X0213581Y0165950D02*
X0160193Y0165950D01*
X0158594Y0167548D02*
X0213581Y0167548D01*
X0213581Y0169147D02*
X0211900Y0169147D01*
X0212931Y0170177D02*
X0210353Y0167600D01*
X0208531Y0167600D01*
X0208531Y0172000D01*
X0212931Y0172000D01*
X0212931Y0173823D01*
X0210353Y0176400D01*
X0208531Y0176400D01*
X0208531Y0172000D01*
X0208531Y0172000D01*
X0212931Y0172000D01*
X0212931Y0170177D01*
X0212931Y0170745D02*
X0213581Y0170745D01*
X0213581Y0172344D02*
X0212931Y0172344D01*
X0212811Y0173942D02*
X0213581Y0173942D01*
X0213581Y0175541D02*
X0211213Y0175541D01*
X0208531Y0175541D02*
X0208531Y0175541D01*
X0208531Y0176400D02*
X0206708Y0176400D01*
X0204131Y0173823D01*
X0204131Y0172000D01*
X0204131Y0170177D01*
X0206708Y0167600D01*
X0208531Y0167600D01*
X0208531Y0172000D01*
X0208531Y0172000D01*
X0208531Y0172000D01*
X0208531Y0176400D01*
X0205849Y0175541D02*
X0200647Y0175541D01*
X0200188Y0176000D02*
X0196874Y0176000D01*
X0194531Y0173657D01*
X0194531Y0170343D01*
X0196874Y0168000D01*
X0200188Y0168000D01*
X0202531Y0170343D01*
X0202531Y0173657D01*
X0200188Y0176000D01*
X0202246Y0173942D02*
X0204251Y0173942D01*
X0204131Y0172344D02*
X0202531Y0172344D01*
X0202531Y0170745D02*
X0204131Y0170745D01*
X0204131Y0172000D02*
X0208531Y0172000D01*
X0208531Y0172000D01*
X0204131Y0172000D01*
X0205162Y0169147D02*
X0201334Y0169147D01*
X0195727Y0169147D02*
X0156996Y0169147D01*
X0155397Y0170745D02*
X0194531Y0170745D01*
X0194531Y0172344D02*
X0020331Y0172344D01*
X0020331Y0173942D02*
X0063432Y0173942D01*
X0064374Y0173000D02*
X0067688Y0173000D01*
X0070031Y0175343D01*
X0070031Y0178657D01*
X0067688Y0181000D01*
X0064374Y0181000D01*
X0062031Y0178657D01*
X0062031Y0175343D01*
X0064374Y0173000D01*
X0062031Y0175541D02*
X0020331Y0175541D01*
X0020331Y0177139D02*
X0062031Y0177139D01*
X0062112Y0178738D02*
X0020331Y0178738D01*
X0020331Y0180336D02*
X0063710Y0180336D01*
X0068352Y0180336D02*
X0103710Y0180336D01*
X0104374Y0181000D02*
X0102031Y0178657D01*
X0102031Y0175343D01*
X0104374Y0173000D01*
X0107688Y0173000D01*
X0110031Y0175343D01*
X0110031Y0178657D01*
X0107688Y0181000D01*
X0104374Y0181000D01*
X0102112Y0178738D02*
X0069950Y0178738D01*
X0070031Y0177139D02*
X0102031Y0177139D01*
X0102031Y0175541D02*
X0070031Y0175541D01*
X0068630Y0173942D02*
X0103432Y0173942D01*
X0099165Y0170745D02*
X0020331Y0170745D01*
X0020331Y0169147D02*
X0097566Y0169147D01*
X0095968Y0167548D02*
X0020331Y0167548D01*
X0020331Y0165950D02*
X0094369Y0165950D01*
X0092771Y0164351D02*
X0020331Y0164351D01*
X0020331Y0162753D02*
X0073061Y0162753D01*
X0074208Y0163900D02*
X0071631Y0161323D01*
X0071631Y0159500D01*
X0071631Y0157677D01*
X0074208Y0155100D01*
X0076031Y0155100D01*
X0077853Y0155100D01*
X0080431Y0157677D01*
X0080431Y0159500D01*
X0080431Y0161323D01*
X0077853Y0163900D01*
X0076031Y0163900D01*
X0076031Y0159500D01*
X0080431Y0159500D01*
X0076031Y0159500D01*
X0076031Y0159500D01*
X0076031Y0159500D01*
X0076031Y0155100D01*
X0076031Y0159500D01*
X0076031Y0159500D01*
X0076031Y0163900D01*
X0074208Y0163900D01*
X0076031Y0162753D02*
X0076031Y0162753D01*
X0076031Y0161154D02*
X0076031Y0161154D01*
X0076031Y0159556D02*
X0076031Y0159556D01*
X0076031Y0159500D02*
X0076031Y0159500D01*
X0071631Y0159500D01*
X0076031Y0159500D01*
X0076031Y0157957D02*
X0076031Y0157957D01*
X0076031Y0156359D02*
X0076031Y0156359D01*
X0072950Y0156359D02*
X0020331Y0156359D01*
X0020331Y0157957D02*
X0071631Y0157957D01*
X0071631Y0159556D02*
X0020331Y0159556D01*
X0020331Y0161154D02*
X0071631Y0161154D01*
X0079001Y0162753D02*
X0083627Y0162753D01*
X0082031Y0161154D02*
X0080431Y0161154D01*
X0080431Y0159556D02*
X0082031Y0159556D01*
X0082031Y0157957D02*
X0080431Y0157957D01*
X0079112Y0156359D02*
X0083516Y0156359D01*
X0088435Y0162753D02*
X0091172Y0162753D01*
X0098993Y0164351D02*
X0155569Y0164351D01*
X0153970Y0165950D02*
X0100592Y0165950D01*
X0108630Y0173942D02*
X0194816Y0173942D01*
X0196415Y0175541D02*
X0110031Y0175541D01*
X0110031Y0177139D02*
X0213581Y0177139D01*
X0213581Y0178738D02*
X0109950Y0178738D01*
X0108352Y0180336D02*
X0185482Y0180336D01*
X0184073Y0181935D02*
X0020331Y0181935D01*
X0020331Y0183533D02*
X0183431Y0183533D01*
X0183431Y0185132D02*
X0020331Y0185132D01*
X0020331Y0186730D02*
X0183935Y0186730D01*
X0185147Y0188329D02*
X0020331Y0188329D01*
X0020331Y0189927D02*
X0023743Y0189927D01*
X0021793Y0191526D02*
X0020331Y0191526D01*
X0020331Y0193124D02*
X0021081Y0193124D01*
X0020931Y0194723D02*
X0020331Y0194723D01*
X0020331Y0196321D02*
X0021265Y0196321D01*
X0020331Y0197920D02*
X0022238Y0197920D01*
X0020331Y0199518D02*
X0024819Y0199518D01*
X0030981Y0193124D02*
X0031081Y0193124D01*
X0031793Y0191526D02*
X0030269Y0191526D01*
X0028318Y0189927D02*
X0033743Y0189927D01*
X0038318Y0189927D02*
X0043743Y0189927D01*
X0041793Y0191526D02*
X0040269Y0191526D01*
X0040981Y0193124D02*
X0041081Y0193124D01*
X0048318Y0189927D02*
X0052968Y0189927D01*
X0051393Y0191526D02*
X0050269Y0191526D01*
X0055831Y0191526D02*
X0056231Y0191526D01*
X0056231Y0193124D02*
X0055831Y0193124D01*
X0055831Y0189927D02*
X0056231Y0189927D01*
X0059094Y0189927D02*
X0063743Y0189927D01*
X0061793Y0191526D02*
X0060668Y0191526D01*
X0068318Y0189927D02*
X0073743Y0189927D01*
X0071793Y0191526D02*
X0070269Y0191526D01*
X0070981Y0193124D02*
X0071081Y0193124D01*
X0078318Y0189927D02*
X0207639Y0189927D01*
X0208331Y0189927D02*
X0208731Y0189927D01*
X0209423Y0189927D02*
X0213581Y0189927D01*
X0213581Y0188329D02*
X0212480Y0188329D01*
X0213567Y0186730D02*
X0213581Y0186730D01*
X0213581Y0181935D02*
X0213397Y0181935D01*
X0213581Y0180336D02*
X0212145Y0180336D01*
X0208731Y0180336D02*
X0208331Y0180336D01*
X0208331Y0181935D02*
X0208731Y0181935D01*
X0208731Y0183533D02*
X0208331Y0183533D01*
X0208331Y0185132D02*
X0208731Y0185132D01*
X0208731Y0186730D02*
X0208331Y0186730D01*
X0208331Y0188329D02*
X0208731Y0188329D01*
X0204582Y0188329D02*
X0201915Y0188329D01*
X0203127Y0186730D02*
X0203495Y0186730D01*
X0203665Y0181935D02*
X0202989Y0181935D01*
X0201580Y0180336D02*
X0204917Y0180336D01*
X0208531Y0173942D02*
X0208531Y0173942D01*
X0208531Y0172344D02*
X0208531Y0172344D01*
X0208531Y0170745D02*
X0208531Y0170745D01*
X0208531Y0169147D02*
X0208531Y0169147D01*
X0205561Y0162753D02*
X0200935Y0162753D01*
X0202531Y0161154D02*
X0204131Y0161154D01*
X0204131Y0159556D02*
X0202531Y0159556D01*
X0202531Y0157957D02*
X0204131Y0157957D01*
X0205450Y0156359D02*
X0201046Y0156359D01*
X0196016Y0156359D02*
X0167284Y0156359D01*
X0168882Y0154760D02*
X0213581Y0154760D01*
X0213581Y0153162D02*
X0170481Y0153162D01*
X0170731Y0151563D02*
X0213581Y0151563D01*
X0213581Y0149965D02*
X0170731Y0149965D01*
X0170731Y0148366D02*
X0213581Y0148366D01*
X0213581Y0146768D02*
X0170731Y0146768D01*
X0170731Y0145169D02*
X0213581Y0145169D01*
X0205931Y0143570D02*
X0170731Y0143570D01*
X0170731Y0141972D02*
X0205931Y0141972D01*
X0205931Y0140373D02*
X0170731Y0140373D01*
X0170731Y0138775D02*
X0205931Y0138775D01*
X0205931Y0137176D02*
X0170731Y0137176D01*
X0170731Y0135578D02*
X0205931Y0135578D01*
X0208518Y0133979D02*
X0170731Y0133979D01*
X0170731Y0132381D02*
X0206704Y0132381D01*
X0206042Y0130782D02*
X0170731Y0130782D01*
X0170731Y0129184D02*
X0205931Y0129184D01*
X0206304Y0127585D02*
X0170731Y0127585D01*
X0170731Y0125987D02*
X0207332Y0125987D01*
X0209506Y0124388D02*
X0170731Y0124388D01*
X0170731Y0122790D02*
X0207108Y0122790D01*
X0206550Y0102009D02*
X0193022Y0102009D01*
X0193481Y0100411D02*
X0205931Y0100411D01*
X0205931Y0098812D02*
X0193481Y0098812D01*
X0193245Y0097214D02*
X0206458Y0097214D01*
X0210831Y0068440D02*
X0211231Y0068440D01*
X0211231Y0066842D02*
X0210831Y0066842D01*
X0210831Y0065243D02*
X0211231Y0065243D01*
X0213581Y0047660D02*
X0201665Y0047660D01*
X0203754Y0046061D02*
X0213581Y0046061D01*
X0213581Y0044463D02*
X0204838Y0044463D01*
X0205500Y0042864D02*
X0213581Y0042864D01*
X0213581Y0041266D02*
X0205541Y0041266D01*
X0205413Y0039667D02*
X0213581Y0039667D01*
X0213581Y0038069D02*
X0204751Y0038069D01*
X0203545Y0036470D02*
X0213581Y0036470D01*
X0213581Y0034872D02*
X0201161Y0034872D01*
X0170540Y0026879D02*
X0164167Y0026879D01*
X0165037Y0028478D02*
X0168942Y0028478D01*
X0168831Y0030076D02*
X0165131Y0030076D01*
X0164560Y0031675D02*
X0168831Y0031675D01*
X0168831Y0033273D02*
X0162474Y0033273D01*
X0164698Y0047660D02*
X0168831Y0047660D01*
X0168831Y0049258D02*
X0165131Y0049258D01*
X0164898Y0050857D02*
X0168831Y0050857D01*
X0168831Y0052455D02*
X0163832Y0052455D01*
X0162632Y0017288D02*
X0098854Y0017288D01*
X0095829Y0014091D02*
X0063647Y0014091D01*
X0063647Y0012493D02*
X0097427Y0012493D01*
X0099026Y0010894D02*
X0063647Y0010894D01*
X0063647Y0010663D02*
X0063647Y0018337D01*
X0062982Y0019943D01*
X0061754Y0021172D01*
X0060148Y0021837D01*
X0058410Y0021837D01*
X0056804Y0021172D01*
X0055576Y0019943D01*
X0055047Y0018668D01*
X0054775Y0019326D01*
X0053656Y0020444D01*
X0052196Y0021050D01*
X0050614Y0021050D01*
X0049153Y0020444D01*
X0048035Y0019326D01*
X0047468Y0017957D01*
X0046901Y0019326D01*
X0045782Y0020444D01*
X0044322Y0021050D01*
X0042740Y0021050D01*
X0041279Y0020444D01*
X0040161Y0019326D01*
X0039594Y0017957D01*
X0039027Y0019326D01*
X0037908Y0020444D01*
X0036448Y0021050D01*
X0034866Y0021050D01*
X0033405Y0020444D01*
X0032287Y0019326D01*
X0032015Y0018668D01*
X0031486Y0019943D01*
X0030257Y0021172D01*
X0028652Y0021837D01*
X0026914Y0021837D01*
X0025308Y0021172D01*
X0024079Y0019943D01*
X0023414Y0018337D01*
X0023414Y0010663D01*
X0024079Y0009057D01*
X0025308Y0007828D01*
X0026914Y0007163D01*
X0028652Y0007163D01*
X0030257Y0007828D01*
X0031486Y0009057D01*
X0032015Y0010332D01*
X0032287Y0009674D01*
X0033405Y0008556D01*
X0034866Y0007950D01*
X0036448Y0007950D01*
X0037908Y0008556D01*
X0039027Y0009674D01*
X0039594Y0011043D01*
X0040161Y0009674D01*
X0041279Y0008556D01*
X0042740Y0007950D01*
X0044322Y0007950D01*
X0045782Y0008556D01*
X0046901Y0009674D01*
X0047468Y0011043D01*
X0048035Y0009674D01*
X0049153Y0008556D01*
X0050614Y0007950D01*
X0052196Y0007950D01*
X0053656Y0008556D01*
X0054775Y0009674D01*
X0055047Y0010332D01*
X0055576Y0009057D01*
X0056804Y0007828D01*
X0058410Y0007163D01*
X0060148Y0007163D01*
X0061754Y0007828D01*
X0062982Y0009057D01*
X0063647Y0010663D01*
X0063081Y0009296D02*
X0099531Y0009296D01*
X0099677Y0007697D02*
X0061437Y0007697D01*
X0057121Y0007697D02*
X0029941Y0007697D01*
X0031585Y0009296D02*
X0032665Y0009296D01*
X0038648Y0009296D02*
X0040539Y0009296D01*
X0039656Y0010894D02*
X0039532Y0010894D01*
X0046522Y0009296D02*
X0048413Y0009296D01*
X0047530Y0010894D02*
X0047406Y0010894D01*
X0047083Y0018887D02*
X0047853Y0018887D01*
X0049252Y0020485D02*
X0045684Y0020485D01*
X0041378Y0020485D02*
X0037810Y0020485D01*
X0039209Y0018887D02*
X0039979Y0018887D01*
X0033504Y0020485D02*
X0030944Y0020485D01*
X0031924Y0018887D02*
X0032105Y0018887D01*
X0024622Y0020485D02*
X0020331Y0020485D01*
X0020331Y0018887D02*
X0023642Y0018887D01*
X0023414Y0017288D02*
X0020331Y0017288D01*
X0020331Y0015690D02*
X0023414Y0015690D01*
X0023414Y0014091D02*
X0020331Y0014091D01*
X0020331Y0012493D02*
X0023414Y0012493D01*
X0023414Y0010894D02*
X0020331Y0010894D01*
X0020331Y0009296D02*
X0023981Y0009296D01*
X0025625Y0007697D02*
X0020331Y0007697D01*
X0020331Y0022084D02*
X0087836Y0022084D01*
X0086238Y0023682D02*
X0020331Y0023682D01*
X0020331Y0025281D02*
X0084639Y0025281D01*
X0083040Y0026879D02*
X0020331Y0026879D01*
X0020331Y0028478D02*
X0081442Y0028478D01*
X0079843Y0030076D02*
X0020331Y0030076D01*
X0020331Y0031675D02*
X0078245Y0031675D01*
X0076646Y0033273D02*
X0020331Y0033273D01*
X0020331Y0057251D02*
X0055123Y0057251D01*
X0054531Y0058849D02*
X0020331Y0058849D01*
X0020331Y0060448D02*
X0054531Y0060448D01*
X0055420Y0062046D02*
X0020331Y0062046D01*
X0049933Y0071637D02*
X0055737Y0071637D01*
X0062906Y0073236D02*
X0094531Y0073236D01*
X0094531Y0074834D02*
X0062531Y0074834D01*
X0063575Y0076433D02*
X0094807Y0076433D01*
X0095737Y0071637D02*
X0064505Y0071637D01*
X0066103Y0070039D02*
X0121931Y0070039D01*
X0122040Y0068440D02*
X0067702Y0068440D01*
X0069300Y0066842D02*
X0122932Y0066842D01*
X0101042Y0087623D02*
X0094765Y0087623D01*
X0096363Y0089221D02*
X0102641Y0089221D01*
X0099444Y0086024D02*
X0093166Y0086024D01*
X0091568Y0084426D02*
X0097845Y0084426D01*
X0096247Y0082827D02*
X0089969Y0082827D01*
X0084999Y0090820D02*
X0082629Y0090820D01*
X0083638Y0092418D02*
X0083873Y0092418D01*
X0084135Y0097214D02*
X0083321Y0097214D01*
X0081953Y0098812D02*
X0085631Y0098812D01*
X0091431Y0098812D02*
X0095631Y0098812D01*
X0094135Y0097214D02*
X0092927Y0097214D01*
X0085365Y0110002D02*
X0080998Y0110002D01*
X0082844Y0111600D02*
X0083839Y0111600D01*
X0083364Y0116396D02*
X0083266Y0116396D01*
X0084271Y0117994D02*
X0082249Y0117994D01*
X0077739Y0108403D02*
X0122056Y0108403D01*
X0121931Y0110002D02*
X0100998Y0110002D01*
X0102844Y0111600D02*
X0120819Y0111600D01*
X0119221Y0113199D02*
X0103512Y0113199D01*
X0103631Y0114797D02*
X0117622Y0114797D01*
X0116024Y0116396D02*
X0103266Y0116396D01*
X0102249Y0117994D02*
X0114425Y0117994D01*
X0109630Y0122790D02*
X0067432Y0122790D01*
X0069031Y0124388D02*
X0108031Y0124388D01*
X0106433Y0125987D02*
X0070629Y0125987D01*
X0072228Y0127585D02*
X0104834Y0127585D01*
X0103236Y0129184D02*
X0073826Y0129184D01*
X0073531Y0132000D02*
X0061031Y0119500D01*
X0073531Y0132000D02*
X0103531Y0132000D01*
X0126031Y0109500D01*
X0128531Y0109500D01*
X0122969Y0106805D02*
X0079337Y0106805D01*
X0078731Y0098812D02*
X0078331Y0098812D01*
X0078331Y0097214D02*
X0078731Y0097214D01*
X0078731Y0095615D02*
X0078331Y0095615D01*
X0078331Y0094017D02*
X0078731Y0094017D01*
X0078731Y0092418D02*
X0078331Y0092418D01*
X0078331Y0090820D02*
X0078731Y0090820D01*
X0054744Y0102009D02*
X0117910Y0102009D01*
X0120936Y0105206D02*
X0148626Y0105206D01*
X0147027Y0103608D02*
X0122534Y0103608D01*
X0134279Y0102009D02*
X0145429Y0102009D01*
X0150224Y0106805D02*
X0134093Y0106805D01*
X0133870Y0092418D02*
X0135838Y0092418D01*
X0162654Y0113199D02*
X0164118Y0113199D01*
X0162115Y0135578D02*
X0166331Y0135578D01*
X0166331Y0137176D02*
X0164464Y0137176D01*
X0165131Y0138775D02*
X0166331Y0138775D01*
X0166331Y0140373D02*
X0165099Y0140373D01*
X0123960Y0125987D02*
X0112655Y0125987D01*
X0111057Y0127585D02*
X0122394Y0127585D01*
X0121931Y0129184D02*
X0109458Y0129184D01*
X0107860Y0130782D02*
X0122133Y0130782D01*
X0080269Y0191526D02*
X0213581Y0191526D01*
X0213581Y0193124D02*
X0080981Y0193124D01*
X0081131Y0194723D02*
X0213581Y0194723D01*
X0213581Y0196321D02*
X0080797Y0196321D01*
X0079824Y0197920D02*
X0213581Y0197920D01*
X0213581Y0199518D02*
X0077242Y0199518D01*
X0032483Y0151563D02*
X0020331Y0151563D01*
X0020331Y0149965D02*
X0030884Y0149965D01*
X0029286Y0148366D02*
X0020331Y0148366D01*
X0020331Y0146768D02*
X0027687Y0146768D01*
X0026089Y0145169D02*
X0020331Y0145169D01*
X0080731Y0042864D02*
X0085673Y0042864D01*
X0088531Y0042864D02*
X0088531Y0042864D01*
X0088531Y0041266D02*
X0088531Y0041266D01*
X0088531Y0039667D02*
X0088531Y0039667D01*
X0088531Y0038069D02*
X0088531Y0038069D01*
X0088531Y0036470D02*
X0088531Y0036470D01*
X0091724Y0036470D02*
X0095904Y0036470D01*
X0096874Y0035500D02*
X0094531Y0037843D01*
X0094531Y0041157D01*
X0096874Y0043500D01*
X0100188Y0043500D01*
X0102531Y0041157D01*
X0102531Y0037843D01*
X0100188Y0035500D01*
X0096874Y0035500D01*
X0094531Y0038069D02*
X0092931Y0038069D01*
X0092931Y0039667D02*
X0094531Y0039667D01*
X0094640Y0041266D02*
X0092931Y0041266D01*
X0091389Y0042864D02*
X0096238Y0042864D01*
X0100823Y0042864D02*
X0123638Y0042864D01*
X0122333Y0041266D02*
X0102422Y0041266D01*
X0102531Y0039667D02*
X0121931Y0039667D01*
X0122194Y0038069D02*
X0102531Y0038069D01*
X0101158Y0036470D02*
X0123304Y0036470D01*
X0094230Y0015690D02*
X0063647Y0015690D01*
X0063647Y0017288D02*
X0092632Y0017288D01*
X0091033Y0018887D02*
X0063420Y0018887D01*
X0062440Y0020485D02*
X0089435Y0020485D01*
X0056118Y0020485D02*
X0053558Y0020485D01*
X0054957Y0018887D02*
X0055138Y0018887D01*
X0055477Y0009296D02*
X0054396Y0009296D01*
X0191580Y0180336D02*
X0195482Y0180336D01*
X0194073Y0181935D02*
X0192989Y0181935D01*
X0193127Y0186730D02*
X0193935Y0186730D01*
X0195147Y0188329D02*
X0191915Y0188329D01*
D22*
X0171031Y0077000D03*
X0171031Y0067000D03*
X0188531Y0014500D03*
X0048531Y0074500D03*
X0036031Y0074500D03*
X0031031Y0069500D03*
X0036031Y0084500D03*
M02*
