G75*
%MOIN*%
%OFA0B0*%
%FSLAX25Y25*%
%IPPOS*%
%LPD*%
%AMOC8*
5,1,8,0,0,1.08239X$1,22.5*
%
%ADD10C,0.00000*%
%ADD11C,0.00600*%
%ADD12C,0.00500*%
D10*
X0018531Y0004500D02*
X0018531Y0201350D01*
X0215381Y0201350D01*
X0215381Y0004500D01*
X0018531Y0004500D01*
D11*
X0037709Y0013368D02*
X0037709Y0015503D01*
X0038776Y0016570D01*
X0040911Y0016570D01*
X0041979Y0015503D01*
X0041979Y0013368D01*
X0040911Y0012300D01*
X0038776Y0012300D01*
X0037709Y0013368D01*
X0044154Y0014435D02*
X0047357Y0014435D01*
X0048424Y0013368D01*
X0047357Y0012300D01*
X0044154Y0012300D01*
X0044154Y0015503D01*
X0045222Y0016570D01*
X0047357Y0016570D01*
X0051654Y0016570D02*
X0051654Y0012300D01*
X0052721Y0012300D02*
X0050586Y0012300D01*
X0054897Y0012300D02*
X0059167Y0018705D01*
X0054897Y0018705D02*
X0059167Y0012300D01*
X0052721Y0016570D02*
X0051654Y0016570D01*
X0051654Y0018705D02*
X0051654Y0019773D01*
X0049923Y0022665D02*
X0048855Y0022665D01*
X0047788Y0023732D01*
X0047788Y0029070D01*
X0050990Y0029070D01*
X0052058Y0028003D01*
X0052058Y0025868D01*
X0050990Y0024800D01*
X0047788Y0024800D01*
X0054233Y0024800D02*
X0054233Y0028003D01*
X0055301Y0029070D01*
X0058503Y0029070D01*
X0058503Y0024800D01*
X0060679Y0025868D02*
X0060679Y0028003D01*
X0061746Y0029070D01*
X0063881Y0029070D01*
X0064949Y0028003D01*
X0064949Y0025868D01*
X0063881Y0024800D01*
X0061746Y0024800D01*
X0060679Y0025868D01*
X0067124Y0024800D02*
X0067124Y0028003D01*
X0068192Y0029070D01*
X0070327Y0029070D01*
X0071394Y0028003D01*
X0073570Y0029070D02*
X0076772Y0029070D01*
X0077840Y0028003D01*
X0077840Y0025868D01*
X0076772Y0024800D01*
X0073570Y0024800D01*
X0071394Y0024800D02*
X0071394Y0031205D01*
X0070718Y0039800D02*
X0068583Y0039800D01*
X0070718Y0039800D02*
X0071785Y0040868D01*
X0071785Y0043003D01*
X0070718Y0044070D01*
X0068583Y0044070D01*
X0067515Y0043003D01*
X0067515Y0041935D01*
X0071785Y0041935D01*
X0073961Y0043003D02*
X0078231Y0043003D01*
X0078231Y0046205D02*
X0078231Y0039800D01*
X0073961Y0039800D02*
X0073961Y0046205D01*
X0065340Y0043003D02*
X0065340Y0040868D01*
X0064272Y0039800D01*
X0061070Y0039800D01*
X0058894Y0039800D02*
X0058894Y0046205D01*
X0057827Y0044070D02*
X0055692Y0044070D01*
X0054624Y0043003D01*
X0054624Y0039800D01*
X0052449Y0040868D02*
X0051381Y0039800D01*
X0049246Y0039800D01*
X0048179Y0040868D01*
X0048179Y0043003D01*
X0049246Y0044070D01*
X0051381Y0044070D01*
X0052449Y0043003D01*
X0052449Y0040868D01*
X0057827Y0044070D02*
X0058894Y0043003D01*
X0061070Y0044070D02*
X0064272Y0044070D01*
X0065340Y0043003D01*
X0080015Y0028003D02*
X0080015Y0026935D01*
X0084285Y0026935D01*
X0084285Y0025868D02*
X0084285Y0028003D01*
X0083218Y0029070D01*
X0081083Y0029070D01*
X0080015Y0028003D01*
X0081083Y0024800D02*
X0083218Y0024800D01*
X0084285Y0025868D01*
X0086461Y0024800D02*
X0086461Y0031205D01*
X0086461Y0028003D02*
X0090731Y0028003D01*
X0090731Y0031205D02*
X0090731Y0024800D01*
X0091394Y0018705D02*
X0091394Y0012300D01*
X0093570Y0012300D02*
X0096772Y0012300D01*
X0097840Y0013368D01*
X0097840Y0015503D01*
X0096772Y0016570D01*
X0093570Y0016570D01*
X0091394Y0015503D02*
X0090327Y0016570D01*
X0088192Y0016570D01*
X0087124Y0015503D01*
X0087124Y0012300D01*
X0084949Y0013368D02*
X0083881Y0012300D01*
X0081746Y0012300D01*
X0080679Y0013368D01*
X0080679Y0015503D01*
X0081746Y0016570D01*
X0083881Y0016570D01*
X0084949Y0015503D01*
X0084949Y0013368D01*
X0078503Y0012300D02*
X0078503Y0016570D01*
X0075301Y0016570D01*
X0074233Y0015503D01*
X0074233Y0012300D01*
X0072058Y0013368D02*
X0070990Y0012300D01*
X0067788Y0012300D01*
X0067788Y0011232D02*
X0067788Y0016570D01*
X0070990Y0016570D01*
X0072058Y0015503D01*
X0072058Y0013368D01*
X0068855Y0010165D02*
X0067788Y0011232D01*
X0068855Y0010165D02*
X0069923Y0010165D01*
X0039167Y0024800D02*
X0034897Y0031205D01*
X0032721Y0029070D02*
X0031654Y0029070D01*
X0031654Y0024800D01*
X0032721Y0024800D02*
X0030586Y0024800D01*
X0028424Y0025868D02*
X0027357Y0026935D01*
X0024154Y0026935D01*
X0024154Y0028003D02*
X0024154Y0024800D01*
X0027357Y0024800D01*
X0028424Y0025868D01*
X0027357Y0029070D02*
X0025222Y0029070D01*
X0024154Y0028003D01*
X0021979Y0028003D02*
X0021979Y0025868D01*
X0020911Y0024800D01*
X0018776Y0024800D01*
X0017709Y0025868D01*
X0017709Y0028003D01*
X0018776Y0029070D01*
X0020911Y0029070D01*
X0021979Y0028003D01*
X0031654Y0031205D02*
X0031654Y0032273D01*
X0036355Y0037665D02*
X0035288Y0038732D01*
X0035288Y0044070D01*
X0038490Y0044070D01*
X0039558Y0043003D01*
X0039558Y0040868D01*
X0038490Y0039800D01*
X0035288Y0039800D01*
X0036355Y0037665D02*
X0037423Y0037665D01*
X0041733Y0039800D02*
X0041733Y0043003D01*
X0042801Y0044070D01*
X0046003Y0044070D01*
X0046003Y0039800D01*
X0039167Y0031205D02*
X0034897Y0024800D01*
X0026667Y0039800D02*
X0022397Y0046205D01*
X0019154Y0046205D02*
X0019154Y0047273D01*
X0019154Y0044070D02*
X0019154Y0039800D01*
X0020221Y0039800D02*
X0018086Y0039800D01*
X0015924Y0040868D02*
X0014857Y0041935D01*
X0011654Y0041935D01*
X0011654Y0043003D02*
X0011654Y0039800D01*
X0014857Y0039800D01*
X0015924Y0040868D01*
X0014857Y0044070D02*
X0012722Y0044070D01*
X0011654Y0043003D01*
X0009479Y0043003D02*
X0009479Y0040868D01*
X0008411Y0039800D01*
X0006276Y0039800D01*
X0005209Y0040868D01*
X0005209Y0043003D01*
X0006276Y0044070D01*
X0008411Y0044070D01*
X0009479Y0043003D01*
X0019154Y0044070D02*
X0020221Y0044070D01*
X0022397Y0039800D02*
X0026667Y0046205D01*
X0026654Y0062300D02*
X0026654Y0066570D01*
X0027721Y0066570D01*
X0026654Y0068705D02*
X0026654Y0069773D01*
X0029897Y0068705D02*
X0034167Y0062300D01*
X0029897Y0062300D02*
X0034167Y0068705D01*
X0042788Y0066570D02*
X0042788Y0061232D01*
X0043855Y0060165D01*
X0044923Y0060165D01*
X0045990Y0062300D02*
X0042788Y0062300D01*
X0045990Y0062300D02*
X0047058Y0063368D01*
X0047058Y0065503D01*
X0045990Y0066570D01*
X0042788Y0066570D01*
X0049233Y0065503D02*
X0049233Y0062300D01*
X0049233Y0065503D02*
X0050301Y0066570D01*
X0053503Y0066570D01*
X0053503Y0062300D01*
X0055679Y0063368D02*
X0055679Y0065503D01*
X0056746Y0066570D01*
X0058881Y0066570D01*
X0059949Y0065503D01*
X0059949Y0063368D01*
X0058881Y0062300D01*
X0056746Y0062300D01*
X0055679Y0063368D01*
X0062124Y0062300D02*
X0062124Y0065503D01*
X0063192Y0066570D01*
X0065327Y0066570D01*
X0066394Y0065503D01*
X0068570Y0066570D02*
X0071772Y0066570D01*
X0072840Y0065503D01*
X0072840Y0063368D01*
X0071772Y0062300D01*
X0068570Y0062300D01*
X0066394Y0062300D02*
X0066394Y0068705D01*
X0075015Y0065503D02*
X0075015Y0064435D01*
X0079285Y0064435D01*
X0079285Y0063368D02*
X0079285Y0065503D01*
X0078218Y0066570D01*
X0076083Y0066570D01*
X0075015Y0065503D01*
X0076083Y0062300D02*
X0078218Y0062300D01*
X0079285Y0063368D01*
X0081461Y0062300D02*
X0081461Y0068705D01*
X0081461Y0065503D02*
X0085731Y0065503D01*
X0085731Y0068705D02*
X0085731Y0062300D01*
X0086083Y0079800D02*
X0088218Y0079800D01*
X0089285Y0080868D01*
X0089285Y0083003D01*
X0088218Y0084070D01*
X0086083Y0084070D01*
X0085015Y0083003D01*
X0085015Y0081935D01*
X0089285Y0081935D01*
X0091461Y0083003D02*
X0095731Y0083003D01*
X0095731Y0086205D02*
X0095731Y0079800D01*
X0091461Y0079800D02*
X0091461Y0086205D01*
X0082840Y0083003D02*
X0082840Y0080868D01*
X0081772Y0079800D01*
X0078570Y0079800D01*
X0076394Y0079800D02*
X0076394Y0086205D01*
X0075327Y0084070D02*
X0073192Y0084070D01*
X0072124Y0083003D01*
X0072124Y0079800D01*
X0069949Y0080868D02*
X0069949Y0083003D01*
X0068881Y0084070D01*
X0066746Y0084070D01*
X0065679Y0083003D01*
X0065679Y0080868D01*
X0066746Y0079800D01*
X0068881Y0079800D01*
X0069949Y0080868D01*
X0063503Y0079800D02*
X0063503Y0084070D01*
X0060301Y0084070D01*
X0059233Y0083003D01*
X0059233Y0079800D01*
X0057058Y0080868D02*
X0057058Y0083003D01*
X0055990Y0084070D01*
X0052788Y0084070D01*
X0052788Y0078732D01*
X0053855Y0077665D01*
X0054923Y0077665D01*
X0055990Y0079800D02*
X0052788Y0079800D01*
X0055990Y0079800D02*
X0057058Y0080868D01*
X0044167Y0079800D02*
X0039897Y0086205D01*
X0037721Y0084070D02*
X0036654Y0084070D01*
X0036654Y0079800D01*
X0037721Y0079800D02*
X0035586Y0079800D01*
X0033424Y0080868D02*
X0032357Y0081935D01*
X0029154Y0081935D01*
X0029154Y0083003D02*
X0029154Y0079800D01*
X0032357Y0079800D01*
X0033424Y0080868D01*
X0032357Y0084070D02*
X0030222Y0084070D01*
X0029154Y0083003D01*
X0026979Y0083003D02*
X0026979Y0080868D01*
X0025911Y0079800D01*
X0023776Y0079800D01*
X0022709Y0080868D01*
X0022709Y0083003D01*
X0023776Y0084070D01*
X0025911Y0084070D01*
X0026979Y0083003D01*
X0036654Y0086205D02*
X0036654Y0087273D01*
X0044167Y0086205D02*
X0039897Y0079800D01*
X0039857Y0097300D02*
X0036654Y0097300D01*
X0036654Y0100503D01*
X0037722Y0101570D01*
X0039857Y0101570D01*
X0039857Y0099435D02*
X0036654Y0099435D01*
X0034479Y0098368D02*
X0033411Y0097300D01*
X0031276Y0097300D01*
X0030209Y0098368D01*
X0030209Y0100503D01*
X0031276Y0101570D01*
X0033411Y0101570D01*
X0034479Y0100503D01*
X0034479Y0098368D01*
X0039857Y0099435D02*
X0040924Y0098368D01*
X0039857Y0097300D01*
X0043086Y0097300D02*
X0045221Y0097300D01*
X0044154Y0097300D02*
X0044154Y0101570D01*
X0045221Y0101570D01*
X0044154Y0103705D02*
X0044154Y0104773D01*
X0047397Y0103705D02*
X0051667Y0097300D01*
X0047397Y0097300D02*
X0051667Y0103705D01*
X0060288Y0101570D02*
X0060288Y0096232D01*
X0061355Y0095165D01*
X0062423Y0095165D01*
X0063490Y0097300D02*
X0060288Y0097300D01*
X0063490Y0097300D02*
X0064558Y0098368D01*
X0064558Y0100503D01*
X0063490Y0101570D01*
X0060288Y0101570D01*
X0066733Y0100503D02*
X0066733Y0097300D01*
X0066733Y0100503D02*
X0067801Y0101570D01*
X0071003Y0101570D01*
X0071003Y0097300D01*
X0073179Y0098368D02*
X0073179Y0100503D01*
X0074246Y0101570D01*
X0076381Y0101570D01*
X0077449Y0100503D01*
X0077449Y0098368D01*
X0076381Y0097300D01*
X0074246Y0097300D01*
X0073179Y0098368D01*
X0079624Y0097300D02*
X0079624Y0100503D01*
X0080692Y0101570D01*
X0082827Y0101570D01*
X0083894Y0100503D01*
X0086070Y0101570D02*
X0089272Y0101570D01*
X0090340Y0100503D01*
X0090340Y0098368D01*
X0089272Y0097300D01*
X0086070Y0097300D01*
X0083894Y0097300D02*
X0083894Y0103705D01*
X0092515Y0100503D02*
X0092515Y0099435D01*
X0096785Y0099435D01*
X0096785Y0098368D02*
X0096785Y0100503D01*
X0095718Y0101570D01*
X0093583Y0101570D01*
X0092515Y0100503D01*
X0093583Y0097300D02*
X0095718Y0097300D01*
X0096785Y0098368D01*
X0098961Y0097300D02*
X0098961Y0103705D01*
X0098961Y0100503D02*
X0103231Y0100503D01*
X0103231Y0103705D02*
X0103231Y0097300D01*
X0101772Y0114800D02*
X0098570Y0114800D01*
X0096394Y0114800D02*
X0096394Y0121205D01*
X0095327Y0119070D02*
X0093192Y0119070D01*
X0092124Y0118003D01*
X0092124Y0114800D01*
X0089949Y0115868D02*
X0088881Y0114800D01*
X0086746Y0114800D01*
X0085679Y0115868D01*
X0085679Y0118003D01*
X0086746Y0119070D01*
X0088881Y0119070D01*
X0089949Y0118003D01*
X0089949Y0115868D01*
X0095327Y0119070D02*
X0096394Y0118003D01*
X0098570Y0119070D02*
X0101772Y0119070D01*
X0102840Y0118003D01*
X0102840Y0115868D01*
X0101772Y0114800D01*
X0105015Y0116935D02*
X0109285Y0116935D01*
X0109285Y0115868D02*
X0109285Y0118003D01*
X0108218Y0119070D01*
X0106083Y0119070D01*
X0105015Y0118003D01*
X0105015Y0116935D01*
X0106083Y0114800D02*
X0108218Y0114800D01*
X0109285Y0115868D01*
X0111461Y0114800D02*
X0111461Y0121205D01*
X0111461Y0118003D02*
X0115731Y0118003D01*
X0115731Y0121205D02*
X0115731Y0114800D01*
X0116083Y0127300D02*
X0118218Y0127300D01*
X0119285Y0128368D01*
X0119285Y0130503D01*
X0118218Y0131570D01*
X0116083Y0131570D01*
X0115015Y0130503D01*
X0115015Y0129435D01*
X0119285Y0129435D01*
X0121461Y0130503D02*
X0125731Y0130503D01*
X0125731Y0133705D02*
X0125731Y0127300D01*
X0121461Y0127300D02*
X0121461Y0133705D01*
X0112840Y0130503D02*
X0112840Y0128368D01*
X0111772Y0127300D01*
X0108570Y0127300D01*
X0106394Y0127300D02*
X0106394Y0133705D01*
X0105327Y0131570D02*
X0103192Y0131570D01*
X0102124Y0130503D01*
X0102124Y0127300D01*
X0099949Y0128368D02*
X0098881Y0127300D01*
X0096746Y0127300D01*
X0095679Y0128368D01*
X0095679Y0130503D01*
X0096746Y0131570D01*
X0098881Y0131570D01*
X0099949Y0130503D01*
X0099949Y0128368D01*
X0105327Y0131570D02*
X0106394Y0130503D01*
X0108570Y0131570D02*
X0111772Y0131570D01*
X0112840Y0130503D01*
X0099923Y0142665D02*
X0098855Y0142665D01*
X0097788Y0143732D01*
X0097788Y0149070D01*
X0100990Y0149070D01*
X0102058Y0148003D01*
X0102058Y0145868D01*
X0100990Y0144800D01*
X0097788Y0144800D01*
X0104233Y0144800D02*
X0104233Y0148003D01*
X0105301Y0149070D01*
X0108503Y0149070D01*
X0108503Y0144800D01*
X0110679Y0145868D02*
X0110679Y0148003D01*
X0111746Y0149070D01*
X0113881Y0149070D01*
X0114949Y0148003D01*
X0114949Y0145868D01*
X0113881Y0144800D01*
X0111746Y0144800D01*
X0110679Y0145868D01*
X0117124Y0144800D02*
X0117124Y0148003D01*
X0118192Y0149070D01*
X0120327Y0149070D01*
X0121394Y0148003D01*
X0123570Y0149070D02*
X0126772Y0149070D01*
X0127840Y0148003D01*
X0127840Y0145868D01*
X0126772Y0144800D01*
X0123570Y0144800D01*
X0121394Y0144800D02*
X0121394Y0151205D01*
X0121003Y0159800D02*
X0121003Y0164070D01*
X0117801Y0164070D01*
X0116733Y0163003D01*
X0116733Y0159800D01*
X0114558Y0160868D02*
X0114558Y0163003D01*
X0113490Y0164070D01*
X0110288Y0164070D01*
X0110288Y0158732D01*
X0111355Y0157665D01*
X0112423Y0157665D01*
X0113490Y0159800D02*
X0110288Y0159800D01*
X0113490Y0159800D02*
X0114558Y0160868D01*
X0123179Y0160868D02*
X0123179Y0163003D01*
X0124246Y0164070D01*
X0126381Y0164070D01*
X0127449Y0163003D01*
X0127449Y0160868D01*
X0126381Y0159800D01*
X0124246Y0159800D01*
X0123179Y0160868D01*
X0129624Y0159800D02*
X0129624Y0163003D01*
X0130692Y0164070D01*
X0132827Y0164070D01*
X0133894Y0163003D01*
X0136070Y0164070D02*
X0139272Y0164070D01*
X0140340Y0163003D01*
X0140340Y0160868D01*
X0139272Y0159800D01*
X0136070Y0159800D01*
X0133894Y0159800D02*
X0133894Y0166205D01*
X0132423Y0175165D02*
X0131355Y0175165D01*
X0130288Y0176232D01*
X0130288Y0181570D01*
X0133490Y0181570D01*
X0134558Y0180503D01*
X0134558Y0178368D01*
X0133490Y0177300D01*
X0130288Y0177300D01*
X0136733Y0177300D02*
X0136733Y0180503D01*
X0137801Y0181570D01*
X0141003Y0181570D01*
X0141003Y0177300D01*
X0143179Y0178368D02*
X0143179Y0180503D01*
X0144246Y0181570D01*
X0146381Y0181570D01*
X0147449Y0180503D01*
X0147449Y0178368D01*
X0146381Y0177300D01*
X0144246Y0177300D01*
X0143179Y0178368D01*
X0149624Y0177300D02*
X0149624Y0180503D01*
X0150692Y0181570D01*
X0152827Y0181570D01*
X0153894Y0180503D01*
X0156070Y0181570D02*
X0159272Y0181570D01*
X0160340Y0180503D01*
X0160340Y0178368D01*
X0159272Y0177300D01*
X0156070Y0177300D01*
X0153894Y0177300D02*
X0153894Y0183705D01*
X0162515Y0180503D02*
X0162515Y0179435D01*
X0166785Y0179435D01*
X0166785Y0178368D02*
X0166785Y0180503D01*
X0165718Y0181570D01*
X0163583Y0181570D01*
X0162515Y0180503D01*
X0163583Y0177300D02*
X0165718Y0177300D01*
X0166785Y0178368D01*
X0168961Y0177300D02*
X0168961Y0183705D01*
X0168961Y0180503D02*
X0173231Y0180503D01*
X0173231Y0183705D02*
X0173231Y0177300D01*
X0169923Y0190165D02*
X0168855Y0190165D01*
X0167788Y0191232D01*
X0167788Y0196570D01*
X0170990Y0196570D01*
X0172058Y0195503D01*
X0172058Y0193368D01*
X0170990Y0192300D01*
X0167788Y0192300D01*
X0174233Y0192300D02*
X0174233Y0195503D01*
X0175301Y0196570D01*
X0178503Y0196570D01*
X0178503Y0192300D01*
X0180679Y0193368D02*
X0180679Y0195503D01*
X0181746Y0196570D01*
X0183881Y0196570D01*
X0184949Y0195503D01*
X0184949Y0193368D01*
X0183881Y0192300D01*
X0181746Y0192300D01*
X0180679Y0193368D01*
X0187124Y0192300D02*
X0187124Y0195503D01*
X0188192Y0196570D01*
X0190327Y0196570D01*
X0191394Y0195503D01*
X0193570Y0196570D02*
X0196772Y0196570D01*
X0197840Y0195503D01*
X0197840Y0193368D01*
X0196772Y0192300D01*
X0193570Y0192300D01*
X0191394Y0192300D02*
X0191394Y0198705D01*
X0200015Y0195503D02*
X0200015Y0194435D01*
X0204285Y0194435D01*
X0204285Y0193368D02*
X0204285Y0195503D01*
X0203218Y0196570D01*
X0201083Y0196570D01*
X0200015Y0195503D01*
X0201083Y0192300D02*
X0203218Y0192300D01*
X0204285Y0193368D01*
X0206461Y0192300D02*
X0206461Y0198705D01*
X0206461Y0195503D02*
X0210731Y0195503D01*
X0210731Y0198705D02*
X0210731Y0192300D01*
X0159167Y0192300D02*
X0154897Y0198705D01*
X0152721Y0196570D02*
X0151654Y0196570D01*
X0151654Y0192300D01*
X0152721Y0192300D02*
X0150586Y0192300D01*
X0148424Y0193368D02*
X0147357Y0194435D01*
X0144154Y0194435D01*
X0144154Y0195503D02*
X0144154Y0192300D01*
X0147357Y0192300D01*
X0148424Y0193368D01*
X0147357Y0196570D02*
X0145222Y0196570D01*
X0144154Y0195503D01*
X0141979Y0195503D02*
X0141979Y0193368D01*
X0140911Y0192300D01*
X0138776Y0192300D01*
X0137709Y0193368D01*
X0137709Y0195503D01*
X0138776Y0196570D01*
X0140911Y0196570D01*
X0141979Y0195503D01*
X0151654Y0198705D02*
X0151654Y0199773D01*
X0159167Y0198705D02*
X0154897Y0192300D01*
X0153231Y0166205D02*
X0153231Y0159800D01*
X0153231Y0163003D02*
X0148961Y0163003D01*
X0146785Y0163003D02*
X0146785Y0160868D01*
X0145718Y0159800D01*
X0143583Y0159800D01*
X0142515Y0161935D02*
X0146785Y0161935D01*
X0146785Y0163003D02*
X0145718Y0164070D01*
X0143583Y0164070D01*
X0142515Y0163003D01*
X0142515Y0161935D01*
X0148961Y0159800D02*
X0148961Y0166205D01*
X0140731Y0151205D02*
X0140731Y0144800D01*
X0140731Y0148003D02*
X0136461Y0148003D01*
X0134285Y0148003D02*
X0134285Y0145868D01*
X0133218Y0144800D01*
X0131083Y0144800D01*
X0130015Y0146935D02*
X0134285Y0146935D01*
X0134285Y0148003D02*
X0133218Y0149070D01*
X0131083Y0149070D01*
X0130015Y0148003D01*
X0130015Y0146935D01*
X0136461Y0144800D02*
X0136461Y0151205D01*
X0121667Y0177300D02*
X0117397Y0183705D01*
X0115221Y0181570D02*
X0114154Y0181570D01*
X0114154Y0177300D01*
X0115221Y0177300D02*
X0113086Y0177300D01*
X0110924Y0178368D02*
X0109857Y0179435D01*
X0106654Y0179435D01*
X0106654Y0180503D02*
X0106654Y0177300D01*
X0109857Y0177300D01*
X0110924Y0178368D01*
X0109857Y0181570D02*
X0107722Y0181570D01*
X0106654Y0180503D01*
X0104479Y0180503D02*
X0104479Y0178368D01*
X0103411Y0177300D01*
X0101276Y0177300D01*
X0100209Y0178368D01*
X0100209Y0180503D01*
X0101276Y0181570D01*
X0103411Y0181570D01*
X0104479Y0180503D01*
X0114154Y0183705D02*
X0114154Y0184773D01*
X0121667Y0183705D02*
X0117397Y0177300D01*
X0101667Y0166205D02*
X0097397Y0159800D01*
X0095221Y0159800D02*
X0093086Y0159800D01*
X0094154Y0159800D02*
X0094154Y0164070D01*
X0095221Y0164070D01*
X0094154Y0166205D02*
X0094154Y0167273D01*
X0097397Y0166205D02*
X0101667Y0159800D01*
X0090924Y0160868D02*
X0089857Y0161935D01*
X0086654Y0161935D01*
X0086654Y0163003D02*
X0086654Y0159800D01*
X0089857Y0159800D01*
X0090924Y0160868D01*
X0089857Y0164070D02*
X0087722Y0164070D01*
X0086654Y0163003D01*
X0084479Y0163003D02*
X0084479Y0160868D01*
X0083411Y0159800D01*
X0081276Y0159800D01*
X0080209Y0160868D01*
X0080209Y0163003D01*
X0081276Y0164070D01*
X0083411Y0164070D01*
X0084479Y0163003D01*
X0081654Y0152273D02*
X0081654Y0151205D01*
X0084897Y0151205D02*
X0089167Y0144800D01*
X0084897Y0144800D02*
X0089167Y0151205D01*
X0082721Y0149070D02*
X0081654Y0149070D01*
X0081654Y0144800D01*
X0082721Y0144800D02*
X0080586Y0144800D01*
X0078424Y0145868D02*
X0077357Y0146935D01*
X0074154Y0146935D01*
X0074154Y0148003D02*
X0074154Y0144800D01*
X0077357Y0144800D01*
X0078424Y0145868D01*
X0077357Y0149070D02*
X0075222Y0149070D01*
X0074154Y0148003D01*
X0071979Y0148003D02*
X0071979Y0145868D01*
X0070911Y0144800D01*
X0068776Y0144800D01*
X0067709Y0145868D01*
X0067709Y0148003D01*
X0068776Y0149070D01*
X0070911Y0149070D01*
X0071979Y0148003D01*
X0066654Y0134773D02*
X0066654Y0133705D01*
X0066654Y0131570D02*
X0066654Y0127300D01*
X0067721Y0127300D02*
X0065586Y0127300D01*
X0063424Y0128368D02*
X0062357Y0129435D01*
X0059154Y0129435D01*
X0059154Y0130503D02*
X0059154Y0127300D01*
X0062357Y0127300D01*
X0063424Y0128368D01*
X0062357Y0131570D02*
X0060222Y0131570D01*
X0059154Y0130503D01*
X0056979Y0130503D02*
X0056979Y0128368D01*
X0055911Y0127300D01*
X0053776Y0127300D01*
X0052709Y0128368D01*
X0052709Y0130503D01*
X0053776Y0131570D01*
X0055911Y0131570D01*
X0056979Y0130503D01*
X0056654Y0122273D02*
X0056654Y0121205D01*
X0056654Y0119070D02*
X0056654Y0114800D01*
X0057721Y0114800D02*
X0055586Y0114800D01*
X0053424Y0115868D02*
X0052357Y0116935D01*
X0049154Y0116935D01*
X0049154Y0118003D02*
X0049154Y0114800D01*
X0052357Y0114800D01*
X0053424Y0115868D01*
X0052357Y0119070D02*
X0050222Y0119070D01*
X0049154Y0118003D01*
X0046979Y0118003D02*
X0046979Y0115868D01*
X0045911Y0114800D01*
X0043776Y0114800D01*
X0042709Y0115868D01*
X0042709Y0118003D01*
X0043776Y0119070D01*
X0045911Y0119070D01*
X0046979Y0118003D01*
X0056654Y0119070D02*
X0057721Y0119070D01*
X0059897Y0121205D02*
X0064167Y0114800D01*
X0059897Y0114800D02*
X0064167Y0121205D01*
X0069897Y0127300D02*
X0074167Y0133705D01*
X0069897Y0133705D02*
X0074167Y0127300D01*
X0067721Y0131570D02*
X0066654Y0131570D01*
X0072788Y0119070D02*
X0075990Y0119070D01*
X0077058Y0118003D01*
X0077058Y0115868D01*
X0075990Y0114800D01*
X0072788Y0114800D01*
X0072788Y0113732D02*
X0072788Y0119070D01*
X0072788Y0113732D02*
X0073855Y0112665D01*
X0074923Y0112665D01*
X0079233Y0114800D02*
X0079233Y0118003D01*
X0080301Y0119070D01*
X0083503Y0119070D01*
X0083503Y0114800D01*
X0083855Y0125165D02*
X0082788Y0126232D01*
X0082788Y0131570D01*
X0085990Y0131570D01*
X0087058Y0130503D01*
X0087058Y0128368D01*
X0085990Y0127300D01*
X0082788Y0127300D01*
X0083855Y0125165D02*
X0084923Y0125165D01*
X0089233Y0127300D02*
X0089233Y0130503D01*
X0090301Y0131570D01*
X0093503Y0131570D01*
X0093503Y0127300D01*
X0081772Y0084070D02*
X0078570Y0084070D01*
X0076394Y0083003D02*
X0075327Y0084070D01*
X0081772Y0084070D02*
X0082840Y0083003D01*
X0027721Y0062300D02*
X0025586Y0062300D01*
X0023424Y0063368D02*
X0022357Y0064435D01*
X0019154Y0064435D01*
X0019154Y0065503D02*
X0019154Y0062300D01*
X0022357Y0062300D01*
X0023424Y0063368D01*
X0022357Y0066570D02*
X0020222Y0066570D01*
X0019154Y0065503D01*
X0016979Y0065503D02*
X0016979Y0063368D01*
X0015911Y0062300D01*
X0013776Y0062300D01*
X0012709Y0063368D01*
X0012709Y0065503D01*
X0013776Y0066570D01*
X0015911Y0066570D01*
X0016979Y0065503D01*
X0100015Y0015503D02*
X0100015Y0014435D01*
X0104285Y0014435D01*
X0104285Y0013368D02*
X0104285Y0015503D01*
X0103218Y0016570D01*
X0101083Y0016570D01*
X0100015Y0015503D01*
X0101083Y0012300D02*
X0103218Y0012300D01*
X0104285Y0013368D01*
X0106461Y0012300D02*
X0106461Y0018705D01*
X0106461Y0015503D02*
X0110731Y0015503D01*
X0110731Y0018705D02*
X0110731Y0012300D01*
D12*
X0177862Y0011646D02*
X0213295Y0011646D01*
X0213295Y0042354D01*
X0177862Y0042354D01*
X0177862Y0011646D01*
X0191641Y0024047D02*
X0191641Y0029953D01*
X0211326Y0031921D01*
X0211326Y0034874D02*
X0193610Y0032906D01*
X0193610Y0040780D02*
X0211326Y0038811D01*
X0211326Y0034874D01*
X0211326Y0022079D02*
X0191641Y0024047D01*
X0195578Y0021094D02*
X0211326Y0019126D01*
X0211326Y0015189D01*
X0195578Y0013220D01*
M02*
