G75*
%MOIN*%
%OFA0B0*%
%FSLAX25Y25*%
%IPPOS*%
%LPD*%
%AMOC8*
5,1,8,0,0,1.08239X$1,22.5*
%
%ADD10C,0.00000*%
%ADD11OC8,0.05600*%
%ADD12C,0.05550*%
%ADD13C,0.06337*%
%ADD14C,0.05600*%
%ADD15C,0.07800*%
%ADD16C,0.05550*%
%ADD17C,0.11620*%
%ADD18R,0.07800X0.07800*%
%ADD19C,0.06700*%
%ADD20OC8,0.06700*%
D10*
X0018531Y0004500D02*
X0018531Y0201350D01*
X0215381Y0201350D01*
X0215381Y0004500D01*
X0018531Y0004500D01*
D11*
X0058531Y0039500D03*
X0068531Y0039500D03*
X0088531Y0039500D03*
X0098531Y0039500D03*
X0098531Y0059500D03*
X0098531Y0074500D03*
X0058531Y0074500D03*
X0053531Y0084500D03*
X0043531Y0084500D03*
X0051031Y0099500D03*
X0043531Y0104500D03*
X0051031Y0109500D03*
X0053531Y0127000D03*
X0043531Y0127000D03*
X0076031Y0159500D03*
X0086031Y0159500D03*
X0106031Y0177000D03*
X0066031Y0177000D03*
X0058531Y0059500D03*
X0103531Y0009500D03*
X0113531Y0009500D03*
X0123531Y0009500D03*
X0163531Y0009500D03*
X0198531Y0159500D03*
X0208531Y0159500D03*
X0208531Y0172000D03*
X0198531Y0172000D03*
D12*
X0051405Y0017075D02*
X0051405Y0011925D01*
X0043531Y0011925D02*
X0043531Y0017075D01*
X0035657Y0017075D02*
X0035657Y0011925D01*
D13*
X0027783Y0011531D02*
X0027783Y0017469D01*
X0059279Y0017469D02*
X0059279Y0011531D01*
D14*
X0125931Y0029500D02*
X0131131Y0029500D01*
X0131131Y0039500D02*
X0125931Y0039500D01*
X0125931Y0049500D02*
X0131131Y0049500D01*
X0131131Y0059500D02*
X0125931Y0059500D01*
X0125931Y0069500D02*
X0131131Y0069500D01*
X0131131Y0079500D02*
X0125931Y0079500D01*
X0125931Y0089500D02*
X0131131Y0089500D01*
X0131131Y0099500D02*
X0125931Y0099500D01*
X0125931Y0109500D02*
X0131131Y0109500D01*
X0131131Y0119500D02*
X0125931Y0119500D01*
X0125931Y0129500D02*
X0131131Y0129500D01*
X0131131Y0139500D02*
X0125931Y0139500D01*
X0125931Y0149500D02*
X0131131Y0149500D01*
X0131131Y0159500D02*
X0125931Y0159500D01*
X0155931Y0159500D02*
X0161131Y0159500D01*
X0161131Y0149500D02*
X0155931Y0149500D01*
X0155931Y0139500D02*
X0161131Y0139500D01*
X0161131Y0129500D02*
X0155931Y0129500D01*
X0155931Y0119500D02*
X0161131Y0119500D01*
X0161131Y0109500D02*
X0155931Y0109500D01*
X0155931Y0099500D02*
X0161131Y0099500D01*
X0161131Y0089500D02*
X0155931Y0089500D01*
X0155931Y0079500D02*
X0161131Y0079500D01*
X0161131Y0069500D02*
X0155931Y0069500D01*
X0155931Y0059500D02*
X0161131Y0059500D01*
X0161131Y0049500D02*
X0155931Y0049500D01*
X0155931Y0039500D02*
X0161131Y0039500D01*
X0161131Y0029500D02*
X0155931Y0029500D01*
D15*
X0211031Y0069500D03*
X0211031Y0079500D03*
X0211031Y0089500D03*
X0211031Y0099500D03*
X0211031Y0109500D03*
X0211031Y0119500D03*
X0211031Y0129500D03*
X0208531Y0184500D03*
X0198531Y0184500D03*
X0188531Y0184500D03*
X0098531Y0114500D03*
X0088531Y0114500D03*
X0078531Y0114500D03*
X0078531Y0094500D03*
X0088531Y0094500D03*
X0098531Y0094500D03*
X0023531Y0089500D03*
X0023531Y0079500D03*
X0023531Y0069500D03*
X0023531Y0099500D03*
X0023531Y0109500D03*
X0023531Y0119500D03*
X0023531Y0129500D03*
X0026031Y0194500D03*
X0036031Y0194500D03*
X0046031Y0194500D03*
X0056031Y0194500D03*
X0066031Y0194500D03*
X0076031Y0194500D03*
D16*
X0178452Y0033299D03*
X0183177Y0030150D03*
X0178452Y0027000D03*
X0183177Y0023850D03*
X0178452Y0020701D03*
D17*
X0198531Y0012630D03*
X0198531Y0041370D03*
D18*
X0211031Y0139500D03*
X0023531Y0139500D03*
D19*
X0178531Y0099500D03*
D20*
X0188531Y0099500D03*
M02*
