G75*
%MOIN*%
%OFA0B0*%
%FSLAX25Y25*%
%IPPOS*%
%LPD*%
%AMOC8*
5,1,8,0,0,1.08239X$1,22.5*
%
%ADD10C,0.00000*%
%ADD11C,0.00600*%
%ADD12C,0.00400*%
%ADD13C,0.01000*%
%ADD14C,0.00500*%
%ADD15R,0.03400X0.02400*%
%ADD16C,0.00800*%
D10*
X0018531Y0004500D02*
X0018531Y0201350D01*
X0215381Y0201350D01*
X0215381Y0004500D01*
X0018531Y0004500D01*
D11*
X0021531Y0002500D02*
X0021531Y0026500D01*
X0065531Y0026500D01*
X0065531Y0002500D01*
X0021531Y0002500D01*
X0028531Y0008500D02*
X0028531Y0009000D01*
X0028531Y0008500D02*
X0030531Y0008500D01*
X0030531Y0009000D01*
X0030531Y0008500D02*
X0032531Y0008500D01*
X0032531Y0010500D01*
X0032531Y0008500D02*
X0034531Y0008500D01*
X0034531Y0020500D01*
X0032531Y0020500D01*
X0032531Y0018500D01*
X0032531Y0020500D02*
X0030531Y0020500D01*
X0030531Y0020000D01*
X0030531Y0020500D02*
X0028531Y0020500D01*
X0028531Y0020000D01*
X0034531Y0020500D02*
X0036531Y0020500D01*
X0038531Y0020500D01*
X0040531Y0020500D01*
X0058531Y0020500D01*
X0058531Y0020000D01*
X0058531Y0009000D02*
X0058531Y0008500D01*
X0040531Y0008500D01*
X0038531Y0008500D01*
X0036531Y0008500D01*
X0034531Y0008500D01*
X0036531Y0008500D02*
X0036531Y0020500D01*
X0038531Y0020500D02*
X0038531Y0017500D01*
X0040531Y0019500D02*
X0040531Y0020500D01*
X0038531Y0011500D02*
X0038531Y0008500D01*
X0040531Y0008500D02*
X0040531Y0009500D01*
X0063531Y0045500D02*
X0063685Y0045498D01*
X0063839Y0045492D01*
X0063993Y0045482D01*
X0064147Y0045468D01*
X0064300Y0045451D01*
X0064452Y0045429D01*
X0064604Y0045403D01*
X0064756Y0045374D01*
X0064906Y0045340D01*
X0065056Y0045303D01*
X0065204Y0045262D01*
X0065352Y0045217D01*
X0065498Y0045168D01*
X0065643Y0045116D01*
X0065786Y0045060D01*
X0065929Y0045000D01*
X0066069Y0044937D01*
X0066208Y0044870D01*
X0066345Y0044799D01*
X0066480Y0044725D01*
X0066613Y0044648D01*
X0066745Y0044567D01*
X0066874Y0044483D01*
X0067001Y0044395D01*
X0067125Y0044304D01*
X0067247Y0044211D01*
X0067367Y0044113D01*
X0067484Y0044013D01*
X0067599Y0043910D01*
X0067711Y0043804D01*
X0067820Y0043696D01*
X0067926Y0043584D01*
X0068030Y0043470D01*
X0068130Y0043353D01*
X0068228Y0043234D01*
X0068322Y0043112D01*
X0068413Y0042987D01*
X0063531Y0033500D02*
X0063379Y0033502D01*
X0063228Y0033508D01*
X0063077Y0033517D01*
X0062925Y0033531D01*
X0062775Y0033548D01*
X0062625Y0033569D01*
X0062475Y0033594D01*
X0062326Y0033622D01*
X0062178Y0033655D01*
X0062031Y0033691D01*
X0061884Y0033730D01*
X0061739Y0033774D01*
X0061595Y0033821D01*
X0061452Y0033872D01*
X0061311Y0033926D01*
X0061170Y0033984D01*
X0061032Y0034045D01*
X0060895Y0034110D01*
X0060759Y0034179D01*
X0060626Y0034250D01*
X0060494Y0034325D01*
X0060364Y0034404D01*
X0060237Y0034485D01*
X0060111Y0034570D01*
X0059987Y0034658D01*
X0059866Y0034749D01*
X0059747Y0034843D01*
X0059631Y0034941D01*
X0059517Y0035041D01*
X0059405Y0035143D01*
X0059297Y0035249D01*
X0059191Y0035357D01*
X0059087Y0035468D01*
X0058987Y0035582D01*
X0058889Y0035698D01*
X0058795Y0035817D01*
X0063531Y0033500D02*
X0063683Y0033502D01*
X0063834Y0033508D01*
X0063985Y0033517D01*
X0064137Y0033531D01*
X0064287Y0033548D01*
X0064437Y0033569D01*
X0064587Y0033594D01*
X0064736Y0033622D01*
X0064884Y0033655D01*
X0065031Y0033691D01*
X0065178Y0033730D01*
X0065323Y0033774D01*
X0065467Y0033821D01*
X0065610Y0033872D01*
X0065751Y0033926D01*
X0065892Y0033984D01*
X0066030Y0034045D01*
X0066167Y0034110D01*
X0066303Y0034179D01*
X0066436Y0034250D01*
X0066568Y0034325D01*
X0066698Y0034404D01*
X0066825Y0034485D01*
X0066951Y0034570D01*
X0067075Y0034658D01*
X0067196Y0034749D01*
X0067315Y0034843D01*
X0067431Y0034941D01*
X0067545Y0035041D01*
X0067657Y0035143D01*
X0067765Y0035249D01*
X0067871Y0035357D01*
X0067975Y0035468D01*
X0068075Y0035582D01*
X0068173Y0035698D01*
X0068267Y0035817D01*
X0063531Y0045500D02*
X0063381Y0045498D01*
X0063230Y0045492D01*
X0063080Y0045483D01*
X0062931Y0045470D01*
X0062781Y0045453D01*
X0062632Y0045432D01*
X0062484Y0045408D01*
X0062336Y0045380D01*
X0062189Y0045348D01*
X0062043Y0045313D01*
X0061898Y0045273D01*
X0061754Y0045231D01*
X0061611Y0045184D01*
X0061469Y0045134D01*
X0061328Y0045081D01*
X0061189Y0045024D01*
X0061051Y0044964D01*
X0060915Y0044900D01*
X0060781Y0044833D01*
X0060648Y0044762D01*
X0060517Y0044688D01*
X0060388Y0044611D01*
X0060261Y0044530D01*
X0060136Y0044447D01*
X0060013Y0044360D01*
X0059892Y0044271D01*
X0059774Y0044178D01*
X0059658Y0044082D01*
X0059544Y0043984D01*
X0059433Y0043883D01*
X0059324Y0043778D01*
X0059219Y0043672D01*
X0059115Y0043562D01*
X0059015Y0043450D01*
X0058917Y0043336D01*
X0058823Y0043219D01*
X0058731Y0043100D01*
X0067031Y0055000D02*
X0068531Y0055000D01*
X0069031Y0055500D01*
X0088031Y0055500D01*
X0088531Y0055000D01*
X0090031Y0055000D01*
X0090091Y0055002D01*
X0090152Y0055007D01*
X0090211Y0055016D01*
X0090270Y0055029D01*
X0090329Y0055045D01*
X0090386Y0055065D01*
X0090441Y0055088D01*
X0090496Y0055115D01*
X0090548Y0055144D01*
X0090599Y0055177D01*
X0090648Y0055213D01*
X0090694Y0055251D01*
X0090738Y0055293D01*
X0090780Y0055337D01*
X0090818Y0055383D01*
X0090854Y0055432D01*
X0090887Y0055483D01*
X0090916Y0055535D01*
X0090943Y0055590D01*
X0090966Y0055645D01*
X0090986Y0055702D01*
X0091002Y0055761D01*
X0091015Y0055820D01*
X0091024Y0055879D01*
X0091029Y0055940D01*
X0091031Y0056000D01*
X0091031Y0063000D01*
X0091029Y0063060D01*
X0091024Y0063121D01*
X0091015Y0063180D01*
X0091002Y0063239D01*
X0090986Y0063298D01*
X0090966Y0063355D01*
X0090943Y0063410D01*
X0090916Y0063465D01*
X0090887Y0063517D01*
X0090854Y0063568D01*
X0090818Y0063617D01*
X0090780Y0063663D01*
X0090738Y0063707D01*
X0090694Y0063749D01*
X0090648Y0063787D01*
X0090599Y0063823D01*
X0090548Y0063856D01*
X0090496Y0063885D01*
X0090441Y0063912D01*
X0090386Y0063935D01*
X0090329Y0063955D01*
X0090270Y0063971D01*
X0090211Y0063984D01*
X0090152Y0063993D01*
X0090091Y0063998D01*
X0090031Y0064000D01*
X0088531Y0064000D01*
X0088031Y0063500D01*
X0069031Y0063500D01*
X0068531Y0064000D01*
X0067031Y0064000D01*
X0066971Y0063998D01*
X0066910Y0063993D01*
X0066851Y0063984D01*
X0066792Y0063971D01*
X0066733Y0063955D01*
X0066676Y0063935D01*
X0066621Y0063912D01*
X0066566Y0063885D01*
X0066514Y0063856D01*
X0066463Y0063823D01*
X0066414Y0063787D01*
X0066368Y0063749D01*
X0066324Y0063707D01*
X0066282Y0063663D01*
X0066244Y0063617D01*
X0066208Y0063568D01*
X0066175Y0063517D01*
X0066146Y0063465D01*
X0066119Y0063410D01*
X0066096Y0063355D01*
X0066076Y0063298D01*
X0066060Y0063239D01*
X0066047Y0063180D01*
X0066038Y0063121D01*
X0066033Y0063060D01*
X0066031Y0063000D01*
X0066031Y0056000D01*
X0066033Y0055940D01*
X0066038Y0055879D01*
X0066047Y0055820D01*
X0066060Y0055761D01*
X0066076Y0055702D01*
X0066096Y0055645D01*
X0066119Y0055590D01*
X0066146Y0055535D01*
X0066175Y0055483D01*
X0066208Y0055432D01*
X0066244Y0055383D01*
X0066282Y0055337D01*
X0066324Y0055293D01*
X0066368Y0055251D01*
X0066414Y0055213D01*
X0066463Y0055177D01*
X0066514Y0055144D01*
X0066566Y0055115D01*
X0066621Y0055088D01*
X0066676Y0055065D01*
X0066733Y0055045D01*
X0066792Y0055029D01*
X0066851Y0055016D01*
X0066910Y0055007D01*
X0066971Y0055002D01*
X0067031Y0055000D01*
X0067031Y0070000D02*
X0068531Y0070000D01*
X0069031Y0070500D01*
X0088031Y0070500D01*
X0088531Y0070000D01*
X0090031Y0070000D01*
X0090091Y0070002D01*
X0090152Y0070007D01*
X0090211Y0070016D01*
X0090270Y0070029D01*
X0090329Y0070045D01*
X0090386Y0070065D01*
X0090441Y0070088D01*
X0090496Y0070115D01*
X0090548Y0070144D01*
X0090599Y0070177D01*
X0090648Y0070213D01*
X0090694Y0070251D01*
X0090738Y0070293D01*
X0090780Y0070337D01*
X0090818Y0070383D01*
X0090854Y0070432D01*
X0090887Y0070483D01*
X0090916Y0070535D01*
X0090943Y0070590D01*
X0090966Y0070645D01*
X0090986Y0070702D01*
X0091002Y0070761D01*
X0091015Y0070820D01*
X0091024Y0070879D01*
X0091029Y0070940D01*
X0091031Y0071000D01*
X0091031Y0078000D01*
X0091029Y0078060D01*
X0091024Y0078121D01*
X0091015Y0078180D01*
X0091002Y0078239D01*
X0090986Y0078298D01*
X0090966Y0078355D01*
X0090943Y0078410D01*
X0090916Y0078465D01*
X0090887Y0078517D01*
X0090854Y0078568D01*
X0090818Y0078617D01*
X0090780Y0078663D01*
X0090738Y0078707D01*
X0090694Y0078749D01*
X0090648Y0078787D01*
X0090599Y0078823D01*
X0090548Y0078856D01*
X0090496Y0078885D01*
X0090441Y0078912D01*
X0090386Y0078935D01*
X0090329Y0078955D01*
X0090270Y0078971D01*
X0090211Y0078984D01*
X0090152Y0078993D01*
X0090091Y0078998D01*
X0090031Y0079000D01*
X0088531Y0079000D01*
X0088031Y0078500D01*
X0069031Y0078500D01*
X0068531Y0079000D01*
X0067031Y0079000D01*
X0066971Y0078998D01*
X0066910Y0078993D01*
X0066851Y0078984D01*
X0066792Y0078971D01*
X0066733Y0078955D01*
X0066676Y0078935D01*
X0066621Y0078912D01*
X0066566Y0078885D01*
X0066514Y0078856D01*
X0066463Y0078823D01*
X0066414Y0078787D01*
X0066368Y0078749D01*
X0066324Y0078707D01*
X0066282Y0078663D01*
X0066244Y0078617D01*
X0066208Y0078568D01*
X0066175Y0078517D01*
X0066146Y0078465D01*
X0066119Y0078410D01*
X0066096Y0078355D01*
X0066076Y0078298D01*
X0066060Y0078239D01*
X0066047Y0078180D01*
X0066038Y0078121D01*
X0066033Y0078060D01*
X0066031Y0078000D01*
X0066031Y0071000D01*
X0066033Y0070940D01*
X0066038Y0070879D01*
X0066047Y0070820D01*
X0066060Y0070761D01*
X0066076Y0070702D01*
X0066096Y0070645D01*
X0066119Y0070590D01*
X0066146Y0070535D01*
X0066175Y0070483D01*
X0066208Y0070432D01*
X0066244Y0070383D01*
X0066282Y0070337D01*
X0066324Y0070293D01*
X0066368Y0070251D01*
X0066414Y0070213D01*
X0066463Y0070177D01*
X0066514Y0070144D01*
X0066566Y0070115D01*
X0066621Y0070088D01*
X0066676Y0070065D01*
X0066733Y0070045D01*
X0066792Y0070029D01*
X0066851Y0070016D01*
X0066910Y0070007D01*
X0066971Y0070002D01*
X0067031Y0070000D01*
X0057031Y0079500D02*
X0040031Y0079500D01*
X0039971Y0079502D01*
X0039910Y0079507D01*
X0039851Y0079516D01*
X0039792Y0079529D01*
X0039733Y0079545D01*
X0039676Y0079565D01*
X0039621Y0079588D01*
X0039566Y0079615D01*
X0039514Y0079644D01*
X0039463Y0079677D01*
X0039414Y0079713D01*
X0039368Y0079751D01*
X0039324Y0079793D01*
X0039282Y0079837D01*
X0039244Y0079883D01*
X0039208Y0079932D01*
X0039175Y0079983D01*
X0039146Y0080035D01*
X0039119Y0080090D01*
X0039096Y0080145D01*
X0039076Y0080202D01*
X0039060Y0080261D01*
X0039047Y0080320D01*
X0039038Y0080379D01*
X0039033Y0080440D01*
X0039031Y0080500D01*
X0039031Y0088500D01*
X0039033Y0088560D01*
X0039038Y0088621D01*
X0039047Y0088680D01*
X0039060Y0088739D01*
X0039076Y0088798D01*
X0039096Y0088855D01*
X0039119Y0088910D01*
X0039146Y0088965D01*
X0039175Y0089017D01*
X0039208Y0089068D01*
X0039244Y0089117D01*
X0039282Y0089163D01*
X0039324Y0089207D01*
X0039368Y0089249D01*
X0039414Y0089287D01*
X0039463Y0089323D01*
X0039514Y0089356D01*
X0039566Y0089385D01*
X0039621Y0089412D01*
X0039676Y0089435D01*
X0039733Y0089455D01*
X0039792Y0089471D01*
X0039851Y0089484D01*
X0039910Y0089493D01*
X0039971Y0089498D01*
X0040031Y0089500D01*
X0057031Y0089500D01*
X0057091Y0089498D01*
X0057152Y0089493D01*
X0057211Y0089484D01*
X0057270Y0089471D01*
X0057329Y0089455D01*
X0057386Y0089435D01*
X0057441Y0089412D01*
X0057496Y0089385D01*
X0057548Y0089356D01*
X0057599Y0089323D01*
X0057648Y0089287D01*
X0057694Y0089249D01*
X0057738Y0089207D01*
X0057780Y0089163D01*
X0057818Y0089117D01*
X0057854Y0089068D01*
X0057887Y0089017D01*
X0057916Y0088965D01*
X0057943Y0088910D01*
X0057966Y0088855D01*
X0057986Y0088798D01*
X0058002Y0088739D01*
X0058015Y0088680D01*
X0058024Y0088621D01*
X0058029Y0088560D01*
X0058031Y0088500D01*
X0058031Y0080500D01*
X0058029Y0080440D01*
X0058024Y0080379D01*
X0058015Y0080320D01*
X0058002Y0080261D01*
X0057986Y0080202D01*
X0057966Y0080145D01*
X0057943Y0080090D01*
X0057916Y0080035D01*
X0057887Y0079983D01*
X0057854Y0079932D01*
X0057818Y0079883D01*
X0057780Y0079837D01*
X0057738Y0079793D01*
X0057694Y0079751D01*
X0057648Y0079713D01*
X0057599Y0079677D01*
X0057548Y0079644D01*
X0057496Y0079615D01*
X0057441Y0079588D01*
X0057386Y0079565D01*
X0057329Y0079545D01*
X0057270Y0079529D01*
X0057211Y0079516D01*
X0057152Y0079507D01*
X0057091Y0079502D01*
X0057031Y0079500D01*
X0050031Y0084500D02*
X0049531Y0084500D01*
X0047531Y0084500D02*
X0047031Y0084500D01*
X0040031Y0122000D02*
X0057031Y0122000D01*
X0057091Y0122002D01*
X0057152Y0122007D01*
X0057211Y0122016D01*
X0057270Y0122029D01*
X0057329Y0122045D01*
X0057386Y0122065D01*
X0057441Y0122088D01*
X0057496Y0122115D01*
X0057548Y0122144D01*
X0057599Y0122177D01*
X0057648Y0122213D01*
X0057694Y0122251D01*
X0057738Y0122293D01*
X0057780Y0122337D01*
X0057818Y0122383D01*
X0057854Y0122432D01*
X0057887Y0122483D01*
X0057916Y0122535D01*
X0057943Y0122590D01*
X0057966Y0122645D01*
X0057986Y0122702D01*
X0058002Y0122761D01*
X0058015Y0122820D01*
X0058024Y0122879D01*
X0058029Y0122940D01*
X0058031Y0123000D01*
X0058031Y0131000D01*
X0058029Y0131060D01*
X0058024Y0131121D01*
X0058015Y0131180D01*
X0058002Y0131239D01*
X0057986Y0131298D01*
X0057966Y0131355D01*
X0057943Y0131410D01*
X0057916Y0131465D01*
X0057887Y0131517D01*
X0057854Y0131568D01*
X0057818Y0131617D01*
X0057780Y0131663D01*
X0057738Y0131707D01*
X0057694Y0131749D01*
X0057648Y0131787D01*
X0057599Y0131823D01*
X0057548Y0131856D01*
X0057496Y0131885D01*
X0057441Y0131912D01*
X0057386Y0131935D01*
X0057329Y0131955D01*
X0057270Y0131971D01*
X0057211Y0131984D01*
X0057152Y0131993D01*
X0057091Y0131998D01*
X0057031Y0132000D01*
X0040031Y0132000D01*
X0039971Y0131998D01*
X0039910Y0131993D01*
X0039851Y0131984D01*
X0039792Y0131971D01*
X0039733Y0131955D01*
X0039676Y0131935D01*
X0039621Y0131912D01*
X0039566Y0131885D01*
X0039514Y0131856D01*
X0039463Y0131823D01*
X0039414Y0131787D01*
X0039368Y0131749D01*
X0039324Y0131707D01*
X0039282Y0131663D01*
X0039244Y0131617D01*
X0039208Y0131568D01*
X0039175Y0131517D01*
X0039146Y0131465D01*
X0039119Y0131410D01*
X0039096Y0131355D01*
X0039076Y0131298D01*
X0039060Y0131239D01*
X0039047Y0131180D01*
X0039038Y0131121D01*
X0039033Y0131060D01*
X0039031Y0131000D01*
X0039031Y0123000D01*
X0039033Y0122940D01*
X0039038Y0122879D01*
X0039047Y0122820D01*
X0039060Y0122761D01*
X0039076Y0122702D01*
X0039096Y0122645D01*
X0039119Y0122590D01*
X0039146Y0122535D01*
X0039175Y0122483D01*
X0039208Y0122432D01*
X0039244Y0122383D01*
X0039282Y0122337D01*
X0039324Y0122293D01*
X0039368Y0122251D01*
X0039414Y0122213D01*
X0039463Y0122177D01*
X0039514Y0122144D01*
X0039566Y0122115D01*
X0039621Y0122088D01*
X0039676Y0122065D01*
X0039733Y0122045D01*
X0039792Y0122029D01*
X0039851Y0122016D01*
X0039910Y0122007D01*
X0039971Y0122002D01*
X0040031Y0122000D01*
X0047031Y0127000D02*
X0047531Y0127000D01*
X0049531Y0127000D02*
X0050031Y0127000D01*
X0072531Y0154500D02*
X0089531Y0154500D01*
X0089591Y0154502D01*
X0089652Y0154507D01*
X0089711Y0154516D01*
X0089770Y0154529D01*
X0089829Y0154545D01*
X0089886Y0154565D01*
X0089941Y0154588D01*
X0089996Y0154615D01*
X0090048Y0154644D01*
X0090099Y0154677D01*
X0090148Y0154713D01*
X0090194Y0154751D01*
X0090238Y0154793D01*
X0090280Y0154837D01*
X0090318Y0154883D01*
X0090354Y0154932D01*
X0090387Y0154983D01*
X0090416Y0155035D01*
X0090443Y0155090D01*
X0090466Y0155145D01*
X0090486Y0155202D01*
X0090502Y0155261D01*
X0090515Y0155320D01*
X0090524Y0155379D01*
X0090529Y0155440D01*
X0090531Y0155500D01*
X0090531Y0163500D01*
X0090529Y0163560D01*
X0090524Y0163621D01*
X0090515Y0163680D01*
X0090502Y0163739D01*
X0090486Y0163798D01*
X0090466Y0163855D01*
X0090443Y0163910D01*
X0090416Y0163965D01*
X0090387Y0164017D01*
X0090354Y0164068D01*
X0090318Y0164117D01*
X0090280Y0164163D01*
X0090238Y0164207D01*
X0090194Y0164249D01*
X0090148Y0164287D01*
X0090099Y0164323D01*
X0090048Y0164356D01*
X0089996Y0164385D01*
X0089941Y0164412D01*
X0089886Y0164435D01*
X0089829Y0164455D01*
X0089770Y0164471D01*
X0089711Y0164484D01*
X0089652Y0164493D01*
X0089591Y0164498D01*
X0089531Y0164500D01*
X0072531Y0164500D01*
X0072471Y0164498D01*
X0072410Y0164493D01*
X0072351Y0164484D01*
X0072292Y0164471D01*
X0072233Y0164455D01*
X0072176Y0164435D01*
X0072121Y0164412D01*
X0072066Y0164385D01*
X0072014Y0164356D01*
X0071963Y0164323D01*
X0071914Y0164287D01*
X0071868Y0164249D01*
X0071824Y0164207D01*
X0071782Y0164163D01*
X0071744Y0164117D01*
X0071708Y0164068D01*
X0071675Y0164017D01*
X0071646Y0163965D01*
X0071619Y0163910D01*
X0071596Y0163855D01*
X0071576Y0163798D01*
X0071560Y0163739D01*
X0071547Y0163680D01*
X0071538Y0163621D01*
X0071533Y0163560D01*
X0071531Y0163500D01*
X0071531Y0155500D01*
X0071533Y0155440D01*
X0071538Y0155379D01*
X0071547Y0155320D01*
X0071560Y0155261D01*
X0071576Y0155202D01*
X0071596Y0155145D01*
X0071619Y0155090D01*
X0071646Y0155035D01*
X0071675Y0154983D01*
X0071708Y0154932D01*
X0071744Y0154883D01*
X0071782Y0154837D01*
X0071824Y0154793D01*
X0071868Y0154751D01*
X0071914Y0154713D01*
X0071963Y0154677D01*
X0072014Y0154644D01*
X0072066Y0154615D01*
X0072121Y0154588D01*
X0072176Y0154565D01*
X0072233Y0154545D01*
X0072292Y0154529D01*
X0072351Y0154516D01*
X0072410Y0154507D01*
X0072471Y0154502D01*
X0072531Y0154500D01*
X0079531Y0159500D02*
X0080031Y0159500D01*
X0082031Y0159500D02*
X0082531Y0159500D01*
X0076031Y0172500D02*
X0074531Y0172500D01*
X0074471Y0172502D01*
X0074410Y0172507D01*
X0074351Y0172516D01*
X0074292Y0172529D01*
X0074233Y0172545D01*
X0074176Y0172565D01*
X0074121Y0172588D01*
X0074066Y0172615D01*
X0074014Y0172644D01*
X0073963Y0172677D01*
X0073914Y0172713D01*
X0073868Y0172751D01*
X0073824Y0172793D01*
X0073782Y0172837D01*
X0073744Y0172883D01*
X0073708Y0172932D01*
X0073675Y0172983D01*
X0073646Y0173035D01*
X0073619Y0173090D01*
X0073596Y0173145D01*
X0073576Y0173202D01*
X0073560Y0173261D01*
X0073547Y0173320D01*
X0073538Y0173379D01*
X0073533Y0173440D01*
X0073531Y0173500D01*
X0073531Y0180500D01*
X0073533Y0180560D01*
X0073538Y0180621D01*
X0073547Y0180680D01*
X0073560Y0180739D01*
X0073576Y0180798D01*
X0073596Y0180855D01*
X0073619Y0180910D01*
X0073646Y0180965D01*
X0073675Y0181017D01*
X0073708Y0181068D01*
X0073744Y0181117D01*
X0073782Y0181163D01*
X0073824Y0181207D01*
X0073868Y0181249D01*
X0073914Y0181287D01*
X0073963Y0181323D01*
X0074014Y0181356D01*
X0074066Y0181385D01*
X0074121Y0181412D01*
X0074176Y0181435D01*
X0074233Y0181455D01*
X0074292Y0181471D01*
X0074351Y0181484D01*
X0074410Y0181493D01*
X0074471Y0181498D01*
X0074531Y0181500D01*
X0076031Y0181500D01*
X0076531Y0181000D01*
X0095531Y0181000D01*
X0096031Y0181500D01*
X0097531Y0181500D01*
X0097591Y0181498D01*
X0097652Y0181493D01*
X0097711Y0181484D01*
X0097770Y0181471D01*
X0097829Y0181455D01*
X0097886Y0181435D01*
X0097941Y0181412D01*
X0097996Y0181385D01*
X0098048Y0181356D01*
X0098099Y0181323D01*
X0098148Y0181287D01*
X0098194Y0181249D01*
X0098238Y0181207D01*
X0098280Y0181163D01*
X0098318Y0181117D01*
X0098354Y0181068D01*
X0098387Y0181017D01*
X0098416Y0180965D01*
X0098443Y0180910D01*
X0098466Y0180855D01*
X0098486Y0180798D01*
X0098502Y0180739D01*
X0098515Y0180680D01*
X0098524Y0180621D01*
X0098529Y0180560D01*
X0098531Y0180500D01*
X0098531Y0173500D01*
X0098529Y0173440D01*
X0098524Y0173379D01*
X0098515Y0173320D01*
X0098502Y0173261D01*
X0098486Y0173202D01*
X0098466Y0173145D01*
X0098443Y0173090D01*
X0098416Y0173035D01*
X0098387Y0172983D01*
X0098354Y0172932D01*
X0098318Y0172883D01*
X0098280Y0172837D01*
X0098238Y0172793D01*
X0098194Y0172751D01*
X0098148Y0172713D01*
X0098099Y0172677D01*
X0098048Y0172644D01*
X0097996Y0172615D01*
X0097941Y0172588D01*
X0097886Y0172565D01*
X0097829Y0172545D01*
X0097770Y0172529D01*
X0097711Y0172516D01*
X0097652Y0172507D01*
X0097591Y0172502D01*
X0097531Y0172500D01*
X0096031Y0172500D01*
X0095531Y0173000D01*
X0076531Y0173000D01*
X0076031Y0172500D01*
X0121331Y0169070D02*
X0123466Y0171205D01*
X0123466Y0164800D01*
X0121331Y0164800D02*
X0125601Y0164800D01*
X0132031Y0164500D02*
X0139531Y0164500D01*
X0139533Y0164374D01*
X0139539Y0164249D01*
X0139549Y0164124D01*
X0139563Y0163999D01*
X0139580Y0163874D01*
X0139602Y0163750D01*
X0139627Y0163627D01*
X0139657Y0163505D01*
X0139690Y0163384D01*
X0139727Y0163264D01*
X0139767Y0163145D01*
X0139812Y0163028D01*
X0139860Y0162911D01*
X0139912Y0162797D01*
X0139967Y0162684D01*
X0140026Y0162573D01*
X0140088Y0162464D01*
X0140154Y0162357D01*
X0140223Y0162252D01*
X0140295Y0162149D01*
X0140370Y0162048D01*
X0140449Y0161950D01*
X0140531Y0161855D01*
X0140615Y0161762D01*
X0140703Y0161672D01*
X0140793Y0161584D01*
X0140886Y0161500D01*
X0140981Y0161418D01*
X0141079Y0161339D01*
X0141180Y0161264D01*
X0141283Y0161192D01*
X0141388Y0161123D01*
X0141495Y0161057D01*
X0141604Y0160995D01*
X0141715Y0160936D01*
X0141828Y0160881D01*
X0141942Y0160829D01*
X0142059Y0160781D01*
X0142176Y0160736D01*
X0142295Y0160696D01*
X0142415Y0160659D01*
X0142536Y0160626D01*
X0142658Y0160596D01*
X0142781Y0160571D01*
X0142905Y0160549D01*
X0143030Y0160532D01*
X0143155Y0160518D01*
X0143280Y0160508D01*
X0143405Y0160502D01*
X0143531Y0160500D01*
X0143657Y0160502D01*
X0143782Y0160508D01*
X0143907Y0160518D01*
X0144032Y0160532D01*
X0144157Y0160549D01*
X0144281Y0160571D01*
X0144404Y0160596D01*
X0144526Y0160626D01*
X0144647Y0160659D01*
X0144767Y0160696D01*
X0144886Y0160736D01*
X0145003Y0160781D01*
X0145120Y0160829D01*
X0145234Y0160881D01*
X0145347Y0160936D01*
X0145458Y0160995D01*
X0145567Y0161057D01*
X0145674Y0161123D01*
X0145779Y0161192D01*
X0145882Y0161264D01*
X0145983Y0161339D01*
X0146081Y0161418D01*
X0146176Y0161500D01*
X0146269Y0161584D01*
X0146359Y0161672D01*
X0146447Y0161762D01*
X0146531Y0161855D01*
X0146613Y0161950D01*
X0146692Y0162048D01*
X0146767Y0162149D01*
X0146839Y0162252D01*
X0146908Y0162357D01*
X0146974Y0162464D01*
X0147036Y0162573D01*
X0147095Y0162684D01*
X0147150Y0162797D01*
X0147202Y0162911D01*
X0147250Y0163028D01*
X0147295Y0163145D01*
X0147335Y0163264D01*
X0147372Y0163384D01*
X0147405Y0163505D01*
X0147435Y0163627D01*
X0147460Y0163750D01*
X0147482Y0163874D01*
X0147499Y0163999D01*
X0147513Y0164124D01*
X0147523Y0164249D01*
X0147529Y0164374D01*
X0147531Y0164500D01*
X0155031Y0164500D01*
X0155031Y0024500D01*
X0132031Y0024500D01*
X0132031Y0164500D01*
X0161331Y0164800D02*
X0165601Y0169070D01*
X0165601Y0170138D01*
X0164534Y0171205D01*
X0162398Y0171205D01*
X0161331Y0170138D01*
X0161331Y0164800D02*
X0165601Y0164800D01*
X0167776Y0165868D02*
X0167776Y0166935D01*
X0168844Y0168003D01*
X0170979Y0168003D01*
X0172047Y0166935D01*
X0172047Y0165868D01*
X0170979Y0164800D01*
X0168844Y0164800D01*
X0167776Y0165868D01*
X0168844Y0168003D02*
X0167776Y0169070D01*
X0167776Y0170138D01*
X0168844Y0171205D01*
X0170979Y0171205D01*
X0172047Y0170138D01*
X0172047Y0169070D01*
X0170979Y0168003D01*
X0194031Y0168000D02*
X0194031Y0176000D01*
X0194033Y0176060D01*
X0194038Y0176121D01*
X0194047Y0176180D01*
X0194060Y0176239D01*
X0194076Y0176298D01*
X0194096Y0176355D01*
X0194119Y0176410D01*
X0194146Y0176465D01*
X0194175Y0176517D01*
X0194208Y0176568D01*
X0194244Y0176617D01*
X0194282Y0176663D01*
X0194324Y0176707D01*
X0194368Y0176749D01*
X0194414Y0176787D01*
X0194463Y0176823D01*
X0194514Y0176856D01*
X0194566Y0176885D01*
X0194621Y0176912D01*
X0194676Y0176935D01*
X0194733Y0176955D01*
X0194792Y0176971D01*
X0194851Y0176984D01*
X0194910Y0176993D01*
X0194971Y0176998D01*
X0195031Y0177000D01*
X0212031Y0177000D01*
X0212091Y0176998D01*
X0212152Y0176993D01*
X0212211Y0176984D01*
X0212270Y0176971D01*
X0212329Y0176955D01*
X0212386Y0176935D01*
X0212441Y0176912D01*
X0212496Y0176885D01*
X0212548Y0176856D01*
X0212599Y0176823D01*
X0212648Y0176787D01*
X0212694Y0176749D01*
X0212738Y0176707D01*
X0212780Y0176663D01*
X0212818Y0176617D01*
X0212854Y0176568D01*
X0212887Y0176517D01*
X0212916Y0176465D01*
X0212943Y0176410D01*
X0212966Y0176355D01*
X0212986Y0176298D01*
X0213002Y0176239D01*
X0213015Y0176180D01*
X0213024Y0176121D01*
X0213029Y0176060D01*
X0213031Y0176000D01*
X0213031Y0168000D01*
X0213029Y0167940D01*
X0213024Y0167879D01*
X0213015Y0167820D01*
X0213002Y0167761D01*
X0212986Y0167702D01*
X0212966Y0167645D01*
X0212943Y0167590D01*
X0212916Y0167535D01*
X0212887Y0167483D01*
X0212854Y0167432D01*
X0212818Y0167383D01*
X0212780Y0167337D01*
X0212738Y0167293D01*
X0212694Y0167251D01*
X0212648Y0167213D01*
X0212599Y0167177D01*
X0212548Y0167144D01*
X0212496Y0167115D01*
X0212441Y0167088D01*
X0212386Y0167065D01*
X0212329Y0167045D01*
X0212270Y0167029D01*
X0212211Y0167016D01*
X0212152Y0167007D01*
X0212091Y0167002D01*
X0212031Y0167000D01*
X0195031Y0167000D01*
X0194971Y0167002D01*
X0194910Y0167007D01*
X0194851Y0167016D01*
X0194792Y0167029D01*
X0194733Y0167045D01*
X0194676Y0167065D01*
X0194621Y0167088D01*
X0194566Y0167115D01*
X0194514Y0167144D01*
X0194463Y0167177D01*
X0194414Y0167213D01*
X0194368Y0167251D01*
X0194324Y0167293D01*
X0194282Y0167337D01*
X0194244Y0167383D01*
X0194208Y0167432D01*
X0194175Y0167483D01*
X0194146Y0167535D01*
X0194119Y0167590D01*
X0194096Y0167645D01*
X0194076Y0167702D01*
X0194060Y0167761D01*
X0194047Y0167820D01*
X0194038Y0167879D01*
X0194033Y0167940D01*
X0194031Y0168000D01*
X0195031Y0164500D02*
X0212031Y0164500D01*
X0212091Y0164498D01*
X0212152Y0164493D01*
X0212211Y0164484D01*
X0212270Y0164471D01*
X0212329Y0164455D01*
X0212386Y0164435D01*
X0212441Y0164412D01*
X0212496Y0164385D01*
X0212548Y0164356D01*
X0212599Y0164323D01*
X0212648Y0164287D01*
X0212694Y0164249D01*
X0212738Y0164207D01*
X0212780Y0164163D01*
X0212818Y0164117D01*
X0212854Y0164068D01*
X0212887Y0164017D01*
X0212916Y0163965D01*
X0212943Y0163910D01*
X0212966Y0163855D01*
X0212986Y0163798D01*
X0213002Y0163739D01*
X0213015Y0163680D01*
X0213024Y0163621D01*
X0213029Y0163560D01*
X0213031Y0163500D01*
X0213031Y0155500D01*
X0213029Y0155440D01*
X0213024Y0155379D01*
X0213015Y0155320D01*
X0213002Y0155261D01*
X0212986Y0155202D01*
X0212966Y0155145D01*
X0212943Y0155090D01*
X0212916Y0155035D01*
X0212887Y0154983D01*
X0212854Y0154932D01*
X0212818Y0154883D01*
X0212780Y0154837D01*
X0212738Y0154793D01*
X0212694Y0154751D01*
X0212648Y0154713D01*
X0212599Y0154677D01*
X0212548Y0154644D01*
X0212496Y0154615D01*
X0212441Y0154588D01*
X0212386Y0154565D01*
X0212329Y0154545D01*
X0212270Y0154529D01*
X0212211Y0154516D01*
X0212152Y0154507D01*
X0212091Y0154502D01*
X0212031Y0154500D01*
X0195031Y0154500D01*
X0194971Y0154502D01*
X0194910Y0154507D01*
X0194851Y0154516D01*
X0194792Y0154529D01*
X0194733Y0154545D01*
X0194676Y0154565D01*
X0194621Y0154588D01*
X0194566Y0154615D01*
X0194514Y0154644D01*
X0194463Y0154677D01*
X0194414Y0154713D01*
X0194368Y0154751D01*
X0194324Y0154793D01*
X0194282Y0154837D01*
X0194244Y0154883D01*
X0194208Y0154932D01*
X0194175Y0154983D01*
X0194146Y0155035D01*
X0194119Y0155090D01*
X0194096Y0155145D01*
X0194076Y0155202D01*
X0194060Y0155261D01*
X0194047Y0155320D01*
X0194038Y0155379D01*
X0194033Y0155440D01*
X0194031Y0155500D01*
X0194031Y0163500D01*
X0194033Y0163560D01*
X0194038Y0163621D01*
X0194047Y0163680D01*
X0194060Y0163739D01*
X0194076Y0163798D01*
X0194096Y0163855D01*
X0194119Y0163910D01*
X0194146Y0163965D01*
X0194175Y0164017D01*
X0194208Y0164068D01*
X0194244Y0164117D01*
X0194282Y0164163D01*
X0194324Y0164207D01*
X0194368Y0164249D01*
X0194414Y0164287D01*
X0194463Y0164323D01*
X0194514Y0164356D01*
X0194566Y0164385D01*
X0194621Y0164412D01*
X0194676Y0164435D01*
X0194733Y0164455D01*
X0194792Y0164471D01*
X0194851Y0164484D01*
X0194910Y0164493D01*
X0194971Y0164498D01*
X0195031Y0164500D01*
X0202031Y0159500D02*
X0202531Y0159500D01*
X0204531Y0159500D02*
X0205031Y0159500D01*
X0205031Y0172000D02*
X0204531Y0172000D01*
X0202531Y0172000D02*
X0202031Y0172000D01*
X0191531Y0108500D02*
X0177031Y0108500D01*
X0174031Y0105500D01*
X0174031Y0093500D01*
X0177031Y0090500D01*
X0191531Y0090500D01*
X0191607Y0090502D01*
X0191683Y0090508D01*
X0191758Y0090517D01*
X0191833Y0090531D01*
X0191907Y0090548D01*
X0191980Y0090569D01*
X0192052Y0090593D01*
X0192123Y0090622D01*
X0192192Y0090653D01*
X0192259Y0090688D01*
X0192324Y0090727D01*
X0192388Y0090769D01*
X0192449Y0090814D01*
X0192508Y0090862D01*
X0192564Y0090913D01*
X0192618Y0090967D01*
X0192669Y0091023D01*
X0192717Y0091082D01*
X0192762Y0091143D01*
X0192804Y0091207D01*
X0192843Y0091272D01*
X0192878Y0091339D01*
X0192909Y0091408D01*
X0192938Y0091479D01*
X0192962Y0091551D01*
X0192983Y0091624D01*
X0193000Y0091698D01*
X0193014Y0091773D01*
X0193023Y0091848D01*
X0193029Y0091924D01*
X0193031Y0092000D01*
X0193031Y0107000D01*
X0193029Y0107076D01*
X0193023Y0107152D01*
X0193014Y0107227D01*
X0193000Y0107302D01*
X0192983Y0107376D01*
X0192962Y0107449D01*
X0192938Y0107521D01*
X0192909Y0107592D01*
X0192878Y0107661D01*
X0192843Y0107728D01*
X0192804Y0107793D01*
X0192762Y0107857D01*
X0192717Y0107918D01*
X0192669Y0107977D01*
X0192618Y0108033D01*
X0192564Y0108087D01*
X0192508Y0108138D01*
X0192449Y0108186D01*
X0192388Y0108231D01*
X0192324Y0108273D01*
X0192259Y0108312D01*
X0192192Y0108347D01*
X0192123Y0108378D01*
X0192052Y0108407D01*
X0191980Y0108431D01*
X0191907Y0108452D01*
X0191833Y0108469D01*
X0191758Y0108483D01*
X0191683Y0108492D01*
X0191607Y0108498D01*
X0191531Y0108500D01*
X0177831Y0104900D02*
X0175231Y0104900D01*
X0176531Y0106100D02*
X0176531Y0103600D01*
X0103031Y0043500D02*
X0103031Y0035500D01*
X0103029Y0035440D01*
X0103024Y0035379D01*
X0103015Y0035320D01*
X0103002Y0035261D01*
X0102986Y0035202D01*
X0102966Y0035145D01*
X0102943Y0035090D01*
X0102916Y0035035D01*
X0102887Y0034983D01*
X0102854Y0034932D01*
X0102818Y0034883D01*
X0102780Y0034837D01*
X0102738Y0034793D01*
X0102694Y0034751D01*
X0102648Y0034713D01*
X0102599Y0034677D01*
X0102548Y0034644D01*
X0102496Y0034615D01*
X0102441Y0034588D01*
X0102386Y0034565D01*
X0102329Y0034545D01*
X0102270Y0034529D01*
X0102211Y0034516D01*
X0102152Y0034507D01*
X0102091Y0034502D01*
X0102031Y0034500D01*
X0085031Y0034500D01*
X0084971Y0034502D01*
X0084910Y0034507D01*
X0084851Y0034516D01*
X0084792Y0034529D01*
X0084733Y0034545D01*
X0084676Y0034565D01*
X0084621Y0034588D01*
X0084566Y0034615D01*
X0084514Y0034644D01*
X0084463Y0034677D01*
X0084414Y0034713D01*
X0084368Y0034751D01*
X0084324Y0034793D01*
X0084282Y0034837D01*
X0084244Y0034883D01*
X0084208Y0034932D01*
X0084175Y0034983D01*
X0084146Y0035035D01*
X0084119Y0035090D01*
X0084096Y0035145D01*
X0084076Y0035202D01*
X0084060Y0035261D01*
X0084047Y0035320D01*
X0084038Y0035379D01*
X0084033Y0035440D01*
X0084031Y0035500D01*
X0084031Y0043500D01*
X0084033Y0043560D01*
X0084038Y0043621D01*
X0084047Y0043680D01*
X0084060Y0043739D01*
X0084076Y0043798D01*
X0084096Y0043855D01*
X0084119Y0043910D01*
X0084146Y0043965D01*
X0084175Y0044017D01*
X0084208Y0044068D01*
X0084244Y0044117D01*
X0084282Y0044163D01*
X0084324Y0044207D01*
X0084368Y0044249D01*
X0084414Y0044287D01*
X0084463Y0044323D01*
X0084514Y0044356D01*
X0084566Y0044385D01*
X0084621Y0044412D01*
X0084676Y0044435D01*
X0084733Y0044455D01*
X0084792Y0044471D01*
X0084851Y0044484D01*
X0084910Y0044493D01*
X0084971Y0044498D01*
X0085031Y0044500D01*
X0102031Y0044500D01*
X0102091Y0044498D01*
X0102152Y0044493D01*
X0102211Y0044484D01*
X0102270Y0044471D01*
X0102329Y0044455D01*
X0102386Y0044435D01*
X0102441Y0044412D01*
X0102496Y0044385D01*
X0102548Y0044356D01*
X0102599Y0044323D01*
X0102648Y0044287D01*
X0102694Y0044249D01*
X0102738Y0044207D01*
X0102780Y0044163D01*
X0102818Y0044117D01*
X0102854Y0044068D01*
X0102887Y0044017D01*
X0102916Y0043965D01*
X0102943Y0043910D01*
X0102966Y0043855D01*
X0102986Y0043798D01*
X0103002Y0043739D01*
X0103015Y0043680D01*
X0103024Y0043621D01*
X0103029Y0043560D01*
X0103031Y0043500D01*
X0095031Y0039500D02*
X0094531Y0039500D01*
X0092531Y0039500D02*
X0092031Y0039500D01*
X0113831Y0029070D02*
X0115966Y0031205D01*
X0115966Y0024800D01*
X0113831Y0024800D02*
X0118101Y0024800D01*
X0120276Y0028003D02*
X0124547Y0028003D01*
X0123479Y0031205D02*
X0120276Y0028003D01*
X0123479Y0024800D02*
X0123479Y0031205D01*
X0132031Y0014000D02*
X0133531Y0014000D01*
X0134031Y0013500D01*
X0153031Y0013500D01*
X0153531Y0014000D01*
X0155031Y0014000D01*
X0155091Y0013998D01*
X0155152Y0013993D01*
X0155211Y0013984D01*
X0155270Y0013971D01*
X0155329Y0013955D01*
X0155386Y0013935D01*
X0155441Y0013912D01*
X0155496Y0013885D01*
X0155548Y0013856D01*
X0155599Y0013823D01*
X0155648Y0013787D01*
X0155694Y0013749D01*
X0155738Y0013707D01*
X0155780Y0013663D01*
X0155818Y0013617D01*
X0155854Y0013568D01*
X0155887Y0013517D01*
X0155916Y0013465D01*
X0155943Y0013410D01*
X0155966Y0013355D01*
X0155986Y0013298D01*
X0156002Y0013239D01*
X0156015Y0013180D01*
X0156024Y0013121D01*
X0156029Y0013060D01*
X0156031Y0013000D01*
X0156031Y0006000D01*
X0156029Y0005940D01*
X0156024Y0005879D01*
X0156015Y0005820D01*
X0156002Y0005761D01*
X0155986Y0005702D01*
X0155966Y0005645D01*
X0155943Y0005590D01*
X0155916Y0005535D01*
X0155887Y0005483D01*
X0155854Y0005432D01*
X0155818Y0005383D01*
X0155780Y0005337D01*
X0155738Y0005293D01*
X0155694Y0005251D01*
X0155648Y0005213D01*
X0155599Y0005177D01*
X0155548Y0005144D01*
X0155496Y0005115D01*
X0155441Y0005088D01*
X0155386Y0005065D01*
X0155329Y0005045D01*
X0155270Y0005029D01*
X0155211Y0005016D01*
X0155152Y0005007D01*
X0155091Y0005002D01*
X0155031Y0005000D01*
X0153531Y0005000D01*
X0153031Y0005500D01*
X0134031Y0005500D01*
X0133531Y0005000D01*
X0132031Y0005000D01*
X0131971Y0005002D01*
X0131910Y0005007D01*
X0131851Y0005016D01*
X0131792Y0005029D01*
X0131733Y0005045D01*
X0131676Y0005065D01*
X0131621Y0005088D01*
X0131566Y0005115D01*
X0131514Y0005144D01*
X0131463Y0005177D01*
X0131414Y0005213D01*
X0131368Y0005251D01*
X0131324Y0005293D01*
X0131282Y0005337D01*
X0131244Y0005383D01*
X0131208Y0005432D01*
X0131175Y0005483D01*
X0131146Y0005535D01*
X0131119Y0005590D01*
X0131096Y0005645D01*
X0131076Y0005702D01*
X0131060Y0005761D01*
X0131047Y0005820D01*
X0131038Y0005879D01*
X0131033Y0005940D01*
X0131031Y0006000D01*
X0131031Y0013000D01*
X0131033Y0013060D01*
X0131038Y0013121D01*
X0131047Y0013180D01*
X0131060Y0013239D01*
X0131076Y0013298D01*
X0131096Y0013355D01*
X0131119Y0013410D01*
X0131146Y0013465D01*
X0131175Y0013517D01*
X0131208Y0013568D01*
X0131244Y0013617D01*
X0131282Y0013663D01*
X0131324Y0013707D01*
X0131368Y0013749D01*
X0131414Y0013787D01*
X0131463Y0013823D01*
X0131514Y0013856D01*
X0131566Y0013885D01*
X0131621Y0013912D01*
X0131676Y0013935D01*
X0131733Y0013955D01*
X0131792Y0013971D01*
X0131851Y0013984D01*
X0131910Y0013993D01*
X0131971Y0013998D01*
X0132031Y0014000D01*
X0108531Y0003500D02*
X0108379Y0003502D01*
X0108228Y0003508D01*
X0108077Y0003517D01*
X0107925Y0003531D01*
X0107775Y0003548D01*
X0107625Y0003569D01*
X0107475Y0003594D01*
X0107326Y0003622D01*
X0107178Y0003655D01*
X0107031Y0003691D01*
X0106884Y0003730D01*
X0106739Y0003774D01*
X0106595Y0003821D01*
X0106452Y0003872D01*
X0106311Y0003926D01*
X0106170Y0003984D01*
X0106032Y0004045D01*
X0105895Y0004110D01*
X0105759Y0004179D01*
X0105626Y0004250D01*
X0105494Y0004325D01*
X0105364Y0004404D01*
X0105237Y0004485D01*
X0105111Y0004570D01*
X0104987Y0004658D01*
X0104866Y0004749D01*
X0104747Y0004843D01*
X0104631Y0004941D01*
X0104517Y0005041D01*
X0104405Y0005143D01*
X0104297Y0005249D01*
X0104191Y0005357D01*
X0104087Y0005468D01*
X0103987Y0005582D01*
X0103889Y0005698D01*
X0103795Y0005817D01*
X0108531Y0015500D02*
X0108685Y0015498D01*
X0108839Y0015492D01*
X0108993Y0015482D01*
X0109147Y0015468D01*
X0109300Y0015451D01*
X0109452Y0015429D01*
X0109604Y0015403D01*
X0109756Y0015374D01*
X0109906Y0015340D01*
X0110056Y0015303D01*
X0110204Y0015262D01*
X0110352Y0015217D01*
X0110498Y0015168D01*
X0110643Y0015116D01*
X0110786Y0015060D01*
X0110929Y0015000D01*
X0111069Y0014937D01*
X0111208Y0014870D01*
X0111345Y0014799D01*
X0111480Y0014725D01*
X0111613Y0014648D01*
X0111745Y0014567D01*
X0111874Y0014483D01*
X0112001Y0014395D01*
X0112125Y0014304D01*
X0112247Y0014211D01*
X0112367Y0014113D01*
X0112484Y0014013D01*
X0112599Y0013910D01*
X0112711Y0013804D01*
X0112820Y0013696D01*
X0112926Y0013584D01*
X0113030Y0013470D01*
X0113130Y0013353D01*
X0113228Y0013234D01*
X0113322Y0013112D01*
X0113413Y0012987D01*
X0108531Y0015500D02*
X0108381Y0015498D01*
X0108230Y0015492D01*
X0108080Y0015483D01*
X0107931Y0015470D01*
X0107781Y0015453D01*
X0107632Y0015432D01*
X0107484Y0015408D01*
X0107336Y0015380D01*
X0107189Y0015348D01*
X0107043Y0015313D01*
X0106898Y0015273D01*
X0106754Y0015231D01*
X0106611Y0015184D01*
X0106469Y0015134D01*
X0106328Y0015081D01*
X0106189Y0015024D01*
X0106051Y0014964D01*
X0105915Y0014900D01*
X0105781Y0014833D01*
X0105648Y0014762D01*
X0105517Y0014688D01*
X0105388Y0014611D01*
X0105261Y0014530D01*
X0105136Y0014447D01*
X0105013Y0014360D01*
X0104892Y0014271D01*
X0104774Y0014178D01*
X0104658Y0014082D01*
X0104544Y0013984D01*
X0104433Y0013883D01*
X0104324Y0013778D01*
X0104219Y0013672D01*
X0104115Y0013562D01*
X0104015Y0013450D01*
X0103917Y0013336D01*
X0103823Y0013219D01*
X0103731Y0013100D01*
X0108531Y0003500D02*
X0108683Y0003502D01*
X0108834Y0003508D01*
X0108985Y0003517D01*
X0109137Y0003531D01*
X0109287Y0003548D01*
X0109437Y0003569D01*
X0109587Y0003594D01*
X0109736Y0003622D01*
X0109884Y0003655D01*
X0110031Y0003691D01*
X0110178Y0003730D01*
X0110323Y0003774D01*
X0110467Y0003821D01*
X0110610Y0003872D01*
X0110751Y0003926D01*
X0110892Y0003984D01*
X0111030Y0004045D01*
X0111167Y0004110D01*
X0111303Y0004179D01*
X0111436Y0004250D01*
X0111568Y0004325D01*
X0111698Y0004404D01*
X0111825Y0004485D01*
X0111951Y0004570D01*
X0112075Y0004658D01*
X0112196Y0004749D01*
X0112315Y0004843D01*
X0112431Y0004941D01*
X0112545Y0005041D01*
X0112657Y0005143D01*
X0112765Y0005249D01*
X0112871Y0005357D01*
X0112975Y0005468D01*
X0113075Y0005582D01*
X0113173Y0005698D01*
X0113267Y0005817D01*
D12*
X0169416Y0013621D02*
X0175555Y0013621D01*
X0174788Y0012854D02*
X0174788Y0014389D01*
X0174020Y0015156D01*
X0173253Y0015156D01*
X0172486Y0014389D01*
X0172486Y0012854D01*
X0171718Y0012087D01*
X0170951Y0012087D01*
X0170184Y0012854D01*
X0170184Y0014389D01*
X0170951Y0015156D01*
X0170184Y0016691D02*
X0170184Y0019760D01*
X0170951Y0019760D01*
X0174020Y0016691D01*
X0174788Y0016691D01*
X0174788Y0012854D02*
X0174020Y0012087D01*
X0174020Y0010552D02*
X0170184Y0010552D01*
X0170184Y0007483D02*
X0174020Y0007483D01*
X0174788Y0008250D01*
X0174788Y0009785D01*
X0174020Y0010552D01*
X0204498Y0059700D02*
X0203731Y0060467D01*
X0203731Y0061235D01*
X0204498Y0062002D01*
X0206033Y0062002D01*
X0206800Y0061235D01*
X0206800Y0060467D01*
X0206033Y0059700D01*
X0204498Y0059700D01*
X0204498Y0062002D02*
X0203731Y0062769D01*
X0203731Y0063537D01*
X0204498Y0064304D01*
X0206033Y0064304D01*
X0206800Y0063537D01*
X0206800Y0062769D01*
X0206033Y0062002D01*
X0203331Y0109403D02*
X0198727Y0109403D01*
X0200262Y0110938D01*
X0198727Y0112472D01*
X0203331Y0112472D01*
X0202564Y0114007D02*
X0199494Y0117076D01*
X0202564Y0117076D01*
X0203331Y0116309D01*
X0203331Y0114774D01*
X0202564Y0114007D01*
X0199494Y0114007D01*
X0198727Y0114774D01*
X0198727Y0116309D01*
X0199494Y0117076D01*
X0199494Y0118611D02*
X0198727Y0119378D01*
X0198727Y0120913D01*
X0199494Y0121680D01*
X0200262Y0121680D01*
X0201029Y0120913D01*
X0201029Y0119378D01*
X0200262Y0118611D01*
X0199494Y0118611D01*
X0201029Y0119378D02*
X0201796Y0118611D01*
X0202564Y0118611D01*
X0203331Y0119378D01*
X0203331Y0120913D01*
X0202564Y0121680D01*
X0201796Y0121680D01*
X0201029Y0120913D01*
X0201796Y0123215D02*
X0201796Y0125517D01*
X0201029Y0126284D01*
X0199494Y0126284D01*
X0198727Y0125517D01*
X0198727Y0123215D01*
X0203331Y0123215D01*
X0201796Y0124750D02*
X0203331Y0126284D01*
X0203331Y0127819D02*
X0203331Y0129354D01*
X0203331Y0128586D02*
X0198727Y0128586D01*
X0198727Y0127819D02*
X0198727Y0129354D01*
X0199494Y0130888D02*
X0198727Y0131655D01*
X0198727Y0133190D01*
X0199494Y0133957D01*
X0201029Y0133957D02*
X0201029Y0132423D01*
X0201029Y0133957D02*
X0202564Y0133957D01*
X0203331Y0133190D01*
X0203331Y0131655D01*
X0202564Y0130888D01*
X0199494Y0130888D01*
X0198727Y0135492D02*
X0203331Y0135492D01*
X0203331Y0138561D02*
X0198727Y0138561D01*
X0198727Y0140096D02*
X0198727Y0143165D01*
X0198727Y0141631D02*
X0203331Y0141631D01*
X0201029Y0138561D02*
X0201029Y0135492D01*
X0199300Y0144700D02*
X0196231Y0144700D01*
X0197766Y0144700D02*
X0197766Y0149304D01*
X0196231Y0147769D01*
X0196850Y0192200D02*
X0196850Y0196804D01*
X0198384Y0196804D02*
X0195315Y0196804D01*
X0193780Y0196804D02*
X0193780Y0192967D01*
X0193013Y0192200D01*
X0191479Y0192200D01*
X0190711Y0192967D01*
X0190711Y0196804D01*
X0189177Y0196037D02*
X0189177Y0195269D01*
X0188409Y0194502D01*
X0186107Y0194502D01*
X0184573Y0194502D02*
X0181503Y0194502D01*
X0179969Y0193735D02*
X0179969Y0192967D01*
X0179201Y0192200D01*
X0177667Y0192200D01*
X0176899Y0192967D01*
X0175365Y0192967D02*
X0175365Y0196804D01*
X0176899Y0196037D02*
X0176899Y0195269D01*
X0177667Y0194502D01*
X0179201Y0194502D01*
X0179969Y0193735D01*
X0181503Y0192200D02*
X0181503Y0196804D01*
X0179969Y0196037D02*
X0179201Y0196804D01*
X0177667Y0196804D01*
X0176899Y0196037D01*
X0175365Y0192967D02*
X0174597Y0192200D01*
X0173063Y0192200D01*
X0172296Y0192967D01*
X0172296Y0196804D01*
X0170761Y0196037D02*
X0170761Y0194502D01*
X0169994Y0193735D01*
X0167692Y0193735D01*
X0167692Y0192200D02*
X0167692Y0196804D01*
X0169994Y0196804D01*
X0170761Y0196037D01*
X0184573Y0196804D02*
X0184573Y0192200D01*
X0186107Y0192200D02*
X0188409Y0192200D01*
X0189177Y0192967D01*
X0189177Y0193735D01*
X0188409Y0194502D01*
X0189177Y0196037D02*
X0188409Y0196804D01*
X0186107Y0196804D01*
X0186107Y0192200D01*
X0199919Y0196804D02*
X0202988Y0196804D01*
X0201454Y0196804D02*
X0201454Y0192200D01*
X0204523Y0192967D02*
X0205290Y0192200D01*
X0206825Y0192200D01*
X0207592Y0192967D01*
X0207592Y0196037D01*
X0206825Y0196804D01*
X0205290Y0196804D01*
X0204523Y0196037D01*
X0204523Y0192967D01*
X0209127Y0192200D02*
X0209127Y0196804D01*
X0212196Y0192200D01*
X0212196Y0196804D01*
X0116701Y0106804D02*
X0115166Y0105269D01*
X0113632Y0106037D02*
X0113632Y0104502D01*
X0112864Y0103735D01*
X0110562Y0103735D01*
X0112097Y0103735D02*
X0113632Y0102200D01*
X0115166Y0102200D02*
X0118236Y0102200D01*
X0116701Y0102200D02*
X0116701Y0106804D01*
X0113632Y0106037D02*
X0112864Y0106804D01*
X0110562Y0106804D01*
X0110562Y0102200D01*
X0109028Y0102967D02*
X0109028Y0106037D01*
X0108260Y0106804D01*
X0106726Y0106804D01*
X0105958Y0106037D01*
X0105958Y0102967D01*
X0106726Y0102200D01*
X0108260Y0102200D01*
X0109028Y0102967D01*
X0104424Y0106804D02*
X0101354Y0106804D01*
X0102889Y0106804D02*
X0102889Y0102200D01*
X0099820Y0102200D02*
X0099820Y0105269D01*
X0098285Y0106804D01*
X0096751Y0105269D01*
X0096751Y0102200D01*
X0095216Y0102200D02*
X0095216Y0106804D01*
X0096751Y0104502D02*
X0099820Y0104502D01*
X0095216Y0102200D02*
X0092147Y0106804D01*
X0092147Y0102200D01*
X0090612Y0102967D02*
X0090612Y0106037D01*
X0089845Y0106804D01*
X0088310Y0106804D01*
X0087543Y0106037D01*
X0087543Y0102967D01*
X0088310Y0102200D01*
X0089845Y0102200D01*
X0090612Y0102967D01*
X0086008Y0102967D02*
X0085241Y0102200D01*
X0083706Y0102200D01*
X0082939Y0102967D01*
X0081404Y0102200D02*
X0078335Y0102200D01*
X0078335Y0106804D01*
X0081404Y0106804D01*
X0082939Y0106037D02*
X0082939Y0105269D01*
X0083706Y0104502D01*
X0085241Y0104502D01*
X0086008Y0103735D01*
X0086008Y0102967D01*
X0086008Y0106037D02*
X0085241Y0106804D01*
X0083706Y0106804D01*
X0082939Y0106037D01*
X0079869Y0104502D02*
X0078335Y0104502D01*
X0076800Y0104502D02*
X0076800Y0106037D01*
X0076033Y0106804D01*
X0073731Y0106804D01*
X0073731Y0102200D01*
X0073731Y0103735D02*
X0076033Y0103735D01*
X0076800Y0104502D01*
X0075266Y0103735D02*
X0076800Y0102200D01*
X0076033Y0086804D02*
X0073731Y0086804D01*
X0073731Y0082200D01*
X0073731Y0083735D02*
X0076033Y0083735D01*
X0076800Y0084502D01*
X0076800Y0086037D01*
X0076033Y0086804D01*
X0078335Y0086804D02*
X0078335Y0082967D01*
X0079102Y0082200D01*
X0080637Y0082200D01*
X0081404Y0082967D01*
X0081404Y0086804D01*
X0082939Y0086037D02*
X0082939Y0085269D01*
X0083706Y0084502D01*
X0085241Y0084502D01*
X0086008Y0083735D01*
X0086008Y0082967D01*
X0085241Y0082200D01*
X0083706Y0082200D01*
X0082939Y0082967D01*
X0082939Y0086037D02*
X0083706Y0086804D01*
X0085241Y0086804D01*
X0086008Y0086037D01*
X0087543Y0086804D02*
X0087543Y0082200D01*
X0087543Y0084502D02*
X0090612Y0084502D01*
X0092147Y0084502D02*
X0094449Y0084502D01*
X0095216Y0083735D01*
X0095216Y0082967D01*
X0094449Y0082200D01*
X0092147Y0082200D01*
X0092147Y0086804D01*
X0094449Y0086804D01*
X0095216Y0086037D01*
X0095216Y0085269D01*
X0094449Y0084502D01*
X0096751Y0082967D02*
X0097518Y0082200D01*
X0099053Y0082200D01*
X0099820Y0082967D01*
X0099820Y0086804D01*
X0101354Y0086804D02*
X0104424Y0086804D01*
X0105958Y0086804D02*
X0109028Y0086804D01*
X0107493Y0086804D02*
X0107493Y0082200D01*
X0110562Y0082967D02*
X0110562Y0086037D01*
X0111330Y0086804D01*
X0112864Y0086804D01*
X0113632Y0086037D01*
X0113632Y0082967D01*
X0112864Y0082200D01*
X0111330Y0082200D01*
X0110562Y0082967D01*
X0115166Y0082200D02*
X0115166Y0086804D01*
X0118236Y0082200D01*
X0118236Y0086804D01*
X0102889Y0086804D02*
X0102889Y0082200D01*
X0096751Y0082967D02*
X0096751Y0086804D01*
X0090612Y0086804D02*
X0090612Y0082200D01*
X0026800Y0061037D02*
X0026800Y0060269D01*
X0026033Y0059502D01*
X0024498Y0059502D01*
X0023731Y0060269D01*
X0023731Y0061037D01*
X0024498Y0061804D01*
X0026033Y0061804D01*
X0026800Y0061037D01*
X0026800Y0060269D01*
X0026033Y0059502D01*
X0026800Y0058735D01*
X0026800Y0057967D01*
X0026033Y0057200D01*
X0024498Y0057200D01*
X0023731Y0057967D01*
X0023731Y0058735D01*
X0024498Y0059502D01*
X0026033Y0059502D01*
X0026800Y0058735D01*
X0026800Y0057967D01*
X0026033Y0057200D01*
X0024498Y0057200D01*
X0023731Y0057967D01*
X0023731Y0058735D01*
X0024498Y0059502D01*
X0023731Y0060269D01*
X0023731Y0061037D01*
X0024498Y0061804D01*
X0026033Y0061804D01*
X0026800Y0061037D01*
X0015831Y0112472D02*
X0011227Y0112472D01*
X0012762Y0114007D01*
X0011227Y0115542D01*
X0015831Y0115542D01*
X0015064Y0117076D02*
X0015831Y0117844D01*
X0015831Y0119378D01*
X0015064Y0120146D01*
X0011994Y0120146D01*
X0015064Y0117076D01*
X0011994Y0117076D01*
X0011227Y0117844D01*
X0011227Y0119378D01*
X0011994Y0120146D01*
X0011994Y0121680D02*
X0012762Y0121680D01*
X0013529Y0122448D01*
X0013529Y0123982D01*
X0014296Y0124750D01*
X0015064Y0124750D01*
X0015831Y0123982D01*
X0015831Y0122448D01*
X0015064Y0121680D01*
X0014296Y0121680D01*
X0013529Y0122448D01*
X0013529Y0123982D02*
X0012762Y0124750D01*
X0011994Y0124750D01*
X0011227Y0123982D01*
X0011227Y0122448D01*
X0011994Y0121680D01*
X0011227Y0126284D02*
X0015831Y0126284D01*
X0015831Y0129354D01*
X0015831Y0130888D02*
X0015831Y0133957D01*
X0015831Y0135492D02*
X0011227Y0135492D01*
X0011227Y0138561D01*
X0011227Y0140096D02*
X0011227Y0143165D01*
X0011227Y0141631D02*
X0015831Y0141631D01*
X0013529Y0137027D02*
X0013529Y0135492D01*
X0011227Y0133957D02*
X0011227Y0130888D01*
X0015831Y0130888D01*
X0013529Y0130888D02*
X0013529Y0132423D01*
X0026231Y0152200D02*
X0029300Y0152200D01*
X0027766Y0152200D02*
X0027766Y0156804D01*
X0026231Y0155269D01*
X0028335Y0179700D02*
X0029869Y0179700D01*
X0029102Y0179700D02*
X0029102Y0184304D01*
X0028335Y0184304D02*
X0029869Y0184304D01*
X0031404Y0183537D02*
X0031404Y0180467D01*
X0032171Y0179700D01*
X0033706Y0179700D01*
X0034473Y0180467D01*
X0036008Y0179700D02*
X0036008Y0184304D01*
X0034473Y0183537D02*
X0033706Y0184304D01*
X0032171Y0184304D01*
X0031404Y0183537D01*
X0026800Y0183537D02*
X0026800Y0182002D01*
X0026033Y0181235D01*
X0023731Y0181235D01*
X0023731Y0179700D02*
X0023731Y0184304D01*
X0026033Y0184304D01*
X0026800Y0183537D01*
X0036008Y0181235D02*
X0039077Y0184304D01*
X0040612Y0184304D02*
X0042147Y0184304D01*
X0041379Y0184304D02*
X0041379Y0179700D01*
X0040612Y0179700D02*
X0042147Y0179700D01*
X0039077Y0179700D02*
X0036775Y0182002D01*
X0043681Y0184304D02*
X0046751Y0184304D01*
X0045216Y0184304D02*
X0045216Y0179700D01*
X0048285Y0180467D02*
X0049052Y0179700D01*
X0050587Y0179700D01*
X0051354Y0180467D01*
X0051354Y0181235D01*
X0050587Y0182002D01*
X0049820Y0182002D01*
X0050587Y0182002D02*
X0051354Y0182769D01*
X0051354Y0183537D01*
X0050587Y0184304D01*
X0049052Y0184304D01*
X0048285Y0183537D01*
X0052073Y0202200D02*
X0052073Y0206804D01*
X0054375Y0206804D01*
X0055142Y0206037D01*
X0055142Y0204502D01*
X0054375Y0203735D01*
X0052073Y0203735D01*
X0056677Y0202200D02*
X0058211Y0202200D01*
X0057444Y0202200D02*
X0057444Y0206804D01*
X0056677Y0206804D02*
X0058211Y0206804D01*
X0059746Y0206037D02*
X0059746Y0202967D01*
X0060513Y0202200D01*
X0062048Y0202200D01*
X0062815Y0202967D01*
X0064350Y0202200D02*
X0064350Y0206804D01*
X0062815Y0206037D02*
X0062048Y0206804D01*
X0060513Y0206804D01*
X0059746Y0206037D01*
X0064350Y0203735D02*
X0067419Y0206804D01*
X0068954Y0206804D02*
X0070488Y0206804D01*
X0069721Y0206804D02*
X0069721Y0202200D01*
X0068954Y0202200D02*
X0070488Y0202200D01*
X0073558Y0202200D02*
X0073558Y0206804D01*
X0075092Y0206804D02*
X0072023Y0206804D01*
X0076627Y0206037D02*
X0077394Y0206804D01*
X0078929Y0206804D01*
X0079696Y0206037D01*
X0079696Y0205269D01*
X0078929Y0204502D01*
X0079696Y0203735D01*
X0079696Y0202967D01*
X0078929Y0202200D01*
X0077394Y0202200D01*
X0076627Y0202967D01*
X0078162Y0204502D02*
X0078929Y0204502D01*
X0067419Y0202200D02*
X0065117Y0204502D01*
D13*
X0080031Y0162500D02*
X0080031Y0159500D01*
X0080031Y0156500D01*
X0082031Y0156500D02*
X0082031Y0159500D01*
X0082031Y0162500D01*
X0049531Y0130000D02*
X0049531Y0127000D01*
X0049531Y0124000D01*
X0047531Y0124000D02*
X0047531Y0127000D01*
X0047531Y0130000D01*
X0047531Y0087500D02*
X0047531Y0084500D01*
X0047531Y0081500D01*
X0049531Y0081500D02*
X0049531Y0084500D01*
X0049531Y0087500D01*
X0092531Y0042500D02*
X0092531Y0039500D01*
X0092531Y0036500D01*
X0094531Y0036500D02*
X0094531Y0039500D01*
X0094531Y0042500D01*
X0063531Y0047500D02*
X0063339Y0047498D01*
X0063147Y0047491D01*
X0062955Y0047479D01*
X0062763Y0047463D01*
X0062572Y0047442D01*
X0062382Y0047417D01*
X0062192Y0047387D01*
X0062003Y0047353D01*
X0061815Y0047314D01*
X0061628Y0047270D01*
X0061442Y0047222D01*
X0061257Y0047170D01*
X0061073Y0047113D01*
X0060891Y0047052D01*
X0060711Y0046986D01*
X0060532Y0046916D01*
X0060354Y0046842D01*
X0060179Y0046764D01*
X0060005Y0046681D01*
X0059834Y0046594D01*
X0059665Y0046504D01*
X0059498Y0046409D01*
X0059333Y0046310D01*
X0059170Y0046207D01*
X0059011Y0046100D01*
X0058853Y0045990D01*
X0058699Y0045876D01*
X0058547Y0045758D01*
X0058398Y0045636D01*
X0058252Y0045511D01*
X0058110Y0045383D01*
X0057970Y0045251D01*
X0057833Y0045116D01*
X0057700Y0044977D01*
X0057570Y0044836D01*
X0057444Y0044691D01*
X0057321Y0044543D01*
X0057202Y0044393D01*
X0057086Y0044239D01*
X0056974Y0044083D01*
X0056866Y0043924D01*
X0056761Y0043763D01*
X0056661Y0043599D01*
X0056565Y0043433D01*
X0056472Y0043265D01*
X0056585Y0035531D02*
X0056684Y0035362D01*
X0056788Y0035196D01*
X0056895Y0035032D01*
X0057006Y0034871D01*
X0057121Y0034713D01*
X0057240Y0034558D01*
X0057363Y0034405D01*
X0057489Y0034256D01*
X0057619Y0034110D01*
X0057753Y0033967D01*
X0057890Y0033827D01*
X0058030Y0033691D01*
X0058174Y0033558D01*
X0058321Y0033429D01*
X0058471Y0033303D01*
X0058624Y0033182D01*
X0058780Y0033063D01*
X0058939Y0032949D01*
X0059100Y0032839D01*
X0059265Y0032733D01*
X0059431Y0032630D01*
X0059601Y0032532D01*
X0059772Y0032438D01*
X0059946Y0032348D01*
X0060122Y0032263D01*
X0060300Y0032181D01*
X0060480Y0032105D01*
X0060662Y0032032D01*
X0060845Y0031964D01*
X0061030Y0031901D01*
X0061217Y0031842D01*
X0061405Y0031788D01*
X0061594Y0031738D01*
X0061784Y0031693D01*
X0061976Y0031653D01*
X0062168Y0031617D01*
X0062361Y0031586D01*
X0062555Y0031560D01*
X0062750Y0031538D01*
X0062945Y0031522D01*
X0063140Y0031510D01*
X0063336Y0031502D01*
X0063531Y0031500D01*
X0063724Y0031502D01*
X0063917Y0031509D01*
X0064109Y0031521D01*
X0064302Y0031537D01*
X0064494Y0031558D01*
X0064685Y0031584D01*
X0064875Y0031614D01*
X0065065Y0031649D01*
X0065254Y0031688D01*
X0065442Y0031732D01*
X0065629Y0031780D01*
X0065815Y0031833D01*
X0065999Y0031890D01*
X0066182Y0031952D01*
X0066363Y0032018D01*
X0066543Y0032089D01*
X0066721Y0032163D01*
X0066897Y0032242D01*
X0067071Y0032326D01*
X0067243Y0032413D01*
X0067413Y0032505D01*
X0067580Y0032601D01*
X0067746Y0032700D01*
X0067909Y0032804D01*
X0068069Y0032911D01*
X0068226Y0033023D01*
X0068381Y0033138D01*
X0068533Y0033257D01*
X0068682Y0033379D01*
X0068829Y0033505D01*
X0068972Y0033635D01*
X0069112Y0033768D01*
X0069248Y0033904D01*
X0069382Y0034044D01*
X0069511Y0034186D01*
X0069638Y0034332D01*
X0069677Y0044622D02*
X0069550Y0044770D01*
X0069420Y0044915D01*
X0069287Y0045056D01*
X0069150Y0045195D01*
X0069010Y0045330D01*
X0068866Y0045461D01*
X0068719Y0045589D01*
X0068570Y0045714D01*
X0068417Y0045835D01*
X0068262Y0045952D01*
X0068103Y0046065D01*
X0067942Y0046174D01*
X0067778Y0046279D01*
X0067612Y0046381D01*
X0067443Y0046478D01*
X0067273Y0046571D01*
X0067099Y0046660D01*
X0066924Y0046745D01*
X0066747Y0046825D01*
X0066568Y0046901D01*
X0066387Y0046973D01*
X0066204Y0047040D01*
X0066020Y0047103D01*
X0065834Y0047161D01*
X0065647Y0047215D01*
X0065459Y0047264D01*
X0065269Y0047309D01*
X0065079Y0047349D01*
X0064887Y0047384D01*
X0064695Y0047415D01*
X0064502Y0047441D01*
X0064308Y0047462D01*
X0064114Y0047479D01*
X0063920Y0047491D01*
X0063726Y0047498D01*
X0063531Y0047500D01*
X0101585Y0005531D02*
X0101684Y0005362D01*
X0101788Y0005196D01*
X0101895Y0005032D01*
X0102006Y0004871D01*
X0102121Y0004713D01*
X0102240Y0004558D01*
X0102363Y0004405D01*
X0102489Y0004256D01*
X0102619Y0004110D01*
X0102753Y0003967D01*
X0102890Y0003827D01*
X0103030Y0003691D01*
X0103174Y0003558D01*
X0103321Y0003429D01*
X0103471Y0003303D01*
X0103624Y0003182D01*
X0103780Y0003063D01*
X0103939Y0002949D01*
X0104100Y0002839D01*
X0104265Y0002733D01*
X0104431Y0002630D01*
X0104601Y0002532D01*
X0104772Y0002438D01*
X0104946Y0002348D01*
X0105122Y0002263D01*
X0105300Y0002181D01*
X0105480Y0002105D01*
X0105662Y0002032D01*
X0105845Y0001964D01*
X0106030Y0001901D01*
X0106217Y0001842D01*
X0106405Y0001788D01*
X0106594Y0001738D01*
X0106784Y0001693D01*
X0106976Y0001653D01*
X0107168Y0001617D01*
X0107361Y0001586D01*
X0107555Y0001560D01*
X0107750Y0001538D01*
X0107945Y0001522D01*
X0108140Y0001510D01*
X0108336Y0001502D01*
X0108531Y0001500D01*
X0101472Y0013265D02*
X0101565Y0013433D01*
X0101661Y0013599D01*
X0101761Y0013763D01*
X0101866Y0013924D01*
X0101974Y0014083D01*
X0102086Y0014239D01*
X0102202Y0014393D01*
X0102321Y0014543D01*
X0102444Y0014691D01*
X0102570Y0014836D01*
X0102700Y0014977D01*
X0102833Y0015116D01*
X0102970Y0015251D01*
X0103110Y0015383D01*
X0103252Y0015511D01*
X0103398Y0015636D01*
X0103547Y0015758D01*
X0103699Y0015876D01*
X0103853Y0015990D01*
X0104011Y0016100D01*
X0104170Y0016207D01*
X0104333Y0016310D01*
X0104498Y0016409D01*
X0104665Y0016504D01*
X0104834Y0016594D01*
X0105005Y0016681D01*
X0105179Y0016764D01*
X0105354Y0016842D01*
X0105532Y0016916D01*
X0105711Y0016986D01*
X0105891Y0017052D01*
X0106073Y0017113D01*
X0106257Y0017170D01*
X0106442Y0017222D01*
X0106628Y0017270D01*
X0106815Y0017314D01*
X0107003Y0017353D01*
X0107192Y0017387D01*
X0107382Y0017417D01*
X0107572Y0017442D01*
X0107763Y0017463D01*
X0107955Y0017479D01*
X0108147Y0017491D01*
X0108339Y0017498D01*
X0108531Y0017500D01*
X0114638Y0004332D02*
X0114511Y0004186D01*
X0114382Y0004044D01*
X0114248Y0003904D01*
X0114112Y0003768D01*
X0113972Y0003635D01*
X0113829Y0003505D01*
X0113682Y0003379D01*
X0113533Y0003257D01*
X0113381Y0003138D01*
X0113226Y0003023D01*
X0113069Y0002911D01*
X0112909Y0002804D01*
X0112746Y0002700D01*
X0112580Y0002601D01*
X0112413Y0002505D01*
X0112243Y0002413D01*
X0112071Y0002326D01*
X0111897Y0002242D01*
X0111721Y0002163D01*
X0111543Y0002089D01*
X0111363Y0002018D01*
X0111182Y0001952D01*
X0110999Y0001890D01*
X0110815Y0001833D01*
X0110629Y0001780D01*
X0110442Y0001732D01*
X0110254Y0001688D01*
X0110065Y0001649D01*
X0109875Y0001614D01*
X0109685Y0001584D01*
X0109494Y0001558D01*
X0109302Y0001537D01*
X0109109Y0001521D01*
X0108917Y0001509D01*
X0108724Y0001502D01*
X0108531Y0001500D01*
X0114677Y0014622D02*
X0114550Y0014770D01*
X0114420Y0014915D01*
X0114287Y0015056D01*
X0114150Y0015195D01*
X0114010Y0015330D01*
X0113866Y0015461D01*
X0113719Y0015589D01*
X0113570Y0015714D01*
X0113417Y0015835D01*
X0113262Y0015952D01*
X0113103Y0016065D01*
X0112942Y0016174D01*
X0112778Y0016279D01*
X0112612Y0016381D01*
X0112443Y0016478D01*
X0112273Y0016571D01*
X0112099Y0016660D01*
X0111924Y0016745D01*
X0111747Y0016825D01*
X0111568Y0016901D01*
X0111387Y0016973D01*
X0111204Y0017040D01*
X0111020Y0017103D01*
X0110834Y0017161D01*
X0110647Y0017215D01*
X0110459Y0017264D01*
X0110269Y0017309D01*
X0110079Y0017349D01*
X0109887Y0017384D01*
X0109695Y0017415D01*
X0109502Y0017441D01*
X0109308Y0017462D01*
X0109114Y0017479D01*
X0108920Y0017491D01*
X0108726Y0017498D01*
X0108531Y0017500D01*
X0202531Y0156500D02*
X0202531Y0159500D01*
X0202531Y0162500D01*
X0204531Y0162500D02*
X0204531Y0159500D01*
X0204531Y0156500D01*
X0204531Y0169000D02*
X0204531Y0172000D01*
X0204531Y0175000D01*
X0202531Y0175000D02*
X0202531Y0172000D01*
X0202531Y0169000D01*
D14*
X0203573Y0168753D02*
X0205074Y0170254D01*
X0205074Y0165750D01*
X0204324Y0165754D02*
X0203573Y0165003D01*
X0203573Y0162001D01*
X0204324Y0161250D01*
X0205825Y0161250D01*
X0206576Y0162001D01*
X0208177Y0161250D02*
X0211180Y0164253D01*
X0211180Y0165003D01*
X0210429Y0165754D01*
X0208928Y0165754D01*
X0208177Y0165003D01*
X0208928Y0165750D02*
X0211180Y0165750D01*
X0211180Y0168753D01*
X0208177Y0168753D02*
X0208177Y0166501D01*
X0208928Y0165750D01*
X0206576Y0165750D02*
X0203573Y0165750D01*
X0204324Y0165754D02*
X0205825Y0165754D01*
X0206576Y0165003D01*
X0208177Y0161250D02*
X0211180Y0161250D01*
X0211180Y0153254D02*
X0208177Y0153254D01*
X0206576Y0152503D02*
X0205825Y0153254D01*
X0204324Y0153254D01*
X0203573Y0152503D01*
X0203573Y0149501D01*
X0204324Y0148750D01*
X0205825Y0148750D01*
X0206576Y0149501D01*
X0208177Y0149501D02*
X0208177Y0148750D01*
X0208177Y0149501D02*
X0211180Y0152503D01*
X0211180Y0153254D01*
X0219228Y0143449D02*
X0218477Y0142698D01*
X0218477Y0141197D01*
X0219228Y0140446D01*
X0219978Y0140446D01*
X0220729Y0141197D01*
X0220729Y0143449D01*
X0222230Y0143449D02*
X0219228Y0143449D01*
X0222230Y0143449D02*
X0222981Y0142698D01*
X0222981Y0141197D01*
X0222230Y0140446D01*
X0222230Y0138845D02*
X0221480Y0138845D01*
X0220729Y0138094D01*
X0220729Y0136593D01*
X0219978Y0135842D01*
X0219228Y0135842D01*
X0218477Y0136593D01*
X0218477Y0138094D01*
X0219228Y0138845D01*
X0217726Y0137343D02*
X0223732Y0137343D01*
X0222981Y0136593D02*
X0222230Y0135842D01*
X0222981Y0136593D02*
X0222981Y0138094D01*
X0222230Y0138845D01*
X0222230Y0134241D02*
X0218477Y0134241D01*
X0218477Y0131238D02*
X0222230Y0131238D01*
X0222981Y0131989D01*
X0222981Y0133490D01*
X0222230Y0134241D01*
X0202022Y0165750D02*
X0201271Y0165750D01*
X0201271Y0166501D01*
X0202022Y0166501D01*
X0202022Y0165750D01*
X0206374Y0171799D02*
X0206374Y0177804D01*
X0206576Y0178250D02*
X0203573Y0178250D01*
X0203272Y0177054D02*
X0203272Y0173301D01*
X0202521Y0172550D01*
X0201020Y0172550D01*
X0200269Y0173301D01*
X0200269Y0177054D01*
X0201271Y0178250D02*
X0201271Y0179001D01*
X0202022Y0179001D01*
X0202022Y0178250D01*
X0201271Y0178250D01*
X0205074Y0178250D02*
X0205074Y0182754D01*
X0203573Y0181253D01*
X0208177Y0181253D02*
X0208177Y0179001D01*
X0208928Y0178250D01*
X0211180Y0178250D01*
X0211180Y0181253D01*
X0211729Y0177054D02*
X0210228Y0177054D01*
X0209477Y0176303D01*
X0207876Y0176303D02*
X0207125Y0177054D01*
X0205624Y0177054D01*
X0204873Y0176303D01*
X0204873Y0175553D01*
X0205624Y0174802D01*
X0207125Y0174802D01*
X0207876Y0174051D01*
X0207876Y0173301D01*
X0207125Y0172550D01*
X0205624Y0172550D01*
X0204873Y0173301D01*
X0209477Y0172550D02*
X0212480Y0175553D01*
X0212480Y0176303D01*
X0211729Y0177054D01*
X0212480Y0172550D02*
X0209477Y0172550D01*
X0183137Y0114254D02*
X0181635Y0114254D01*
X0180885Y0113503D01*
X0179283Y0113503D02*
X0178533Y0114254D01*
X0177032Y0114254D01*
X0176281Y0113503D01*
X0176281Y0110501D01*
X0177032Y0109750D01*
X0178533Y0109750D01*
X0179283Y0110501D01*
X0180885Y0110501D02*
X0181635Y0109750D01*
X0183137Y0109750D01*
X0183887Y0110501D01*
X0183887Y0111251D01*
X0183137Y0112002D01*
X0182386Y0112002D01*
X0183137Y0112002D02*
X0183887Y0112753D01*
X0183887Y0113503D01*
X0183137Y0114254D01*
X0197282Y0097754D02*
X0197282Y0093250D01*
X0195781Y0093250D02*
X0198783Y0093250D01*
X0200385Y0094001D02*
X0203387Y0097003D01*
X0203387Y0094001D01*
X0202637Y0093250D01*
X0201135Y0093250D01*
X0200385Y0094001D01*
X0200385Y0097003D01*
X0201135Y0097754D01*
X0202637Y0097754D01*
X0203387Y0097003D01*
X0204989Y0096253D02*
X0204989Y0094001D01*
X0205739Y0093250D01*
X0207991Y0093250D01*
X0207991Y0096253D01*
X0197282Y0097754D02*
X0195781Y0096253D01*
X0145781Y0096773D02*
X0145030Y0096022D01*
X0145781Y0096773D02*
X0145781Y0098274D01*
X0145030Y0099025D01*
X0143529Y0099025D01*
X0142778Y0098274D01*
X0142778Y0097524D01*
X0143529Y0096022D01*
X0141277Y0096022D01*
X0141277Y0099025D01*
X0142028Y0100626D02*
X0141277Y0101377D01*
X0141277Y0102878D01*
X0142028Y0103629D01*
X0145030Y0100626D01*
X0145781Y0101377D01*
X0145781Y0102878D01*
X0145030Y0103629D01*
X0142028Y0103629D01*
X0141277Y0105230D02*
X0141277Y0108233D01*
X0142778Y0109834D02*
X0141277Y0111335D01*
X0145781Y0111335D01*
X0145781Y0109834D02*
X0145781Y0112837D01*
X0145781Y0114438D02*
X0142778Y0117441D01*
X0142028Y0117441D01*
X0141277Y0116690D01*
X0141277Y0115189D01*
X0142028Y0114438D01*
X0145781Y0114438D02*
X0145781Y0117441D01*
X0145030Y0119042D02*
X0144280Y0119042D01*
X0143529Y0119793D01*
X0143529Y0121294D01*
X0144280Y0122045D01*
X0145030Y0122045D01*
X0145781Y0121294D01*
X0145781Y0119793D01*
X0145030Y0119042D01*
X0143529Y0119793D02*
X0142778Y0119042D01*
X0142028Y0119042D01*
X0141277Y0119793D01*
X0141277Y0121294D01*
X0142028Y0122045D01*
X0142778Y0122045D01*
X0143529Y0121294D01*
X0143529Y0123646D02*
X0143529Y0125898D01*
X0144280Y0126648D01*
X0145030Y0126648D01*
X0145781Y0125898D01*
X0145781Y0123646D01*
X0141277Y0123646D01*
X0141277Y0125898D01*
X0142028Y0126648D01*
X0142778Y0126648D01*
X0143529Y0125898D01*
X0143529Y0106732D02*
X0143529Y0105230D01*
X0145781Y0105230D02*
X0141277Y0105230D01*
X0142028Y0100626D02*
X0145030Y0100626D01*
X0145781Y0094421D02*
X0145781Y0091418D01*
X0142778Y0094421D01*
X0142028Y0094421D01*
X0141277Y0093670D01*
X0141277Y0092169D01*
X0142028Y0091418D01*
X0141277Y0089817D02*
X0145781Y0086815D01*
X0145781Y0085213D02*
X0141277Y0085213D01*
X0142778Y0083712D01*
X0141277Y0082211D01*
X0145781Y0082211D01*
X0145781Y0080609D02*
X0145781Y0077607D01*
X0142778Y0080609D01*
X0142028Y0080609D01*
X0141277Y0079859D01*
X0141277Y0078357D01*
X0142028Y0077607D01*
X0142028Y0076005D02*
X0142778Y0076005D01*
X0143529Y0075255D01*
X0144280Y0076005D01*
X0145030Y0076005D01*
X0145781Y0075255D01*
X0145781Y0073753D01*
X0145030Y0073003D01*
X0145030Y0071401D02*
X0145781Y0070651D01*
X0145781Y0069149D01*
X0145030Y0068399D01*
X0142028Y0068399D01*
X0141277Y0069149D01*
X0141277Y0070651D01*
X0142028Y0071401D01*
X0142028Y0073003D02*
X0141277Y0073753D01*
X0141277Y0075255D01*
X0142028Y0076005D01*
X0143529Y0075255D02*
X0143529Y0074504D01*
X0141277Y0066831D02*
X0141277Y0065330D01*
X0141277Y0066080D02*
X0145781Y0066080D01*
X0145781Y0065330D02*
X0145781Y0066831D01*
X0143529Y0063728D02*
X0144280Y0062978D01*
X0144280Y0060726D01*
X0145781Y0060726D02*
X0141277Y0060726D01*
X0141277Y0062978D01*
X0142028Y0063728D01*
X0143529Y0063728D01*
X0141277Y0086815D02*
X0145781Y0089817D01*
X0091637Y0050254D02*
X0091637Y0045750D01*
X0092387Y0048002D02*
X0089385Y0048002D01*
X0091637Y0050254D01*
X0087783Y0049503D02*
X0087033Y0050254D01*
X0085532Y0050254D01*
X0084781Y0049503D01*
X0084781Y0046501D01*
X0085532Y0045750D01*
X0087033Y0045750D01*
X0087783Y0046501D01*
X0086594Y0045754D02*
X0085093Y0044253D01*
X0083491Y0045003D02*
X0083491Y0042001D01*
X0082741Y0041250D01*
X0080489Y0041250D01*
X0080489Y0045754D01*
X0082741Y0045754D01*
X0083491Y0045003D01*
X0086594Y0045754D02*
X0086594Y0041250D01*
X0085093Y0041250D02*
X0088095Y0041250D01*
X0088584Y0033254D02*
X0087083Y0031753D01*
X0088584Y0033254D02*
X0088584Y0028750D01*
X0087083Y0028750D02*
X0090085Y0028750D01*
X0091687Y0029501D02*
X0092437Y0028750D01*
X0094689Y0028750D01*
X0094689Y0031753D01*
X0091687Y0031753D02*
X0091687Y0029501D01*
X0085532Y0029501D02*
X0085532Y0028750D01*
X0084781Y0028750D01*
X0084781Y0029501D01*
X0085532Y0029501D01*
X0078887Y0041250D02*
X0075885Y0041250D01*
X0075885Y0045754D01*
X0078887Y0045754D01*
X0077386Y0043502D02*
X0075885Y0043502D01*
X0074283Y0041250D02*
X0071281Y0041250D01*
X0071281Y0045754D01*
X0070632Y0057250D02*
X0069881Y0058001D01*
X0070632Y0057250D02*
X0072133Y0057250D01*
X0072883Y0058001D01*
X0072883Y0058751D01*
X0072133Y0059502D01*
X0071382Y0059502D01*
X0072133Y0059502D02*
X0072883Y0060253D01*
X0072883Y0061003D01*
X0072133Y0061754D01*
X0070632Y0061754D01*
X0069881Y0061003D01*
X0074485Y0061003D02*
X0075235Y0061754D01*
X0076737Y0061754D01*
X0077487Y0061003D01*
X0077487Y0060253D01*
X0076737Y0059502D01*
X0077487Y0058751D01*
X0077487Y0058001D01*
X0076737Y0057250D01*
X0075235Y0057250D01*
X0074485Y0058001D01*
X0075986Y0059502D02*
X0076737Y0059502D01*
X0079089Y0058001D02*
X0079089Y0061003D01*
X0079839Y0061754D01*
X0081341Y0061754D01*
X0082091Y0061003D01*
X0079089Y0058001D01*
X0079839Y0057250D01*
X0081341Y0057250D01*
X0082091Y0058001D01*
X0082091Y0061003D01*
X0074387Y0066501D02*
X0073637Y0065750D01*
X0072135Y0065750D01*
X0071385Y0066501D01*
X0069783Y0065750D02*
X0068282Y0067251D01*
X0069033Y0067251D02*
X0066781Y0067251D01*
X0066781Y0065750D02*
X0066781Y0070254D01*
X0069033Y0070254D01*
X0069783Y0069503D01*
X0069783Y0068002D01*
X0069033Y0067251D01*
X0071385Y0069503D02*
X0072135Y0070254D01*
X0073637Y0070254D01*
X0074387Y0069503D01*
X0074387Y0068753D01*
X0073637Y0068002D01*
X0074387Y0067251D01*
X0074387Y0066501D01*
X0073637Y0068002D02*
X0072886Y0068002D01*
X0071385Y0080750D02*
X0074387Y0083753D01*
X0074387Y0084503D01*
X0073637Y0085254D01*
X0072135Y0085254D01*
X0071385Y0084503D01*
X0069783Y0084503D02*
X0069783Y0083002D01*
X0069033Y0082251D01*
X0066781Y0082251D01*
X0066781Y0080750D02*
X0066781Y0085254D01*
X0069033Y0085254D01*
X0069783Y0084503D01*
X0068282Y0082251D02*
X0069783Y0080750D01*
X0071385Y0080750D02*
X0074387Y0080750D01*
X0057531Y0096254D02*
X0057531Y0112746D01*
X0055781Y0117250D02*
X0051277Y0117250D01*
X0052778Y0118751D01*
X0051277Y0120253D01*
X0055781Y0120253D01*
X0055030Y0121854D02*
X0052028Y0121854D01*
X0051277Y0122605D01*
X0051277Y0124106D01*
X0052028Y0124856D01*
X0051277Y0126458D02*
X0051277Y0128710D01*
X0052028Y0129460D01*
X0053529Y0129460D01*
X0054280Y0128710D01*
X0054280Y0126458D01*
X0055781Y0126458D02*
X0051277Y0126458D01*
X0048281Y0127208D02*
X0048281Y0128710D01*
X0047530Y0129460D01*
X0046029Y0129460D01*
X0045278Y0128710D01*
X0045278Y0127959D01*
X0046029Y0126458D01*
X0043777Y0126458D01*
X0043777Y0129460D01*
X0045135Y0133250D02*
X0046637Y0133250D01*
X0047387Y0134001D01*
X0047387Y0134751D01*
X0046637Y0135502D01*
X0044385Y0135502D01*
X0044385Y0134001D01*
X0045135Y0133250D01*
X0044385Y0135502D02*
X0045886Y0137003D01*
X0047387Y0137754D01*
X0051277Y0138668D02*
X0051277Y0135666D01*
X0051277Y0132563D02*
X0055781Y0132563D01*
X0055781Y0131062D02*
X0055781Y0134064D01*
X0055781Y0135666D02*
X0055030Y0135666D01*
X0052028Y0138668D01*
X0051277Y0138668D01*
X0052028Y0140270D02*
X0051277Y0141020D01*
X0051277Y0142522D01*
X0052028Y0143272D01*
X0055030Y0140270D01*
X0055781Y0141020D01*
X0055781Y0142522D01*
X0055030Y0143272D01*
X0052028Y0143272D01*
X0052028Y0144874D02*
X0051277Y0145624D01*
X0051277Y0147125D01*
X0052028Y0147876D01*
X0052778Y0147876D01*
X0055781Y0144874D01*
X0055781Y0147876D01*
X0055030Y0140270D02*
X0052028Y0140270D01*
X0051277Y0132563D02*
X0052778Y0131062D01*
X0048281Y0127208D02*
X0047530Y0126458D01*
X0047530Y0124856D02*
X0046780Y0124856D01*
X0046029Y0124106D01*
X0046029Y0122605D01*
X0045278Y0121854D01*
X0044528Y0121854D01*
X0043777Y0122605D01*
X0043777Y0124106D01*
X0044528Y0124856D01*
X0043026Y0123355D02*
X0049032Y0123355D01*
X0048281Y0122605D02*
X0048281Y0124106D01*
X0047530Y0124856D01*
X0048281Y0122605D02*
X0047530Y0121854D01*
X0047530Y0120253D02*
X0043777Y0120253D01*
X0044385Y0119253D02*
X0044385Y0117001D01*
X0045135Y0116250D01*
X0047387Y0116250D01*
X0047387Y0119253D01*
X0048281Y0119502D02*
X0047530Y0120253D01*
X0048281Y0119502D02*
X0048281Y0118001D01*
X0047530Y0117250D01*
X0043777Y0117250D01*
X0042783Y0116250D02*
X0039781Y0116250D01*
X0041282Y0116250D02*
X0041282Y0120754D01*
X0039781Y0119253D01*
X0052031Y0114952D02*
X0052031Y0113373D01*
X0052031Y0105627D02*
X0052031Y0103373D01*
X0057531Y0096254D02*
X0057332Y0096101D01*
X0057130Y0095953D01*
X0056925Y0095810D01*
X0056716Y0095672D01*
X0056504Y0095539D01*
X0056289Y0095411D01*
X0056071Y0095289D01*
X0055850Y0095171D01*
X0055626Y0095059D01*
X0055400Y0094952D01*
X0055171Y0094851D01*
X0054940Y0094755D01*
X0054706Y0094664D01*
X0054471Y0094579D01*
X0054233Y0094500D01*
X0053994Y0094427D01*
X0053753Y0094359D01*
X0053511Y0094297D01*
X0053267Y0094241D01*
X0053021Y0094190D01*
X0052775Y0094146D01*
X0052528Y0094107D01*
X0052280Y0094075D01*
X0052031Y0094048D01*
X0052031Y0095627D01*
X0050074Y0095254D02*
X0050074Y0090750D01*
X0048573Y0090750D02*
X0051576Y0090750D01*
X0053177Y0091501D02*
X0053177Y0093753D01*
X0053177Y0091501D02*
X0053928Y0090750D01*
X0056180Y0090750D01*
X0056180Y0093753D01*
X0050074Y0095254D02*
X0048573Y0093753D01*
X0052031Y0094048D02*
X0051776Y0094026D01*
X0051520Y0094011D01*
X0051264Y0094003D01*
X0051007Y0094000D01*
X0050751Y0094004D01*
X0050495Y0094014D01*
X0050239Y0094030D01*
X0049984Y0094052D01*
X0049729Y0094081D01*
X0049475Y0094116D01*
X0049222Y0094157D01*
X0048970Y0094204D01*
X0048720Y0094258D01*
X0048471Y0094317D01*
X0048223Y0094383D01*
X0047977Y0094454D01*
X0047732Y0094532D01*
X0047490Y0094615D01*
X0047250Y0094704D01*
X0047012Y0094800D01*
X0046776Y0094901D01*
X0046543Y0095007D01*
X0046313Y0095120D01*
X0046085Y0095238D01*
X0045861Y0095361D01*
X0045639Y0095490D01*
X0045421Y0095624D01*
X0045206Y0095764D01*
X0044995Y0095909D01*
X0044787Y0096059D01*
X0044583Y0096213D01*
X0044382Y0096373D01*
X0044186Y0096538D01*
X0043994Y0096707D01*
X0043805Y0096882D01*
X0043622Y0097060D01*
X0043442Y0097243D01*
X0043267Y0097431D01*
X0043097Y0097622D01*
X0042932Y0097818D01*
X0042771Y0098018D01*
X0042615Y0098221D01*
X0042465Y0098428D01*
X0042319Y0098639D01*
X0042178Y0098854D01*
X0042043Y0099071D01*
X0041913Y0099292D01*
X0041789Y0099516D01*
X0041670Y0099743D01*
X0041557Y0099973D01*
X0041449Y0100206D01*
X0041347Y0100441D01*
X0041251Y0100679D01*
X0041161Y0100918D01*
X0041076Y0101160D01*
X0040998Y0101404D01*
X0040998Y0107596D02*
X0041076Y0107838D01*
X0041160Y0108078D01*
X0041249Y0108316D01*
X0041345Y0108552D01*
X0041446Y0108786D01*
X0041552Y0109017D01*
X0041665Y0109245D01*
X0041782Y0109471D01*
X0041905Y0109694D01*
X0042034Y0109913D01*
X0042168Y0110130D01*
X0042307Y0110343D01*
X0042451Y0110553D01*
X0042600Y0110759D01*
X0042754Y0110961D01*
X0042913Y0111160D01*
X0043077Y0111355D01*
X0043246Y0111546D01*
X0043419Y0111732D01*
X0043596Y0111915D01*
X0043778Y0112093D01*
X0043964Y0112266D01*
X0044155Y0112435D01*
X0044349Y0112599D01*
X0044547Y0112759D01*
X0044749Y0112914D01*
X0044955Y0113063D01*
X0045164Y0113208D01*
X0045377Y0113348D01*
X0045593Y0113482D01*
X0045813Y0113611D01*
X0046035Y0113735D01*
X0046260Y0113854D01*
X0046488Y0113966D01*
X0046719Y0114074D01*
X0046952Y0114175D01*
X0047188Y0114271D01*
X0047426Y0114362D01*
X0047666Y0114446D01*
X0047908Y0114525D01*
X0048152Y0114598D01*
X0048398Y0114664D01*
X0048645Y0114725D01*
X0048893Y0114780D01*
X0049143Y0114829D01*
X0049394Y0114872D01*
X0049646Y0114908D01*
X0049898Y0114939D01*
X0050152Y0114963D01*
X0050405Y0114981D01*
X0050660Y0114993D01*
X0050914Y0114999D01*
X0051169Y0114999D01*
X0051423Y0114993D01*
X0051677Y0114980D01*
X0051931Y0114961D01*
X0052184Y0114936D01*
X0052437Y0114905D01*
X0052689Y0114868D01*
X0052939Y0114825D01*
X0053189Y0114776D01*
X0053438Y0114721D01*
X0053685Y0114659D01*
X0053930Y0114592D01*
X0054174Y0114519D01*
X0054416Y0114440D01*
X0054655Y0114355D01*
X0054893Y0114264D01*
X0055129Y0114167D01*
X0055362Y0114065D01*
X0055592Y0113957D01*
X0055820Y0113844D01*
X0056045Y0113725D01*
X0056267Y0113601D01*
X0056486Y0113472D01*
X0056702Y0113337D01*
X0056915Y0113197D01*
X0057124Y0113051D01*
X0057329Y0112901D01*
X0057531Y0112746D01*
X0055030Y0121854D02*
X0055781Y0122605D01*
X0055781Y0124106D01*
X0055030Y0124856D01*
X0042783Y0134001D02*
X0042033Y0133250D01*
X0040532Y0133250D01*
X0039781Y0134001D01*
X0039781Y0137003D01*
X0040532Y0137754D01*
X0042033Y0137754D01*
X0042783Y0137003D01*
X0036232Y0137343D02*
X0030226Y0137343D01*
X0030977Y0136593D02*
X0030977Y0138094D01*
X0031728Y0138845D01*
X0031728Y0140446D02*
X0032478Y0140446D01*
X0033229Y0141197D01*
X0033229Y0142698D01*
X0033980Y0143449D01*
X0034730Y0143449D01*
X0035481Y0142698D01*
X0035481Y0141197D01*
X0034730Y0140446D01*
X0033980Y0140446D01*
X0033229Y0141197D01*
X0033229Y0142698D02*
X0032478Y0143449D01*
X0031728Y0143449D01*
X0030977Y0142698D01*
X0030977Y0141197D01*
X0031728Y0140446D01*
X0033980Y0138845D02*
X0033229Y0138094D01*
X0033229Y0136593D01*
X0032478Y0135842D01*
X0031728Y0135842D01*
X0030977Y0136593D01*
X0030977Y0134241D02*
X0034730Y0134241D01*
X0035481Y0133490D01*
X0035481Y0131989D01*
X0034730Y0131238D01*
X0030977Y0131238D01*
X0034730Y0135842D02*
X0035481Y0136593D01*
X0035481Y0138094D01*
X0034730Y0138845D01*
X0033980Y0138845D01*
X0072281Y0148750D02*
X0073032Y0148750D01*
X0073032Y0149501D01*
X0072281Y0149501D01*
X0072281Y0148750D01*
X0074583Y0148750D02*
X0077585Y0148750D01*
X0076084Y0148750D02*
X0076084Y0153254D01*
X0074583Y0151753D01*
X0079187Y0151753D02*
X0079187Y0149501D01*
X0079937Y0148750D01*
X0082189Y0148750D01*
X0082189Y0151753D01*
X0079137Y0165750D02*
X0077635Y0165750D01*
X0076885Y0166501D01*
X0076885Y0167251D01*
X0077635Y0168002D01*
X0079137Y0168002D01*
X0079887Y0167251D01*
X0079887Y0166501D01*
X0079137Y0165750D01*
X0079137Y0168002D02*
X0079887Y0168753D01*
X0079887Y0169503D01*
X0079137Y0170254D01*
X0077635Y0170254D01*
X0076885Y0169503D01*
X0076885Y0168753D01*
X0077635Y0168002D01*
X0075283Y0169503D02*
X0074533Y0170254D01*
X0073032Y0170254D01*
X0072281Y0169503D01*
X0072281Y0166501D01*
X0073032Y0165750D01*
X0074533Y0165750D01*
X0075283Y0166501D01*
X0077381Y0174750D02*
X0080383Y0174750D01*
X0078882Y0174750D02*
X0078882Y0179254D01*
X0077381Y0177753D01*
X0081985Y0178503D02*
X0081985Y0175501D01*
X0084987Y0178503D01*
X0084987Y0175501D01*
X0084237Y0174750D01*
X0082735Y0174750D01*
X0081985Y0175501D01*
X0081985Y0178503D02*
X0082735Y0179254D01*
X0084237Y0179254D01*
X0084987Y0178503D01*
X0086589Y0179254D02*
X0086589Y0174750D01*
X0086589Y0176251D02*
X0089591Y0179254D01*
X0087339Y0177002D02*
X0089591Y0174750D01*
X0081887Y0183250D02*
X0078885Y0183250D01*
X0079229Y0182550D02*
X0077728Y0182550D01*
X0076977Y0183301D01*
X0076977Y0184802D01*
X0079229Y0184802D01*
X0079980Y0184051D01*
X0079980Y0183301D01*
X0079229Y0182550D01*
X0080386Y0183250D02*
X0080386Y0187754D01*
X0078885Y0186253D01*
X0078478Y0186303D02*
X0076977Y0184802D01*
X0076533Y0184751D02*
X0077283Y0185502D01*
X0077283Y0187003D01*
X0076533Y0187754D01*
X0074281Y0187754D01*
X0074281Y0183250D01*
X0074625Y0182550D02*
X0073124Y0182550D01*
X0072373Y0183301D01*
X0070772Y0183301D02*
X0070772Y0187054D01*
X0072373Y0186303D02*
X0073124Y0187054D01*
X0074625Y0187054D01*
X0075376Y0186303D01*
X0075782Y0184751D02*
X0077283Y0183250D01*
X0076533Y0184751D02*
X0074281Y0184751D01*
X0074625Y0184802D02*
X0073124Y0184802D01*
X0072373Y0185553D01*
X0072373Y0186303D01*
X0073874Y0187804D02*
X0073874Y0181799D01*
X0074625Y0182550D02*
X0075376Y0183301D01*
X0075376Y0184051D01*
X0074625Y0184802D01*
X0078478Y0186303D02*
X0079980Y0187054D01*
X0070772Y0183301D02*
X0070021Y0182550D01*
X0068520Y0182550D01*
X0067769Y0183301D01*
X0067769Y0187054D01*
X0073481Y0126454D02*
X0073481Y0122701D01*
X0074232Y0121950D01*
X0075733Y0121950D01*
X0076483Y0122701D01*
X0076483Y0126454D01*
X0078085Y0125703D02*
X0078835Y0126454D01*
X0080337Y0126454D01*
X0081087Y0125703D01*
X0080337Y0124202D02*
X0078835Y0124202D01*
X0078085Y0124953D01*
X0078085Y0125703D01*
X0079586Y0127204D02*
X0079586Y0121199D01*
X0078835Y0121950D02*
X0080337Y0121950D01*
X0081087Y0122701D01*
X0081087Y0123451D01*
X0080337Y0124202D01*
X0082689Y0124202D02*
X0085691Y0124202D01*
X0084941Y0121950D02*
X0084941Y0126454D01*
X0082689Y0124202D01*
X0078835Y0121950D02*
X0078085Y0122701D01*
X0079586Y0107204D02*
X0079586Y0101199D01*
X0078835Y0101950D02*
X0080337Y0101950D01*
X0081087Y0102701D01*
X0081087Y0103451D01*
X0080337Y0104202D01*
X0078835Y0104202D01*
X0078085Y0104953D01*
X0078085Y0105703D01*
X0078835Y0106454D01*
X0080337Y0106454D01*
X0081087Y0105703D01*
X0082689Y0105703D02*
X0083439Y0106454D01*
X0084941Y0106454D01*
X0085691Y0105703D01*
X0085691Y0104953D01*
X0084941Y0104202D01*
X0085691Y0103451D01*
X0085691Y0102701D01*
X0084941Y0101950D01*
X0083439Y0101950D01*
X0082689Y0102701D01*
X0084190Y0104202D02*
X0084941Y0104202D01*
X0078835Y0101950D02*
X0078085Y0102701D01*
X0076483Y0102701D02*
X0076483Y0106454D01*
X0073481Y0106454D02*
X0073481Y0102701D01*
X0074232Y0101950D01*
X0075733Y0101950D01*
X0076483Y0102701D01*
X0056180Y0078254D02*
X0053177Y0078254D01*
X0053177Y0076002D01*
X0054678Y0076753D01*
X0055429Y0076753D01*
X0056180Y0076002D01*
X0056180Y0074501D01*
X0055429Y0073750D01*
X0053928Y0073750D01*
X0053177Y0074501D01*
X0051576Y0074501D02*
X0050825Y0073750D01*
X0049324Y0073750D01*
X0048573Y0074501D01*
X0048573Y0077503D01*
X0049324Y0078254D01*
X0050825Y0078254D01*
X0051576Y0077503D01*
X0027886Y0033254D02*
X0026385Y0031753D01*
X0024783Y0032503D02*
X0024033Y0033254D01*
X0022532Y0033254D01*
X0021781Y0032503D01*
X0021781Y0031753D01*
X0022532Y0031002D01*
X0024033Y0031002D01*
X0024783Y0030251D01*
X0024783Y0029501D01*
X0024033Y0028750D01*
X0022532Y0028750D01*
X0021781Y0029501D01*
X0026385Y0028750D02*
X0029387Y0028750D01*
X0027886Y0028750D02*
X0027886Y0033254D01*
X0024782Y0008254D02*
X0024782Y0003750D01*
X0023281Y0003750D02*
X0026283Y0003750D01*
X0023281Y0006753D02*
X0024782Y0008254D01*
X0060281Y0007503D02*
X0061032Y0008254D01*
X0062533Y0008254D01*
X0063283Y0007503D01*
X0063283Y0006753D01*
X0060281Y0003750D01*
X0063283Y0003750D01*
X0116281Y0011250D02*
X0119283Y0011250D01*
X0120885Y0011250D02*
X0123887Y0011250D01*
X0125489Y0011250D02*
X0127741Y0011250D01*
X0128491Y0012001D01*
X0128491Y0015003D01*
X0127741Y0015754D01*
X0125489Y0015754D01*
X0125489Y0011250D01*
X0122386Y0013502D02*
X0120885Y0013502D01*
X0120885Y0015754D02*
X0120885Y0011250D01*
X0120885Y0015754D02*
X0123887Y0015754D01*
X0130093Y0015003D02*
X0130843Y0015754D01*
X0132345Y0015754D01*
X0133095Y0015003D01*
X0133095Y0014253D01*
X0130093Y0011250D01*
X0133095Y0011250D01*
X0134881Y0011003D02*
X0135632Y0011754D01*
X0137133Y0011754D01*
X0137883Y0011003D01*
X0137883Y0010253D01*
X0137133Y0009502D01*
X0137883Y0008751D01*
X0137883Y0008001D01*
X0137133Y0007250D01*
X0135632Y0007250D01*
X0134881Y0008001D01*
X0136382Y0009502D02*
X0137133Y0009502D01*
X0139485Y0011003D02*
X0140235Y0011754D01*
X0141737Y0011754D01*
X0142487Y0011003D01*
X0142487Y0010253D01*
X0141737Y0009502D01*
X0142487Y0008751D01*
X0142487Y0008001D01*
X0141737Y0007250D01*
X0140235Y0007250D01*
X0139485Y0008001D01*
X0140986Y0009502D02*
X0141737Y0009502D01*
X0144089Y0008001D02*
X0144089Y0011003D01*
X0144839Y0011754D01*
X0146341Y0011754D01*
X0147091Y0011003D01*
X0144089Y0008001D01*
X0144839Y0007250D01*
X0146341Y0007250D01*
X0147091Y0008001D01*
X0147091Y0011003D01*
X0138637Y0015750D02*
X0138637Y0020254D01*
X0136385Y0018002D01*
X0139387Y0018002D01*
X0134783Y0018002D02*
X0134033Y0017251D01*
X0131781Y0017251D01*
X0131781Y0015750D02*
X0131781Y0020254D01*
X0134033Y0020254D01*
X0134783Y0019503D01*
X0134783Y0018002D01*
X0133282Y0017251D02*
X0134783Y0015750D01*
X0116281Y0015754D02*
X0116281Y0011250D01*
X0138386Y0164999D02*
X0138386Y0171004D01*
X0137635Y0170254D02*
X0139137Y0170254D01*
X0139887Y0169503D01*
X0139137Y0168002D02*
X0137635Y0168002D01*
X0136885Y0168753D01*
X0136885Y0169503D01*
X0137635Y0170254D01*
X0135283Y0170254D02*
X0135283Y0166501D01*
X0134533Y0165750D01*
X0133032Y0165750D01*
X0132281Y0166501D01*
X0132281Y0170254D01*
X0136885Y0166501D02*
X0137635Y0165750D01*
X0139137Y0165750D01*
X0139887Y0166501D01*
X0139887Y0167251D01*
X0139137Y0168002D01*
X0141489Y0168753D02*
X0142990Y0170254D01*
X0142990Y0165750D01*
X0141489Y0165750D02*
X0144491Y0165750D01*
D15*
X0100231Y0177000D03*
X0071831Y0177000D03*
X0064331Y0074500D03*
X0064331Y0059500D03*
X0092731Y0059500D03*
X0092731Y0074500D03*
X0129331Y0009500D03*
X0157731Y0009500D03*
D16*
X0208531Y0064500D02*
X0206031Y0067000D01*
X0206031Y0072000D01*
X0208531Y0074500D01*
X0206031Y0077000D01*
X0206031Y0082000D01*
X0208531Y0084500D01*
X0206031Y0087000D01*
X0206031Y0092000D01*
X0208531Y0094500D01*
X0206031Y0097000D01*
X0206031Y0102000D01*
X0208531Y0104500D01*
X0206031Y0107000D01*
X0206031Y0112000D01*
X0208531Y0114500D01*
X0206031Y0117000D01*
X0206031Y0122000D01*
X0208531Y0124500D01*
X0206031Y0127000D01*
X0206031Y0132000D01*
X0208531Y0134500D01*
X0206031Y0137000D01*
X0206031Y0142000D01*
X0208531Y0144500D01*
X0213531Y0144500D01*
X0216031Y0142000D01*
X0216031Y0137000D01*
X0213531Y0134500D01*
X0216031Y0132000D01*
X0216031Y0127000D01*
X0213531Y0124500D01*
X0216031Y0122000D01*
X0216031Y0117000D01*
X0213531Y0114500D01*
X0216031Y0112000D01*
X0216031Y0107000D01*
X0213531Y0104500D01*
X0216031Y0102000D01*
X0216031Y0097000D01*
X0213531Y0094500D01*
X0216031Y0092000D01*
X0216031Y0087000D01*
X0213531Y0084500D01*
X0216031Y0082000D01*
X0216031Y0077000D01*
X0213531Y0074500D01*
X0216031Y0072000D01*
X0216031Y0067000D01*
X0213531Y0064500D01*
X0208531Y0064500D01*
X0103531Y0092000D02*
X0103531Y0097000D01*
X0101031Y0099500D01*
X0096031Y0099500D01*
X0093531Y0097000D01*
X0091031Y0099500D01*
X0086031Y0099500D01*
X0083531Y0097000D01*
X0081031Y0099500D01*
X0076031Y0099500D01*
X0073531Y0097000D01*
X0073531Y0092000D01*
X0076031Y0089500D01*
X0081031Y0089500D01*
X0083531Y0092000D01*
X0086031Y0089500D01*
X0091031Y0089500D01*
X0093531Y0092000D01*
X0096031Y0089500D01*
X0101031Y0089500D01*
X0103531Y0092000D01*
X0101031Y0109500D02*
X0096031Y0109500D01*
X0093531Y0112000D01*
X0091031Y0109500D01*
X0086031Y0109500D01*
X0083531Y0112000D01*
X0081031Y0109500D01*
X0076031Y0109500D01*
X0073531Y0112000D01*
X0073531Y0117000D01*
X0076031Y0119500D01*
X0081031Y0119500D01*
X0083531Y0117000D01*
X0086031Y0119500D01*
X0091031Y0119500D01*
X0093531Y0117000D01*
X0096031Y0119500D01*
X0101031Y0119500D01*
X0103531Y0117000D01*
X0103531Y0112000D01*
X0101031Y0109500D01*
X0028531Y0107000D02*
X0026031Y0104500D01*
X0028531Y0102000D01*
X0028531Y0097000D01*
X0026031Y0094500D01*
X0028531Y0092000D01*
X0028531Y0087000D01*
X0026031Y0084500D01*
X0028531Y0082000D01*
X0028531Y0077000D01*
X0026031Y0074500D01*
X0028531Y0072000D01*
X0028531Y0067000D01*
X0026031Y0064500D01*
X0021031Y0064500D01*
X0018531Y0067000D01*
X0018531Y0072000D01*
X0021031Y0074500D01*
X0018531Y0077000D01*
X0018531Y0082000D01*
X0021031Y0084500D01*
X0018531Y0087000D01*
X0018531Y0092000D01*
X0021031Y0094500D01*
X0018531Y0097000D01*
X0018531Y0102000D01*
X0021031Y0104500D01*
X0018531Y0107000D01*
X0018531Y0112000D01*
X0021031Y0114500D01*
X0018531Y0117000D01*
X0018531Y0122000D01*
X0021031Y0124500D01*
X0018531Y0127000D01*
X0018531Y0132000D01*
X0021031Y0134500D01*
X0018531Y0137000D01*
X0018531Y0142000D01*
X0021031Y0144500D01*
X0026031Y0144500D01*
X0028531Y0142000D01*
X0028531Y0137000D01*
X0026031Y0134500D01*
X0028531Y0132000D01*
X0028531Y0127000D01*
X0026031Y0124500D01*
X0028531Y0122000D01*
X0028531Y0117000D01*
X0026031Y0114500D01*
X0028531Y0112000D01*
X0028531Y0107000D01*
X0028531Y0189500D02*
X0023531Y0189500D01*
X0021031Y0192000D01*
X0021031Y0197000D01*
X0023531Y0199500D01*
X0028531Y0199500D01*
X0031031Y0197000D01*
X0033531Y0199500D01*
X0038531Y0199500D01*
X0041031Y0197000D01*
X0043531Y0199500D01*
X0048531Y0199500D01*
X0051031Y0197000D01*
X0053531Y0199500D01*
X0058531Y0199500D01*
X0061031Y0197000D01*
X0063531Y0199500D01*
X0068531Y0199500D01*
X0071031Y0197000D01*
X0073531Y0199500D01*
X0078531Y0199500D01*
X0081031Y0197000D01*
X0081031Y0192000D01*
X0078531Y0189500D01*
X0073531Y0189500D01*
X0071031Y0192000D01*
X0068531Y0189500D01*
X0063531Y0189500D01*
X0061031Y0192000D01*
X0058531Y0189500D01*
X0053531Y0189500D01*
X0051031Y0192000D01*
X0048531Y0189500D01*
X0043531Y0189500D01*
X0041031Y0192000D01*
X0038531Y0189500D01*
X0033531Y0189500D01*
X0031031Y0192000D01*
X0028531Y0189500D01*
X0183531Y0187000D02*
X0183531Y0182000D01*
X0186031Y0179500D01*
X0191031Y0179500D01*
X0193531Y0182000D01*
X0196031Y0179500D01*
X0201031Y0179500D01*
X0203531Y0182000D01*
X0206031Y0179500D01*
X0211031Y0179500D01*
X0213531Y0182000D01*
X0213531Y0187000D01*
X0211031Y0189500D01*
X0206031Y0189500D01*
X0203531Y0187000D01*
X0201031Y0189500D01*
X0196031Y0189500D01*
X0193531Y0187000D01*
X0191031Y0189500D01*
X0186031Y0189500D01*
X0183531Y0187000D01*
M02*
